<?xml version="1.0" encoding="iso-8859-1"?>
<!-- Generator: Adobe Illustrator 19.0.0, SVG Export Plug-In . SVG Version: 6.00 Build 0)  -->
<svg version="1.1" id="Capa_1" xmlns="http://www.w3.org/2000/svg" xmlns:xlink="http://www.w3.org/1999/xlink" x="0px" y="0px"
	 viewBox="0 0 512 512" style="enable-background:new 0 0 512 512;" xml:space="preserve">
<g>
	<path style="fill:#FCC69D;" d="M256,285.291L256,285.291c0-12.837-10.407-23.244-23.244-23.244h-21.339
		c-0.673-15.812-13.699-28.425-29.676-28.425h-70.574c-17.035,0-33.088,7.972-43.383,21.543l-12.067,15.906H10v139.48h45.717
		l12.067,15.906C78.079,440.028,94.132,448,111.167,448h53.146h0.002h68.441C245.593,448,256,437.593,256,424.756
		s-10.407-23.244-23.244-23.244c12.837,0,23.244-10.407,23.244-23.244l0,0c0-12.837-10.407-23.244-23.244-23.244
		c12.837,0,23.244-10.407,23.244-23.244c0-12.837-10.407-23.244-23.244-23.244C245.593,308.535,256,298.129,256,285.291z"/>
	<path style="fill:#FCC69D;" d="M256,285.291L256,285.291c0-12.837,10.407-23.244,23.244-23.244h21.339
		c0.673-15.812,13.699-28.425,29.676-28.425h70.574c17.035,0,33.088,7.972,43.383,21.543l12.067,15.906H502v139.48h-45.717
		l-12.067,15.906C433.921,440.028,417.868,448,400.833,448h-53.146h-0.002h-68.441C266.407,448,256,437.593,256,424.756
		s10.407-23.244,23.244-23.244c-12.837,0-23.244-10.407-23.244-23.244l0,0c0-12.837,10.407-23.244,23.244-23.244
		c-12.837,0-23.244-10.407-23.244-23.244c0-12.837,10.407-23.244,23.244-23.244C266.407,308.535,256,298.129,256,285.291z"/>
</g>
<path d="M74.768,338.398c14.889,0,28.241-8.868,34.015-22.592c2.142-5.091-0.249-10.953-5.339-13.096
	c-5.092-2.141-10.954,0.248-13.095,5.34c-2.645,6.286-8.76,10.348-15.58,10.348h-7.035c-5.523,0-10,4.478-10,10s4.477,10,10,10
	L74.768,338.398L74.768,338.398z"/>
<path d="M502,400.551h-45.716c-3.128,0-6.076,1.464-7.967,3.956l-12.067,15.906C427.896,431.426,414.656,438,400.833,438h-22.664
	c1.771-4.061,2.76-8.538,2.76-13.244c0-9.041-3.632-17.245-9.508-23.244c5.876-5.999,9.508-14.204,9.508-23.244
	s-3.632-17.245-9.508-23.244c5.876-5.999,9.508-14.204,9.508-23.244c0-17.48-13.563-31.841-30.716-33.138
	c0.688-1.715,1.271-3.483,1.726-5.302H384c5.523,0,10-4.478,10-10s-4.477-10-10-10h-40.834c-5.523,0-10,4.478-10,10
	c0,11.695-9.515,21.21-21.21,21.21h-1.404v-41.218c0-10.867,8.841-19.709,19.708-19.709h70.574c13.822,0,27.062,6.574,35.417,17.587
	l12.067,15.905c1.891,2.492,4.839,3.956,7.967,3.956H502c5.523,0,10-4.478,10-10s-4.477-10-10-10h-40.751l-9.065-11.949
	c-12.112-15.967-31.309-25.499-51.35-25.499H330.26c-17.976,0-33.191,12.01-38.066,28.425h-12.95
	c-9.041,0-17.245,3.632-23.244,9.508c-5.999-5.876-14.204-9.508-23.244-9.508h-12.95c-4.875-16.415-20.09-28.425-38.066-28.425
	h-70.574c-20.041,0-39.238,9.532-51.35,25.499l-9.065,11.949H10c-5.523,0-10,4.478-10,10s4.477,10,10,10h45.716
	c3.128,0,6.076-1.464,7.967-3.956L75.75,261.21c8.354-11.013,21.594-17.587,35.417-17.587h70.574
	c10.867,0,19.708,8.842,19.708,19.709v41.218h-1.404c-11.695,0-21.21-9.515-21.21-21.21c0-5.522-4.477-10-10-10H128
	c-5.523,0-10,4.478-10,10s4.477,10,10,10h32.061c0.455,1.819,1.038,3.587,1.726,5.302c-17.153,1.297-30.716,15.658-30.716,33.138
	c0,9.041,3.632,17.245,9.508,23.244c-5.876,5.999-9.508,14.204-9.508,23.244s3.632,17.245,9.508,23.244
	c-5.876,5.999-9.508,14.204-9.508,23.244c0,4.706,0.989,9.183,2.76,13.244h-22.664c-13.822,0-27.063-6.574-35.417-17.587
	l-12.067-15.906c-1.891-2.492-4.838-3.956-7.967-3.956H10c-5.523,0-10,4.478-10,10s4.477,10,10,10h40.75l9.066,11.95
	C71.929,448.468,91.125,458,111.167,458h121.589c9.041,0,17.245-3.632,23.244-9.508c5.999,5.876,14.204,9.508,23.244,9.508h121.589
	c20.041,0,39.238-9.532,51.35-25.499l9.066-11.95H502c5.523,0,10-4.478,10-10S507.523,400.551,502,400.551z M151.071,378.268
	c0-7.303,5.941-13.244,13.244-13.244h68.441c7.303,0,13.244,5.941,13.244,13.244s-5.941,13.244-13.244,13.244h-68.441
	C157.012,391.512,151.071,385.57,151.071,378.268z M266,378.268c0-7.303,5.941-13.244,13.244-13.244h68.441
	c7.303,0,13.244,5.941,13.244,13.244s-5.941,13.244-13.244,13.244h-68.441C271.941,391.512,266,385.57,266,378.268z
	 M311.955,324.549c7.837,0,15.171-2.2,21.416-6.014h14.314c7.303,0,13.244,5.941,13.244,13.244s-5.941,13.244-13.244,13.244h-68.441
	c-7.303,0-13.244-5.941-13.244-13.244s5.941-13.244,13.244-13.244h12.138c1.541,3.538,5.064,6.014,9.169,6.014H311.955z
	 M279.244,272.047h11.307v26.488h-11.307c-7.303,0-13.244-5.941-13.244-13.244S271.941,272.047,279.244,272.047z M246,285.291
	c0,7.303-5.941,13.244-13.244,13.244h-11.307v-26.488h11.307C240.059,272.047,246,277.988,246,285.291z M164.315,318.535h14.314
	c6.245,3.814,13.578,6.014,21.416,6.014h11.404c4.105,0,7.628-2.476,9.169-6.014h12.138c7.303,0,13.244,5.941,13.244,13.244
	s-5.941,13.244-13.244,13.244h-68.441c-7.303,0-13.244-5.941-13.244-13.244S157.012,318.535,164.315,318.535z M232.756,438h-68.441
	c-7.303,0-13.244-5.941-13.244-13.244s5.941-13.244,13.244-13.244h68.441c7.303,0,13.244,5.941,13.244,13.244
	S240.059,438,232.756,438z M279.244,438c-7.303,0-13.244-5.941-13.244-13.244s5.941-13.244,13.244-13.244h68.441
	c7.303,0,13.244,5.941,13.244,13.244S354.988,438,347.685,438H279.244z"/>
<path d="M437.186,318.398c-6.82,0-12.935-4.062-15.58-10.348c-2.142-5.091-8.007-7.48-13.095-5.34
	c-5.091,2.143-7.481,8.005-5.339,13.096c5.774,13.724,19.125,22.592,34.015,22.592h7.035c5.523,0,10-4.478,10-10s-4.477-10-10-10
	L437.186,318.398L437.186,318.398z"/>
<path d="M255.987,150c5.523,0,10-4.478,10-10V64c0-5.522-4.477-10-10-10s-10,4.478-10,10v76
	C245.987,145.522,250.464,150,255.987,150z"/>
<path d="M255.99,167.5c-2.63,0-5.21,1.069-7.07,2.93s-2.93,4.44-2.93,7.07s1.07,5.21,2.93,7.069c1.86,1.86,4.44,2.931,7.07,2.931
	c2.63,0,5.21-1.07,7.07-2.931c1.86-1.859,2.93-4.439,2.93-7.069s-1.07-5.21-2.93-7.07C261.2,168.569,258.62,167.5,255.99,167.5z"/>
<path d="M175.015,160.528c1.953,1.951,4.51,2.927,7.068,2.927c2.56,0,5.121-0.978,7.074-2.932
	c3.904-3.906,3.901-10.238-0.005-14.142l-52.186-52.147c-3.906-3.903-10.238-3.901-14.142,0.005s-3.901,10.238,0.005,14.142
	L175.015,160.528z"/>
<path d="M334.16,161.878c2.561,0,5.121-0.978,7.074-2.932l47.942-47.981c3.904-3.907,3.901-10.238-0.005-14.143
	c-3.907-3.901-10.239-3.901-14.142,0.006l-47.942,47.981c-3.904,3.907-3.901,10.238,0.005,14.143
	C329.044,160.902,331.602,161.878,334.16,161.878z"/>
<g>
</g>
<g>
</g>
<g>
</g>
<g>
</g>
<g>
</g>
<g>
</g>
<g>
</g>
<g>
</g>
<g>
</g>
<g>
</g>
<g>
</g>
<g>
</g>
<g>
</g>
<g>
</g>
<g>
</g>
</svg>
