<svg xmlns="http://www.w3.org/2000/svg" xmlns:xlink="http://www.w3.org/1999/xlink" viewBox="0 0 878.5 701.26" xmlns:v="https://vecta.io/nano"><style><![CDATA[.B{fill:none}.C{stroke:#3f3d56}.D{stroke-miterlimit:10}.E{fill:#f2f2f2}.F{fill:#a0616a}.G{fill:green}.H{fill:#57b894}.I{fill:#3f3d56}]]></style><path d="M43 97.5h186v151H43z" class="G"/><path d="M43 294.5h515v16H43z" class="E"/><path d="M30 88.5h186v151H30z" class="B C D"/><path d="M303 139h180v16H303zm0 43h255v16H303z" class="E"/><path d="M290 130h180v16H290zm0 43h255v16H290zM30 285.5h515v16H30z" class="B C D"/><path d="M43 344.5h515v16H43z" class="E"/><path d="M30 335.5h515v16H30z" class="B C D"/><path d="M43 394.5h515v16H43z" class="E"/><path d="M30 385.5h515v16H30z" class="B C D"/><path d="M43 444.5h515v16H43z" class="E"/><path d="M30 435.5h515v16H30z" class="B C D"/><path d="M43 494.5h515v16H43z" class="E"/><path d="M30 485.5h515v16H30z" class="B C D"/><path d="M43 544.5h515v16H43z" class="E"/><g class="B C D"><path d="M30 535.5h515v16H30z"/><path d="M.5.5h587v648H.5z"/></g><use xlink:href="#B" class="H"/><g class="B C D"><path d="M836.416 700.424c-1.752-8.922 5.84-16.83 13.34-21.973s16.262-10.193 18.82-18.917c3.677-12.54-7.276-24.023-15.802-33.926a122.71 122.71 0 0 1-16.182-24.05c-1.924-3.39-3.234-7.09-3.87-10.935-.672-5.558 1.113-11.09 2.912-16.39q8.99-26.492 19.223-52.54"/><use xlink:href="#B" x="0.839" y="-2.702"/></g><use xlink:href="#C" class="H"/><use xlink:href="#C" x="1.119" y="-3.601" class="B C D"/><path d="M849.196 625.8c9.74 3.533 20.58-.804 25.196-10.08s1.535-20.54-7.158-26.177l-2.39 8.05-1.695-10.09c-.017-.008-.034-.014-.052-.02a20.38 20.38 0 0 0-27.029 22.72 20.38 20.38 0 0 0 13.128 15.599z" class="H"/><path d="M850.166 622.163c9.74 3.533 20.58-.804 25.196-10.08s1.535-20.54-7.158-26.177l-2.39 8.05-1.695-10.09c-.017-.008-.034-.014-.052-.02a20.38 20.38 0 0 0-27.026 22.72 20.38 20.38 0 0 0 13.125 15.599z" class="B C D"/><use xlink:href="#D" class="H"/><use xlink:href="#D" x="0.84" y="-2.701" class="B C D"/><path d="M588 235s12.5 26.5 10.5 34.5A21.9 21.9 0 0 0 600 284l23-1 21.5-20.5S612 240 614 229s-26 6-26 6z" class="F"/><path d="M646 277l10 62s0 56-3 57-16 0-16 0v-63l4-55z" class="G"/><path d="M646 277l10 62s0 56-3 57-16 0-16 0v-63l4-55z" opacity=".1"/><path d="M706 641l8 31 12-9 11-25-14-17-17 20z" class="F"/><g class="I"><path d="M737 634s-13 10-13 20c0 0-7 11-15 10v21s-25 13-6 16 33-21 33-21 18-29 15-33-14-13-14-13z"/><use xlink:href="#E"/></g><use xlink:href="#E" opacity=".1"/><path d="M621 664l-10 11 4 9 12 4 21-8-3-12-24-4z" class="F"/><path d="M651 675s-24 12-30 7c-3.504-2.802-5.674-6.943-5.983-11.42 0 0-12.017 1.42-20.017 6.42s-14 11-24 11-6 12 13 13 67-1 67-6zm-68-271s-13 58 10 124c0 0 11 37 16 48s10 89 8 92c0 0 16 13 30 4 0 0-1-46 1-50s4-39-8-68-2-99-2-99 24-36 6-57z" class="I"/><circle cx="598" cy="214" r="28" class="F"/><path d="M650 397s-8 12-14 6c-4.23-4.23-31.3 4.96-46.93 10.75L578 418s-.43-13.86-1.7-31.4c-1.46-20.14-4.02-45.16-8.3-59.6-8-27 12-38 12-38s17-20 16-23 45-18 45-18c5 1 9 46 9 46l-14 58c-5 22 14 45 14 45z" class="G"/><path d="M564 398s-22 22-33 28-17 26-8 30 29-22 29-22l29-24z" class="F"/><path d="M568.157 197.278c-2.558.228-4.02 3.45-3.194 5.88s3.198 4.022 5.622 4.873 5.014 1.14 7.44 1.983c2.413.882 4.652 2.182 6.614 3.84 6.912 5.66 11.005 14.286 12.308 23.125s.004 17.896-2.452 26.486c-1.302 4.55-3.427 9.537-7.875 11.154 4.862-1.2 9.613-2.812 14.202-4.816 3.363-1.584 6.52-3.59 9.92-5.094a62.19 62.19 0 0 1 15.705-4.118c3.786-.59 7.787-1.04 11.342.39a22.8 22.8 0 0 1 5.945 4.009l11.435 9.608q.3-6.266.394-12.54c.056-3.635.04-7.375-1.298-10.755-1.322-3.337-3.834-6.057-5.514-9.228-4.158-7.847-2.803-17.3-2.726-26.18.08-9.195-1.4-18.565-5.657-26.715s-11.525-14.975-20.4-17.415c-11.95-3.29-24.545 1.606-35.53 7.347-2.585 1.23-4.994 2.798-7.164 4.664a34.82 34.82 0 0 0-5.824 7.941l-5.438 9.112" class="I"/><path d="M639 304l-21 77c-1.44 3.6-18.38 22.7-28.93 32.75L578 418s-.43-13.86-1.7-31.4c8.14-9.03 16.7-17.6 16.7-17.6s9-55 8-76 20-26 20-26c24 3 18 37 18 37z" opacity=".1"/><path d="M618 263s-21 5-20 26-8 76-8 76-34 34-31 38 15.853 11.864 18.927 12.932S613 382 615 377s21-77 21-77 6-34-18-37z" class="G"/><path d="M509.5 700.5h369" class="B C D"/><defs ><path id="B" d="M811.858 578.75c8.135 2.957 17.25.454 22.735-6.244s6.138-16.13 1.633-23.52-13.188-11.13-21.654-9.326l.5 10.49-4.963-8.99c-4.87 2.29-8.635 6.418-10.463 11.48-.65 1.773-1.044 3.63-1.172 5.513a20.38 20.38 0 0 0 13.374 20.596z"/><path id="C" d="M833.925 518.068a20.36 20.36 0 0 1 14.67-12.925l1.678 9.973 3.11-10.475a20.38 20.38 0 0 1 11.271 37.152 20.38 20.38 0 0 1-30.731-23.726z"/><path id="D" d="M827.977 659.658c1.667 9.487 9.75 16.51 19.378 16.834s18.165-6.14 20.467-15.492-2.262-19.04-10.94-23.22-19.098-1.71-24.977 5.918l9.08 13.668-12.408-7.255a20.19 20.19 0 0 0-.601 9.547z"/><path id="E" d="M645.926 391.273S665 412 656 444c0 0-10 72 22 99s53 86 53 86l-24 22s-26-59-53-82-30-49-30-49v-91l-5-38z"/></defs></svg>
