<svg width="1008" height="438" fill="none" xmlns="http://www.w3.org/2000/svg"><path fill="#fff" d="M0 0h965v414H0z"/><path d="M849.496 200a119 119 0 0 1-214.678 69.753l37.217-27.04a72.997 72.997 0 0 0 117.523-.805A72.991 72.991 0 0 0 803.493 200h46.003Z" fill="#F4BE37" stroke="#fff" stroke-width="2"/><mask id="a" fill="#fff"><path d="M692.951 85.026a120.003 120.003 0 0 1 144.507 59.568 120.005 120.005 0 0 1 13.042 54.679l-48-.109a71.999 71.999 0 0 0-94.529-68.548l-15.02-45.59Z"/></mask><path d="M692.951 85.026a120.003 120.003 0 0 1 144.507 59.568 120.005 120.005 0 0 1 13.042 54.679l-48-.109a71.999 71.999 0 0 0-94.529-68.548l-15.02-45.59Z" fill="#5388D8" stroke="#fff" stroke-width="4" mask="url(#a)"/><mask id="b" fill="#fff"><path d="M633.717 269.944a120.002 120.002 0 0 1 59.219-184.913l15.026 45.588a71.997 71.997 0 0 0-35.532 110.947l-38.713 28.378Z"/></mask><path d="M633.717 269.944a120.002 120.002 0 0 1 59.219-184.913l15.026 45.588a71.997 71.997 0 0 0-35.532 110.947l-38.713 28.378Z" fill="#0D2535" stroke="#fff" stroke-width="4" mask="url(#b)"/><rect x="817" y="89" width="8" height="8" rx="4" fill="#5388D8"/><path d="m840.791 94.441 2.244-6.972h1.623L841.6 96h-1.096l.287-1.559Zm-2.074-6.972 2.226 6.972.305 1.559h-1.102l-3.046-8.531h1.617Zm10.06 7.26v-3.024c0-.227-.041-.422-.123-.586a.861.861 0 0 0-.375-.38 1.281 1.281 0 0 0-.621-.136c-.23 0-.429.04-.597.118a.969.969 0 0 0-.393.316.762.762 0 0 0-.141.451h-1.406c0-.25.061-.492.182-.726.121-.235.297-.444.527-.627a2.64 2.64 0 0 1 .826-.434 3.44 3.44 0 0 1 1.078-.158c.477 0 .899.08 1.266.24.371.16.662.403.873.727.215.32.322.722.322 1.207v2.818c0 .29.02.549.059.78.043.226.103.423.182.591V96h-1.448a2.519 2.519 0 0 1-.158-.58 4.76 4.76 0 0 1-.053-.692Zm.205-2.585.012.874h-1.014c-.261 0-.492.025-.691.076a1.42 1.42 0 0 0-.498.21.92.92 0 0 0-.299.34 1 1 0 0 0-.099.452c0 .168.039.322.117.463a.818.818 0 0 0 .34.322c.152.078.336.117.55.117.289 0 .541-.059.756-.176.219-.12.391-.267.516-.44.125-.175.191-.341.199-.497l.457.627c-.047.16-.127.332-.24.515-.113.184-.262.36-.445.528a2.215 2.215 0 0 1-1.518.563c-.414 0-.783-.083-1.107-.247a1.96 1.96 0 0 1-.762-.674 1.745 1.745 0 0 1-.276-.966c0-.337.063-.633.188-.891.129-.262.316-.48.562-.656a2.72 2.72 0 0 1 .915-.399 4.88 4.88 0 0 1 1.23-.14h1.107ZM853.184 87v9h-1.418v-9h1.418Zm1.277 5.9v-.134c0-.457.066-.881.199-1.272.133-.394.324-.736.574-1.025.254-.293.563-.52.926-.68a3.011 3.011 0 0 1 1.242-.246c.465 0 .879.082 1.243.246.367.16.677.387.931.68.254.289.447.63.58 1.025.133.39.199.815.199 1.272v.134c0 .457-.066.881-.199 1.272-.133.39-.326.732-.58 1.025a2.684 2.684 0 0 1-.926.68c-.363.16-.775.24-1.236.24-.465 0-.881-.08-1.248-.24a2.693 2.693 0 0 1-.926-.68 3.044 3.044 0 0 1-.58-1.025 3.922 3.922 0 0 1-.199-1.272Zm1.412-.134v.134c0 .285.029.555.088.809s.15.477.275.668c.125.191.285.342.481.451.195.11.428.164.697.164.262 0 .488-.055.68-.164.195-.11.355-.26.48-.451s.217-.414.276-.668a3.4 3.4 0 0 0 .093-.809v-.134a3.3 3.3 0 0 0-.093-.797 2.054 2.054 0 0 0-.282-.674 1.346 1.346 0 0 0-.48-.457 1.324 1.324 0 0 0-.686-.17c-.265 0-.496.057-.691.17-.191.11-.35.262-.475.457s-.216.42-.275.674c-.059.25-.088.515-.088.797Zm7.084-1.899V96h-1.412v-6.34h1.348l.064 1.207Zm1.939-1.248-.011 1.313a3.698 3.698 0 0 0-.574-.047c-.243 0-.456.035-.639.105a1.201 1.201 0 0 0-.744.75c-.067.18-.106.381-.117.604l-.323.023c0-.398.039-.767.117-1.107.079-.34.196-.639.352-.897.16-.257.359-.459.598-.603.242-.145.521-.217.838-.217.086 0 .177.008.275.023.102.016.178.034.228.053Zm6.715 2.174v1.125h-3.099v-1.125h3.099Zm9.703-.774v1.395c0 .668-.066 1.238-.199 1.711-.129.469-.316.85-.562 1.143a2.206 2.206 0 0 1-.885.644 3.04 3.04 0 0 1-1.143.205c-.336 0-.648-.043-.937-.129a2.3 2.3 0 0 1-.774-.404 2.421 2.421 0 0 1-.591-.709 3.947 3.947 0 0 1-.375-1.049 6.874 6.874 0 0 1-.129-1.412V91.02c0-.671.066-1.238.199-1.699.133-.464.322-.841.568-1.13.246-.293.539-.506.879-.64.344-.132.727-.198 1.149-.198.34 0 .652.042.937.129a2.203 2.203 0 0 1 1.36 1.095c.164.285.289.631.375 1.037.085.403.128.871.128 1.406Zm-1.412 1.594V90.81c0-.34-.019-.64-.058-.897a2.659 2.659 0 0 0-.176-.662 1.32 1.32 0 0 0-.281-.445.993.993 0 0 0-.387-.252 1.368 1.368 0 0 0-.486-.082c-.219 0-.414.043-.586.129a1.053 1.053 0 0 0-.434.398 2.17 2.17 0 0 0-.269.727 5.666 5.666 0 0 0-.088 1.084v1.804c0 .344.019.647.058.909.039.261.098.486.176.673.078.184.172.336.281.457.114.117.243.204.387.258.149.055.311.082.486.082.223 0 .42-.043.592-.129.172-.086.317-.222.434-.41.117-.191.205-.44.263-.744.059-.305.088-.67.088-1.096Zm6.528-5.174V96h-1.412v-6.885l-2.092.71v-1.167l3.334-1.219h.17Z" fill="#000" fill-opacity=".38"/><path d="M843 110.586V122h-1.883v-9.18l-2.789.946v-1.555l4.445-1.625H843Zm11.578 9.914v1.5h-7.625v-1.289l3.703-4.039c.406-.458.727-.854.961-1.188.235-.333.399-.632.492-.898.099-.271.149-.534.149-.789a2.09 2.09 0 0 0-.203-.945 1.493 1.493 0 0 0-.578-.649c-.256-.161-.566-.242-.93-.242-.422 0-.776.091-1.063.273a1.716 1.716 0 0 0-.648.758 2.593 2.593 0 0 0-.219 1.094h-1.883c0-.662.151-1.266.454-1.813a3.312 3.312 0 0 1 1.312-1.312c.573-.328 1.263-.492 2.07-.492.761 0 1.407.127 1.938.383.531.255.935.617 1.211 1.086.281.468.422 1.023.422 1.664 0 .354-.058.705-.172 1.054a5.042 5.042 0 0 1-.492 1.047c-.209.344-.456.69-.743 1.039-.286.344-.601.693-.945 1.047l-2.461 2.711h5.25Zm3.344-.312-.008 1.343c0 .531-.133 1.078-.398 1.641a4.012 4.012 0 0 1-1.055 1.39l-1.008-.585a9 9 0 0 0 .399-.711c.119-.24.216-.495.289-.766.073-.271.109-.57.109-.898v-1.414h1.672Zm9.539-2.243v1.5h-8.203l-.063-1.133 4.907-7.687h1.507l-1.632 2.797-2.821 4.523h6.305Zm-1.422-7.32V122h-1.883v-11.375h1.883Zm10.305 9.875v1.5h-7.625v-1.289l3.703-4.039c.406-.458.726-.854.961-1.188.234-.333.398-.632.492-.898.099-.271.148-.534.148-.789 0-.359-.067-.675-.203-.945a1.486 1.486 0 0 0-.578-.649c-.255-.161-.565-.242-.93-.242-.421 0-.776.091-1.062.273a1.71 1.71 0 0 0-.648.758 2.593 2.593 0 0 0-.219 1.094H868.5c0-.662.151-1.266.453-1.813.302-.552.74-.989 1.313-1.312.573-.328 1.263-.492 2.07-.492.76 0 1.406.127 1.937.383.532.255.935.617 1.211 1.086.282.468.422 1.023.422 1.664 0 .354-.057.705-.172 1.054a4.942 4.942 0 0 1-.492 1.047c-.208.344-.456.69-.742 1.039-.286.344-.602.693-.945 1.047l-2.461 2.711h5.25Zm3.679-5.039h1.125c.438 0 .8-.076 1.086-.227.292-.151.508-.359.649-.625.14-.265.211-.57.211-.914 0-.359-.065-.666-.196-.922a1.313 1.313 0 0 0-.578-.601c-.255-.141-.58-.211-.976-.211-.334 0-.636.068-.906.203a1.53 1.53 0 0 0-.868 1.422h-1.89c0-.604.159-1.141.476-1.609.318-.469.75-.836 1.297-1.102.552-.271 1.172-.406 1.859-.406.735 0 1.376.122 1.922.367.552.24.982.599 1.289 1.078.308.479.461 1.073.461 1.781 0 .323-.075.651-.226.985a2.86 2.86 0 0 1-.672.914 3.517 3.517 0 0 1-1.109.664c-.443.166-.956.25-1.539.25h-1.415v-1.047Zm0 1.469v-1.032h1.415c.666 0 1.234.079 1.703.235.474.156.859.372 1.156.648.297.271.513.581.648.93.141.349.211.719.211 1.109 0 .532-.096 1.006-.289 1.422a2.871 2.871 0 0 1-.805 1.047 3.572 3.572 0 0 1-1.226.649 5.058 5.058 0 0 1-1.516.218c-.489 0-.958-.067-1.406-.203a3.837 3.837 0 0 1-1.203-.601 2.997 2.997 0 0 1-.844-1.008c-.203-.406-.305-.875-.305-1.406h1.883c0 .338.078.638.235.898.161.255.385.456.672.602.291.145.625.218 1 .218.395 0 .737-.07 1.023-.211.286-.14.505-.349.656-.625.157-.276.235-.609.235-1 0-.442-.086-.802-.258-1.078a1.516 1.516 0 0 0-.735-.609c-.317-.136-.692-.203-1.125-.203h-1.125Z" fill="#000" fill-opacity=".87"/><path d="m535.791 148.441 2.244-6.972h1.623L536.6 150h-1.096l.287-1.559Zm-2.074-6.972 2.226 6.972.305 1.559h-1.102l-3.046-8.531h1.617Zm10.06 7.26v-3.024c0-.226-.041-.422-.123-.586a.863.863 0 0 0-.375-.381c-.164-.09-.371-.134-.621-.134-.23 0-.429.039-.597.117a.966.966 0 0 0-.393.316.762.762 0 0 0-.141.451h-1.406c0-.25.061-.492.182-.726.121-.235.297-.444.527-.627.231-.184.506-.328.826-.434.321-.105.68-.158 1.078-.158.477 0 .899.08 1.266.24.371.16.662.403.873.727.215.32.322.722.322 1.207v2.818c0 .289.02.549.059.779.043.227.103.424.182.592V150h-1.448a2.519 2.519 0 0 1-.158-.58 4.759 4.759 0 0 1-.053-.691Zm.205-2.584.012.873h-1.014c-.261 0-.492.025-.691.076a1.42 1.42 0 0 0-.498.211.913.913 0 0 0-.398.791.94.94 0 0 0 .117.463.82.82 0 0 0 .34.322c.152.078.336.117.55.117.289 0 .541-.059.756-.176a1.55 1.55 0 0 0 .516-.439c.125-.176.191-.342.199-.498l.457.627c-.047.16-.127.332-.24.515-.113.184-.262.36-.445.528a2.21 2.21 0 0 1-1.518.562c-.414 0-.783-.082-1.107-.246a1.955 1.955 0 0 1-.762-.674 1.743 1.743 0 0 1-.276-.967c0-.335.063-.632.188-.89.129-.262.316-.481.562-.656.25-.176.555-.309.915-.399.359-.094.769-.14 1.23-.14h1.107Zm4.202-5.145v9h-1.418v-9h1.418Zm1.277 5.9v-.134c0-.457.066-.881.199-1.272.133-.394.324-.736.574-1.025.254-.293.563-.52.926-.68a3.013 3.013 0 0 1 1.242-.246c.465 0 .879.082 1.243.246.367.16.677.387.931.68.254.289.447.631.58 1.025.133.391.199.815.199 1.272v.134c0 .457-.066.881-.199 1.272-.133.39-.326.732-.58 1.025a2.683 2.683 0 0 1-.926.68c-.363.16-.775.24-1.236.24-.465 0-.881-.08-1.248-.24a2.693 2.693 0 0 1-.926-.68 3.048 3.048 0 0 1-.58-1.025 3.926 3.926 0 0 1-.199-1.272Zm1.412-.134v.134c0 .286.029.555.088.809s.15.477.275.668c.125.191.285.342.481.451.195.11.428.164.697.164.262 0 .488-.054.68-.164.195-.109.355-.26.48-.451a2.06 2.06 0 0 0 .276-.668c.062-.254.093-.523.093-.809v-.134c0-.282-.031-.547-.093-.797a2.052 2.052 0 0 0-.282-.674 1.345 1.345 0 0 0-.48-.457 1.327 1.327 0 0 0-.686-.17c-.265 0-.496.057-.691.17-.191.109-.35.262-.475.457s-.216.42-.275.674c-.059.25-.088.515-.088.797Zm7.084-1.899V150h-1.412v-6.34h1.348l.064 1.207Zm1.939-1.248-.011 1.313a2.717 2.717 0 0 0-.281-.036 4.12 4.12 0 0 0-.293-.011c-.243 0-.456.035-.639.105a1.207 1.207 0 0 0-.463.293 1.29 1.29 0 0 0-.281.457c-.067.18-.106.381-.117.604l-.323.023c0-.398.039-.767.117-1.107a3.06 3.06 0 0 1 .352-.897c.16-.258.359-.459.598-.603.242-.145.521-.217.838-.217a1.82 1.82 0 0 1 .503.076Zm6.715 2.174v1.125h-3.099v-1.125h3.099Zm9.703-.773v1.394c0 .668-.066 1.238-.199 1.711-.129.469-.316.85-.562 1.143a2.207 2.207 0 0 1-.885.644c-.34.137-.721.205-1.143.205a3.27 3.27 0 0 1-.937-.129 2.292 2.292 0 0 1-.774-.404 2.428 2.428 0 0 1-.591-.709 3.951 3.951 0 0 1-.375-1.049 6.872 6.872 0 0 1-.129-1.412v-1.394c0-.672.066-1.239.199-1.7.133-.465.322-.841.568-1.131.246-.293.539-.505.879-.638a3.163 3.163 0 0 1 1.149-.199c.34 0 .652.043.937.128a2.197 2.197 0 0 1 1.36 1.096c.164.285.289.631.375 1.037.085.403.128.871.128 1.407Zm-1.412 1.593v-1.804c0-.34-.019-.639-.058-.897a2.658 2.658 0 0 0-.176-.662 1.312 1.312 0 0 0-.281-.445.998.998 0 0 0-.387-.252 1.361 1.361 0 0 0-.486-.082c-.219 0-.414.043-.586.129a1.049 1.049 0 0 0-.434.398 2.174 2.174 0 0 0-.269.727 5.658 5.658 0 0 0-.088 1.084v1.804c0 .344.019.647.058.908.039.262.098.487.176.674.078.184.172.336.281.457.114.118.243.203.387.258.149.055.311.082.486.082.223 0 .42-.043.592-.129.172-.086.317-.222.434-.41a2.22 2.22 0 0 0 .263-.744 5.86 5.86 0 0 0 .088-1.096Zm8.391 2.262V150h-5.719v-.967l2.778-3.029c.304-.344.544-.641.72-.891.176-.25.299-.474.369-.674a1.7 1.7 0 0 0 .112-.591c0-.27-.051-.506-.153-.709a1.118 1.118 0 0 0-.433-.487 1.28 1.28 0 0 0-.697-.181c-.317 0-.582.068-.797.205a1.283 1.283 0 0 0-.487.568 1.952 1.952 0 0 0-.164.82h-1.412c0-.496.113-.949.34-1.359a2.49 2.49 0 0 1 .984-.984c.43-.246.948-.369 1.553-.369.57 0 1.055.095 1.453.287.399.191.701.463.908.814.211.352.317.768.317 1.248 0 .266-.043.529-.129.791a3.731 3.731 0 0 1-.369.785 6.705 6.705 0 0 1-.557.78c-.215.257-.451.519-.709.785l-1.846 2.033h3.938Z" fill="#000" fill-opacity=".38"/><path d="M537.992 175h-1.89v-9.133l-2.79.953v-1.601l4.438-1.633h.242V175Zm11.602 0h-7.649v-1.305l3.789-4.133c.547-.609.935-1.117 1.164-1.523.235-.411.352-.823.352-1.234 0-.542-.154-.979-.461-1.313-.302-.333-.711-.5-1.227-.5-.614 0-1.091.188-1.429.563-.339.375-.508.888-.508 1.539h-1.898c0-.693.156-1.315.468-1.867.318-.558.769-.99 1.352-1.297.588-.308 1.265-.461 2.031-.461 1.104 0 1.974.278 2.61.836.64.552.96 1.317.96 2.297 0 .567-.161 1.164-.484 1.789-.318.619-.841 1.325-1.57 2.117l-2.782 2.976h5.282V175Zm1.836 2.562-1.024-.609c.302-.474.508-.888.617-1.242.115-.349.175-.706.18-1.07v-1.477h1.711l-.008 1.367a3.76 3.76 0 0 1-.422 1.657 4.058 4.058 0 0 1-1.054 1.374Zm9.547-6.617h1.414v1.524h-1.414V175h-1.899v-2.531h-4.914l-.055-1.157 4.907-7.687h1.961v7.32Zm-4.875 0h2.976v-4.75l-.14.25-2.836 4.5ZM571.297 175h-7.649v-1.305l3.79-4.133c.546-.609.934-1.117 1.164-1.523.234-.411.351-.823.351-1.234 0-.542-.154-.979-.461-1.313-.302-.333-.711-.5-1.226-.5-.615 0-1.092.188-1.43.563-.339.375-.508.888-.508 1.539h-1.898c0-.693.156-1.315.468-1.867.318-.558.769-.99 1.352-1.297.589-.308 1.266-.461 2.031-.461 1.104 0 1.974.278 2.61.836.64.552.961 1.317.961 2.297 0 .567-.162 1.164-.485 1.789-.318.619-.841 1.325-1.57 2.117l-2.781 2.976h5.281V175Zm3.641-6.555h1.156c.583-.005 1.044-.156 1.383-.453.343-.297.515-.726.515-1.289 0-.542-.143-.961-.43-1.258-.281-.302-.713-.453-1.296-.453-.511 0-.93.149-1.258.446-.328.291-.492.674-.492 1.148h-1.899c0-.583.154-1.115.461-1.594a3.136 3.136 0 0 1 1.297-1.117c.557-.271 1.18-.406 1.867-.406 1.136 0 2.026.286 2.672.859.651.568.977 1.36.977 2.375 0 .511-.164.992-.493 1.445a3.04 3.04 0 0 1-1.257 1.016c.625.214 1.099.55 1.421 1.008.329.458.493 1.005.493 1.64 0 1.021-.352 1.834-1.055 2.438-.698.604-1.617.906-2.758.906-1.094 0-1.989-.291-2.687-.875-.698-.583-1.047-1.359-1.047-2.328h1.898c0 .5.167.906.5 1.219.339.312.792.469 1.36.469.588 0 1.052-.157 1.39-.469.339-.313.508-.766.508-1.36 0-.598-.177-1.059-.531-1.382-.354-.323-.88-.485-1.578-.485h-1.117v-1.5Z" fill="#000" fill-opacity=".87"/><rect x="599" y="143" width="8" height="8" rx="4" fill="#0D2535"/><rect x="779" y="320" width="8" height="8" rx="4" fill="#F4BE37"/><path d="m803.791 325.441 2.244-6.972h1.623L804.6 327h-1.096l.287-1.559Zm-2.074-6.972 2.226 6.972.305 1.559h-1.102l-3.046-8.531h1.617Zm10.06 7.26v-3.024c0-.226-.041-.422-.123-.586a.863.863 0 0 0-.375-.381c-.164-.09-.371-.134-.621-.134-.23 0-.429.039-.597.117a.966.966 0 0 0-.393.316.762.762 0 0 0-.141.451h-1.406c0-.25.061-.492.182-.726.121-.235.297-.444.527-.627.231-.184.506-.328.826-.434.321-.105.68-.158 1.078-.158.477 0 .899.08 1.266.24.371.16.662.403.873.727.215.32.322.722.322 1.207v2.818c0 .289.02.549.059.779.043.227.103.424.182.592V327h-1.448a2.519 2.519 0 0 1-.158-.58 4.759 4.759 0 0 1-.053-.691Zm.205-2.584.012.873h-1.014c-.261 0-.492.025-.691.076a1.42 1.42 0 0 0-.498.211.913.913 0 0 0-.398.791.94.94 0 0 0 .117.463.82.82 0 0 0 .34.322c.152.078.336.117.55.117.289 0 .541-.059.756-.176a1.55 1.55 0 0 0 .516-.439c.125-.176.191-.342.199-.498l.457.627c-.047.16-.127.332-.24.515-.113.184-.262.36-.445.528a2.21 2.21 0 0 1-1.518.562c-.414 0-.783-.082-1.107-.246a1.955 1.955 0 0 1-.762-.674 1.743 1.743 0 0 1-.276-.967c0-.335.063-.632.188-.89.129-.262.316-.481.562-.656.25-.176.555-.309.915-.399.359-.094.769-.14 1.23-.14h1.107Zm4.202-5.145v9h-1.418v-9h1.418Zm1.277 5.9v-.134c0-.457.066-.881.199-1.272.133-.394.324-.736.574-1.025.254-.293.563-.52.926-.68a3.013 3.013 0 0 1 1.242-.246c.465 0 .879.082 1.243.246.367.16.677.387.931.68.254.289.447.631.58 1.025.133.391.199.815.199 1.272v.134c0 .457-.066.881-.199 1.272-.133.39-.326.732-.58 1.025a2.683 2.683 0 0 1-.926.68c-.363.16-.775.24-1.236.24-.465 0-.881-.08-1.248-.24a2.693 2.693 0 0 1-.926-.68 3.048 3.048 0 0 1-.58-1.025 3.926 3.926 0 0 1-.199-1.272Zm1.412-.134v.134c0 .286.029.555.088.809s.15.477.275.668c.125.191.285.342.481.451.195.11.428.164.697.164.262 0 .488-.054.68-.164.195-.109.355-.26.48-.451a2.06 2.06 0 0 0 .276-.668c.062-.254.093-.523.093-.809v-.134c0-.282-.031-.547-.093-.797a2.052 2.052 0 0 0-.282-.674 1.345 1.345 0 0 0-.48-.457 1.327 1.327 0 0 0-.686-.17c-.265 0-.496.057-.691.17-.191.109-.35.262-.475.457s-.216.42-.275.674c-.059.25-.088.515-.088.797Zm7.084-1.899V327h-1.412v-6.34h1.348l.064 1.207Zm1.939-1.248-.011 1.313a2.717 2.717 0 0 0-.281-.036 4.12 4.12 0 0 0-.293-.011c-.243 0-.456.035-.639.105a1.207 1.207 0 0 0-.463.293 1.29 1.29 0 0 0-.281.457c-.067.18-.106.381-.117.604l-.323.023c0-.398.039-.767.117-1.107a3.06 3.06 0 0 1 .352-.897c.16-.258.359-.459.598-.603.242-.145.521-.217.838-.217a1.82 1.82 0 0 1 .503.076Zm6.715 2.174v1.125h-3.099v-1.125h3.099Zm9.703-.773v1.394c0 .668-.066 1.238-.199 1.711-.129.469-.316.85-.562 1.143a2.207 2.207 0 0 1-.885.644c-.34.137-.721.205-1.143.205a3.27 3.27 0 0 1-.937-.129 2.292 2.292 0 0 1-.774-.404 2.428 2.428 0 0 1-.591-.709 3.951 3.951 0 0 1-.375-1.049 6.872 6.872 0 0 1-.129-1.412v-1.394c0-.672.066-1.239.199-1.7.133-.465.322-.841.568-1.131.246-.293.539-.505.879-.638a3.163 3.163 0 0 1 1.149-.199c.34 0 .652.043.937.128a2.197 2.197 0 0 1 1.36 1.096c.164.285.289.631.375 1.037.085.403.128.871.128 1.407Zm-1.412 1.593v-1.804c0-.34-.019-.639-.058-.897a2.658 2.658 0 0 0-.176-.662 1.312 1.312 0 0 0-.281-.445.998.998 0 0 0-.387-.252 1.361 1.361 0 0 0-.486-.082c-.219 0-.414.043-.586.129a1.049 1.049 0 0 0-.434.398 2.174 2.174 0 0 0-.269.727 5.658 5.658 0 0 0-.088 1.084v1.804c0 .344.019.647.058.908.039.262.098.487.176.674.078.184.172.336.281.457.114.118.243.203.387.258.149.055.311.082.486.082.223 0 .42-.043.592-.129.172-.086.317-.222.434-.41a2.22 2.22 0 0 0 .263-.744 5.86 5.86 0 0 0 .088-1.096Zm4.33-1.517h.844c.328 0 .6-.057.815-.17.218-.114.38-.27.486-.469a1.45 1.45 0 0 0 .158-.686c0-.269-.049-.5-.146-.691a.991.991 0 0 0-.434-.451c-.191-.106-.435-.158-.732-.158-.25 0-.477.05-.68.152a1.162 1.162 0 0 0-.475.422c-.117.18-.175.394-.175.644h-1.418c0-.453.119-.855.357-1.207.238-.351.563-.627.973-.826a3.125 3.125 0 0 1 1.394-.304c.551 0 1.031.091 1.442.275.414.18.736.449.966.809.231.359.346.804.346 1.335 0 .243-.057.489-.17.739-.113.25-.281.478-.504.685a2.63 2.63 0 0 1-.832.498 3.266 3.266 0 0 1-1.154.188h-1.061v-.785Zm0 1.101v-.773h1.061c.5 0 .926.058 1.277.176.356.117.645.279.868.486.222.203.384.435.486.697.105.262.158.539.158.832 0 .399-.072.754-.217 1.067-.14.308-.342.57-.603.785a2.691 2.691 0 0 1-.92.486 3.787 3.787 0 0 1-1.137.164c-.367 0-.719-.051-1.055-.152a2.893 2.893 0 0 1-.902-.451 2.228 2.228 0 0 1-.633-.756 2.333 2.333 0 0 1-.228-1.055h1.412c0 .254.058.479.176.674.121.191.289.342.504.451.218.11.468.164.75.164.296 0 .552-.053.767-.158.215-.105.379-.262.492-.469.117-.207.176-.457.176-.75 0-.332-.064-.601-.193-.808a1.136 1.136 0 0 0-.551-.457 2.134 2.134 0 0 0-.844-.153h-.844Z" fill="#000" fill-opacity=".38"/><path d="M805.992 353h-1.89v-9.133l-2.79.953v-1.601l4.438-1.633h.242V353Zm11.602 0h-7.649v-1.305l3.789-4.133c.547-.609.935-1.117 1.164-1.523.235-.411.352-.823.352-1.234 0-.542-.154-.979-.461-1.313-.302-.333-.711-.5-1.227-.5-.614 0-1.091.188-1.429.563-.339.375-.508.888-.508 1.539h-1.898c0-.693.156-1.315.468-1.867.318-.558.769-.99 1.352-1.297.588-.308 1.265-.461 2.031-.461 1.104 0 1.974.278 2.61.836.64.552.96 1.317.96 2.297 0 .567-.161 1.164-.484 1.789-.318.619-.841 1.325-1.57 2.117l-2.782 2.976h5.282V353Zm1.836 2.562-1.024-.609c.302-.474.508-.888.617-1.242.115-.349.175-.706.18-1.07v-1.477h1.711l-.008 1.367a3.76 3.76 0 0 1-.422 1.657 4.058 4.058 0 0 1-1.054 1.374Zm9.547-6.617h1.414v1.524h-1.414V353h-1.899v-2.531h-4.914l-.055-1.157 4.907-7.687h1.961v7.32Zm-4.875 0h2.976v-4.75l-.14.25-2.836 4.5ZM839.297 353h-7.649v-1.305l3.79-4.133c.546-.609.934-1.117 1.164-1.523.234-.411.351-.823.351-1.234 0-.542-.154-.979-.461-1.313-.302-.333-.711-.5-1.226-.5-.615 0-1.092.188-1.43.563-.339.375-.508.888-.508 1.539h-1.898c0-.693.156-1.315.468-1.867.318-.558.769-.99 1.352-1.297.589-.308 1.266-.461 2.031-.461 1.104 0 1.974.278 2.61.836.64.552.961 1.317.961 2.297 0 .567-.162 1.164-.485 1.789-.318.619-.841 1.325-1.57 2.117l-2.781 2.976h5.281V353Zm3.641-6.555h1.156c.583-.005 1.044-.156 1.383-.453.343-.297.515-.726.515-1.289 0-.542-.143-.961-.43-1.258-.281-.302-.713-.453-1.296-.453-.511 0-.93.149-1.258.446-.328.291-.492.674-.492 1.148h-1.899c0-.583.154-1.115.461-1.594a3.136 3.136 0 0 1 1.297-1.117c.557-.271 1.18-.406 1.867-.406 1.136 0 2.026.286 2.672.859.651.568.977 1.36.977 2.375 0 .511-.164.992-.493 1.445a3.04 3.04 0 0 1-1.257 1.016c.625.214 1.099.55 1.421 1.008.329.458.493 1.005.493 1.64 0 1.021-.352 1.834-1.055 2.438-.698.604-1.617.906-2.758.906-1.094 0-1.989-.291-2.687-.875-.698-.583-1.047-1.359-1.047-2.328h1.898c0 .5.167.906.5 1.219.339.312.792.469 1.36.469.588 0 1.052-.157 1.39-.469.339-.313.508-.766.508-1.36 0-.598-.177-1.059-.531-1.382-.354-.323-.88-.485-1.578-.485h-1.117v-1.5Z" fill="#000" fill-opacity=".87"/><path d="m415.684 205.439-.831 6.643-6.156.032 2.121 3.505-3.63 10.32-2.086 2.686-9.56.394-5.517 3.595-9.03-1.225-15.63-4.097-2.441-5.552-10.804 2.776-1.275 3.029-6.62-2.261-5.579-.433-4.948-2.912 1.673-3.927-.421-2.861 3.298-.889 5.533 4.476 1.555-4.254 9.642.69 7.814-2.901 5.244.496 3.407 3.31 1.018-2.745-1.548-10.605 3.926-2.082 3.856-7.607 8.121 5.318 6.149-6.764 3.848-1.244 8.488 5.061 5.135-.858 5.037 3.119-.877 2.086 1.088 5.681Z" fill="#E69898" stroke="#fff"/><path d="m266.307 151.06 8.004 1.372 10.129-3.629 6.921 7.626 6.008 4.039-1.24 11.572-2.85.643-1.185 9.474-9.564-7.692-5.607 1.318-7.634-8.02-5.08-6.893-5.08-.281-1.583-6.09 8.761-3.439Z" fill="#C24646" stroke="#fff"/><path d="m334.948 215.151.421 2.862-1.672 3.926 4.947 2.912 5.58.433-.866 6.511-4.819 2.667-8.09-1.981-2.367 6.355-5.205.499-1.895-2.491-6.129 5.318-5.271.745-4.706-3.353-3.75-6.905-5.221 2.472.16-7.166 7.992-8.979-.35-4.094 4.982 1.485 2.999-2.756 9.298.113 2.246-3.521 11.716 4.948Z" fill="#A25B5B" stroke="#fff"/><path d="m338.529 84.848.195 7.31 11.05 4.375-.117 6.616 11.112-3.493 6.148-5.123 12.344 7.376 5.158 5.899 2.558 9.33-3.049 4.851 3.969 6.429 2.706 9.548-.854 6.094 4.479 11.166-4.877 1.809-2.881-1.992-2.741 3.299-7.852 3.345-4.059 4.281-7.946 3.719 1.914 5.053 1.158 7.116 5.58 4.027 6.172 7.158-3.856 7.607-3.927 2.082 1.548 10.605-1.017 2.745-3.408-3.31-5.244-.496-7.813 2.901-9.642-.69-1.556 4.254-5.532-4.476-3.299.889-11.716-4.948-2.246 3.521-9.298-.113 1.388-11.599 5.528-11.307-15.751-3.065-5.158-4.378.616-7.388-2.184-3.833 1.24-11.572-1.836-18.285 6.569-.008 2.768-6.671 2.726-16.473-2.043-6.172 2.136-3.891 9.135-1.002 2.028 4.055 7.423-9.096-2.499-6.99-.503-10.703 8.262 2.503 6.994-2.889Z" fill="#A51919" stroke="#fff"/><path d="m368.792 72.837-6.561 15.482-11.44-10.764-1.524-8.009 16.036-6.456 3.489 9.747Zm-19.435-16.574-2.671 7.412-3.256-2.125-7.872 13.985 2.971 9.315-6.994 2.889-8.262-2.504-4.437-10.616-.331-19.962 1.821-5.361 3.134-6.005 9.631-1.247 3.836-5.572 8.796-5.743-.371 10.434-3.236 6.534 1.31 5.572 5.931 2.994Z" fill="#8B3737"/><path d="m368.792 72.837.461.195.076-.18-.066-.184-.471.169Zm-6.561 15.482-.343.364.523.493.28-.662-.46-.195Zm-11.44-10.764-.491.093.031.16.118.11.342-.363Zm-1.524-8.009-.187-.463-.381.153.077.404.491-.094Zm16.036-6.456.471-.169-.176-.49-.482.195.187.464Zm-15.946-6.827.47.17.15-.417-.395-.2-.225.447Zm-2.671 7.412-.273.419.529.345.214-.595-.47-.17Zm-3.256-2.125.274-.419-.447-.292-.262.466.435.245Zm-7.872 13.985-.435-.245-.107.19.066.207.476-.152Zm2.971 9.315.191.462.426-.176-.14-.438-.477.152Zm-6.994 2.889-.145.478.171.052.165-.068-.191-.462Zm-8.262-2.504-.461.193.091.218.225.068.145-.478Zm-4.437-10.616-.5.008.002.096.037.089.461-.193Zm-.331-19.962-.474-.161-.027.082.001.087.5-.008Zm1.821-5.361-.444-.232-.017.034-.013.037.474.16Zm3.134-6.005-.064-.495-.258.033-.121.231.443.231Zm9.631-1.247.064.496.221-.029.126-.184-.411-.283Zm3.836-5.572-.273-.418-.083.053-.056.082.412.283Zm8.796-5.743.499.018.035-.963-.808.527.274.418Zm-.371 10.434.448.222.048-.097.004-.108-.5-.017Zm-3.236 6.534-.448-.222-.079.161.041.176.486-.115Zm1.31 5.572-.486.114.053.227.208.105.225-.446Zm24.906 19.373-6.562 15.482.921.39 6.562-15.482-.921-.39Zm-5.759 15.313-11.439-10.764-.685.728 11.439 10.764.685-.728Zm-11.29-10.494-1.525-8.008-.982.187 1.524 8.008.983-.187Zm-1.829-7.45 16.036-6.457-.374-.928-16.036 6.457.374.927Zm15.378-6.753 3.49 9.747.941-.337-3.489-9.747-.942.337Zm-15.946-7.165-2.671 7.412.941.34 2.671-7.413-.941-.339Zm-1.927 7.163-3.255-2.125-.547.837 3.256 2.126.546-.838Zm-3.964-1.951-7.872 13.985.871.49 7.872-13.985-.871-.49Zm-7.913 14.382 2.971 9.314.953-.303-2.971-9.315-.953.304Zm3.257 8.7-6.995 2.89.382.924 6.994-2.89-.381-.924Zm-6.659 2.873-8.262-2.503-.29.957 8.262 2.503.29-.957Zm-7.946-2.217-4.436-10.617-.923.386 4.437 10.616.922-.385Zm-4.398-10.433-.331-19.962-1 .017.331 19.962 1-.016Zm-.358-19.793 1.821-5.36-.947-.322-1.821 5.36.947.322Zm1.791-5.29 3.135-6.004-.887-.463-3.135 6.004.887.463Zm2.756-5.74 9.63-1.247-.129-.992-9.63 1.248.129.991Zm9.977-1.46 3.837-5.571-.824-.567-3.836 5.571.823.567Zm3.698-5.436 8.796-5.743-.547-.837-8.795 5.743.546.837Zm8.023-6.18-.37 10.434.999.035.37-10.433-.999-.035Zm-.319 10.23-3.236 6.534.896.444 3.236-6.534-.896-.444Zm-3.274 6.87 1.31 5.572.973-.229-1.31-5.571-.973.229Zm1.571 5.904 5.93 2.994.451-.892-5.93-2.995-.451.893Z" fill="#fff"/><path d="m132.302 302.1.549-10.476-4.464-6.441 15.463-10.819 13.377 2.717 14.679-.093 11.635 2.561 9.072-.788 17.67.5 4.359 5.809 20.122 6.749 3.973-3.201 12.301 6.686 12.671-1.91.585 8.539-10.359 9.692-14.009 3.057-.975 4.842-6.718 7.927-4.21 11.525 4.261 8.008-6.324 6.207-2.362 8.975-8.254 2.737-7.744 10.488-13.872.207-10.421-.258-6.847 4.78-4.175 5.092-5.35-1.115-4.047-4.558-3.099-7.801-10.204-2.113-.912-4.527 4.051-5.154 1.501-3.755-3.77-4.121 3.018-9.162-4.379-8.441 4.722-1.166.44-6.71 1.774-2.09.141-11.209 5.052-3.922-3.056-7.307-6.371-.514-1.871 1.848-6.457.015-2.737-7.178-4.464 2.145-3.965 3.723Z" fill="#942929" stroke="#fff"/><path d="m334.576 297.792-3.611 11.279-4.963-2.959-2.53-9.848 2.206-5.486 7.042-5.673 1.856 12.687Zm-65.287-130.027 7.63 8.02 5.611-1.318 9.564 7.692 2.444 1.459 3.154-.355 5.158 4.378 15.752 3.069-5.525 11.302-1.388 11.6-3.002 2.756-4.983-1.486.351 4.094-7.996 8.979-.16 7.167 5.22-2.472 3.755 6.905-.452 4.421 3.216 5.84-3.789 4.71 2.818 11.849 5.927 1.926-1.252 6.566-9.903 8.472-21.561-4.051-15.919 4.85-1.251 8.936-12.672 1.911-12.3-6.691-3.977 3.201-20.122-6.745-4.359-5.813 5.653-9.041 2.082-30.712-11.283-16.625-8.063-8.133-16.707-6.234-1.103-11.954 14.176-3.598 18.356 4.253-3.466-18.89 10.32 7.209 25.452-13.155 3.283-14.055 9.56-3.501 1.583 6.09 5.08.284 5.088 6.89Z" fill="#BE5F5F" stroke="#fff"/><path d="m168.172 92.948-5.86 12.816-8.262-3.821-6.76.253 2.253-10.024-2.253-10.152 9.166-.788 11.716 11.716ZM197.215 12 185.53 34.337l11.135-2.792 11.977.105-2.85 16.446-9.829 17.681 11.303 1.24.869 2.043 9.736 22.563 7.482 3.017 6.729 21.089 3.115 7.178 13.245 3.439-1.33 11.435-5.567 5.19 4.367 9.072-9.833 9.077-14.625-.16-18.609 4.725-5.1-3.38-7.228 8.024-10.114-1.938-7.681 6.5-5.813-3.392 16.032-18.076 9.786-3.766-.086-.015-17.073-2.921-3.092-7.014 11.424-5.509-5.989-9.665 2.079-11.915 16.246 1.657h.02l1.61-10.695-7.322-11.51-.164-.264-13.276-3.322-2.604-5.139 3.973-8.558-3.595-5.326-5.887 9.116-.64-18.703-5.52-10.086 3.969-20.882 8.491-16.809 8.73 1.657L197.215 12Z" fill="#9C2424" stroke="#fff"/><path d="m162.312 105.763 1.802 13.1-8.262 16.075-19.377 10.457L121 142.732l8.862-18.637-5.708-18.586 14.871-14.632 8.261-8.858 2.258 10.152-2.258 10.024 6.765-.253 8.261 3.821Z" fill="#D52323" stroke="#fff"/><path d="m399.732 353.711-3.938 10.851 1.634 4.238-2.293 6.999-8.363-5.12-5.56-1.47-15.26-6.963 1.532-7.08 12.793 1.263 11.15-1.509 8.305-1.209Zm-68.983-42.177 6.558 10.222-1.536 18.758-4.971-.889-4.46 4.682-4.141-3.719-.437-17.093-2.495-8.207 6.012.722 5.47-4.476Zm34.614-84.243 15.635 4.098-1.185 7.762 2.616 6.656-8.703-2.274-8.889 5.525.604 7.665-1.337 4.371 3.583 7.755 10.25 7.606 5.498 12.348 12.164 11.88 8.566-.09 2.663 3.233-3.069 2.904 9.791 5.244 8.027 4.367 9.373 7.482 1.135 2.663-2.043 5.092-6.067-6.644-9.498-2.351-4.6 9.209 7.899 5.24-1.298 7.326-4.566.831-5.841 11.918-4.553 1.061.043-4.227 2.23-7.458 2.374-2.987-4.269-8.148-3.334-7.147-4.538-1.774-3.228-6.172-7.026-2.612-4.729-5.798-8.09-.939-8.543-6.562-10.001-9.544-7.431-8.531-3.411-14.827-5.439-1.763-8.893-5.018-5.034 2.059-6.316 7.026-4.542 1.107 1.251-6.566-5.926-1.926-2.819-11.848 3.79-4.71-3.217-5.841.453-4.421 4.706 3.353 5.271-.741 6.129-5.318 1.895 2.492 5.205-.499 2.366-6.356 8.09 1.981 4.815-2.667.866-6.511 6.624 2.265 1.271-3.029 10.804-2.776 2.448 5.556Z" fill="#A72020"/><path d="m399.732 353.711.47.171.285-.786-.827.121.072.494Zm-3.938 10.851-.47-.171-.064.176.068.175.466-.18Zm1.634 4.238.475.156.055-.17-.064-.166-.466.18Zm-2.293 6.999-.261.426.539.33.197-.601-.475-.155Zm-8.363-5.12.261-.426-.062-.038-.071-.019-.128.483Zm-5.56-1.47-.207.455.039.018.041.011.127-.484Zm-15.26-6.963-.489-.106-.085.394.367.167.207-.455Zm1.532-7.08.05-.498-.444-.044-.094.436.488.106Zm12.793 1.263-.049.498.058.005.058-.008-.067-.495Zm11.15-1.509.067.496.005-.001-.072-.495Zm-60.678-43.386.421-.27-.303-.473-.434.356.316.387Zm6.558 10.222.499.041.013-.168-.091-.143-.421.27Zm-1.536 18.758-.088.492.541.097.045-.548-.498-.041Zm-4.971-.889.088-.492-.265-.048-.185.195.362.345Zm-4.46 4.682-.334.372.361.325.335-.352-.362-.345Zm-4.141-3.719-.5.013.006.215.16.144.334-.372Zm-.437-17.093.5-.012-.001-.068-.02-.065-.479.145Zm-2.495-8.207.06-.496-.761-.091.223.733.478-.146Zm6.012.722-.059.496.211.025.165-.134-.317-.387Zm40.084-88.719-.457.202.097.22.234.062.126-.484Zm15.635 4.098.494.075.068-.445-.435-.114-.127.484Zm-1.185 7.762-.495-.075-.02.133.049.125.466-.183Zm2.616 6.656-.127.483.952.249-.36-.915-.465.183Zm-8.703-2.274.127-.483-.208-.055-.183.114.264.424Zm-8.889 5.525-.264-.425-.258.161.024.303.498-.039Zm.604 7.665.479.147.027-.091-.007-.095-.499.039Zm-1.337 4.371-.478-.146-.056.182.08.174.454-.21Zm3.583 7.755-.454.21.054.115.102.076.298-.401Zm10.25 7.606.457-.203-.053-.12-.106-.078-.298.401Zm5.498 12.348-.457.204.039.087.068.067.35-.358Zm12.164 11.88-.349.358.148.144.206-.002-.005-.5Zm8.566-.09.386-.318-.152-.184-.239.002.005.5Zm2.663 3.233.344.363.339-.321-.297-.36-.386.318Zm-3.069 2.904-.343-.363-.504.477.611.327.236-.441Zm9.791 5.244.239-.439-.003-.002-.236.441Zm8.027 4.367.312-.391-.034-.027-.039-.021-.239.439Zm9.373 7.482.46-.196-.049-.116-.099-.079-.312.391Zm1.135 2.663.464.186.077-.192-.081-.19-.46.196Zm-2.043 5.092-.369.337.536.588.297-.739-.464-.186Zm-6.067-6.644.369-.337-.102-.112-.147-.036-.12.485Zm-9.498-2.351.121-.485-.389-.097-.179.358.447.224Zm-4.6 9.209-.447-.223-.198.395.368.245.277-.417Zm7.899 5.24.492.087.057-.322-.273-.181-.276.416Zm-1.298 7.326.089.492.342-.062.061-.343-.492-.087Zm-4.566.831-.09-.492-.248.045-.111.227.449.22Zm-5.841 11.918.114.487.231-.053.104-.214-.449-.22Zm-4.553 1.061-.5-.005-.007.636.62-.144-.113-.487Zm.043-4.227-.479-.143-.021.068v.07l.5.005Zm2.23-7.458-.392-.311-.06.075-.027.093.479.143Zm2.374-2.987.391.312.203-.255-.151-.289-.443.232Zm-4.269-8.148-.453.211.005.011.005.01.443-.232Zm-3.334-7.147.453-.211-.084-.182-.187-.072-.182.465Zm-4.538-1.774-.443.232.087.166.174.068.182-.466Zm-3.228-6.172.443-.231-.089-.17-.18-.067-.174.468Zm-7.026-2.612-.387.316.086.105.127.048.174-.469Zm-4.729-5.798.387-.316-.128-.157-.202-.023-.057.496Zm-8.09-.939-.305.396.11.085.137.016.058-.497Zm-8.543-6.562-.345.362.019.018.021.017.305-.397Zm-10.001-9.544-.377.328.016.018.016.015.345-.361Zm-7.431-8.531-.487.112.028.122.082.094.377-.328Zm-3.411-14.827.487-.112-.063-.277-.27-.087-.154.476Zm-5.439-1.763-.246.436.044.024.048.016.154-.476Zm-8.893-5.018.245-.435-.211-.119-.224.092.19.462Zm-5.034 2.059-.189-.463-.106.044-.077.085.372.334Zm-6.316 7.026.118.486.151-.037.103-.115-.372-.334Zm-4.542 1.107-.491-.093-.146.763.755-.184-.118-.486Zm1.251-6.566.492.094.082-.433-.419-.136-.155.475Zm-5.926-1.926-.486.116.065.273.266.087.155-.476Zm-2.819-11.848-.389-.314-.154.191.057.238.486-.115Zm3.79-4.71.389.313.21-.261-.161-.293-.438.241Zm-3.217-5.841-.497-.05-.016.155.075.137.438-.242Zm.453-4.421.29-.407-.7-.499-.088.855.498.051Zm4.706 3.353-.291.407.163.116.197-.028-.069-.495Zm5.271-.741.069.495.147-.02.111-.097-.327-.378Zm6.129-5.318.398-.302-.323-.425-.403.35.328.377Zm1.895 2.492-.398.302.168.222.277-.027-.047-.497Zm5.205-.499.047.497.312-.03.109-.293-.468-.174Zm2.366-6.356.119-.485-.432-.106-.155.417.468.174Zm8.09 1.981-.119.486.19.046.172-.094-.243-.438Zm4.815-2.667.243.438.22-.122.033-.25-.496-.066Zm.866-6.511.162-.473-.577-.197-.081.604.496.066Zm6.624 2.265-.162.473.443.152.18-.431-.461-.194Zm1.271-3.029-.124-.484-.241.061-.096.23.461.193Zm10.804-2.776.457-.202-.171-.388-.41.106.124.484Zm36.347 131.806-3.938 10.85.94.342 3.938-10.851-.94-.341Zm-3.934 11.201 1.633 4.238.933-.36-1.633-4.238-.933.36Zm1.625 3.902-2.293 6.999.95.311 2.293-6.998-.95-.312Zm-1.557 6.728-8.363-5.119-.522.853 8.363 5.119.522-.853Zm-8.496-5.176-5.56-1.47-.255.967 5.559 1.47.256-.967Zm-5.48-1.441-15.26-6.964-.415.91 15.26 6.963.415-.909Zm-14.979-6.403 1.532-7.08-.977-.212-1.533 7.08.978.212Zm.994-6.689 12.793 1.264.098-.996-12.792-1.263-.099.995Zm12.909 1.261 11.15-1.508-.134-.991-11.15 1.508.134.991Zm11.155-1.509 8.305-1.209-.144-.989-8.305 1.208.144.99Zm-61.171-43.611 6.558 10.222.842-.54-6.558-10.222-.842.54Zm6.481 9.912-1.536 18.757.996.082 1.537-18.758-.997-.081Zm-.95 18.306-4.971-.889-.176.984 4.971.889.176-.984Zm-5.421-.742-4.46 4.683.724.689 4.46-4.682-.724-.69Zm-3.764 4.656-4.141-3.72-.668.744 4.141 3.719.668-.743Zm-3.975-3.361-.437-17.092-.999.025.436 17.093 1-.026Zm-.458-17.225-2.495-8.207-.957.291 2.495 8.207.957-.291Zm-3.033-7.565 6.012.721.119-.993-6.012-.721-.119.993Zm6.388.612 5.47-4.476-.633-.774-5.47 4.476.633.774Zm39.641-88.622 15.634 4.097.254-.967-15.635-4.098-.253.968Zm15.267 3.538-1.186 7.763.989.151 1.185-7.763-.988-.151Zm-1.157 8.021 2.616 6.655.931-.365-2.616-6.656-.931.366Zm3.208 5.989-8.702-2.273-.253.967 8.702 2.273.253-.967Zm-9.093-2.214-8.889 5.524.528.85 8.889-5.525-.528-.849Zm-9.123 5.988.604 7.666.997-.079-.604-7.665-.997.078Zm.624 7.48-1.337 4.371.956.292 1.338-4.37-.957-.293Zm-1.313 4.727 3.583 7.755.908-.42-3.583-7.755-.908.42Zm3.739 7.946 10.25 7.607.596-.803-10.25-7.607-.596.803Zm10.091 7.409 5.498 12.348.914-.407-5.498-12.348-.914.407Zm5.605 12.502 12.165 11.88.699-.716-12.165-11.88-.699.716Zm12.519 12.022 8.566-.09-.01-1-8.566.09.01 1Zm8.175-.272 2.663 3.233.772-.636-2.663-3.233-.772.636Zm2.705 2.551-3.068 2.905.687.726 3.069-2.904-.688-.727Zm-2.961 3.709 9.791 5.244.472-.882-9.791-5.244-.472.882Zm9.788 5.242 8.027 4.367.478-.878-8.027-4.367-.478.878Zm7.954 4.319 9.373 7.482.624-.782-9.373-7.482-.624.782Zm9.225 7.287 1.135 2.663.92-.392-1.135-2.663-.92.392Zm1.131 2.281-2.043 5.091.928.373 2.043-5.092-.928-.372Zm-1.21 4.94-6.067-6.643-.738.674 6.067 6.644.738-.675Zm-6.316-6.791-9.497-2.351-.241.97 9.498 2.351.24-.97Zm-10.065-2.09-4.6 9.21.894.446 4.601-9.209-.895-.447Zm-4.43 9.85 7.9 5.24.552-.833-7.899-5.241-.553.834Zm7.684 4.736-1.299 7.326.985.174 1.298-7.326-.984-.174Zm-.896 6.921-4.566.831.179.983 4.566-.83-.179-.984Zm-4.925 1.103-5.841 11.918.898.44 5.841-11.918-.898-.44Zm-5.505 11.651-4.554 1.061.227.974 4.554-1.061-.227-.974Zm-3.94 1.553.043-4.226-1-.011-.043 4.227 1 .01Zm.022-4.088 2.23-7.459-.958-.286-2.23 7.458.958.287Zm2.142-7.291 2.374-2.986-.782-.623-2.375 2.987.783.622Zm2.426-3.53-4.269-8.148-.886.464 4.269 8.149.886-.465Zm-4.259-8.127-3.334-7.147-.906.423 3.334 7.146.906-.422Zm-3.605-7.401-4.538-1.774-.364.931 4.538 1.774.364-.931Zm-4.277-1.54-3.228-6.172-.886.463 3.228 6.172.886-.463Zm-3.497-6.409-7.026-2.613-.348.938 7.026 2.612.348-.937Zm-6.812-2.46-4.73-5.798-.775.633 4.73 5.797.775-.632Zm-5.06-5.978-8.09-.94-.115.994 8.09.939.115-.993Zm-7.843-.84-8.542-6.561-.61.793 8.543 6.561.609-.793Zm-8.502-6.527-10-9.544-.691.723 10.001 9.545.69-.724Zm-9.969-9.511-7.431-8.53-.754.656 7.431 8.531.754-.657Zm-7.32-8.314-3.412-14.827-.974.224 3.411 14.827.975-.224Zm-3.745-15.191-5.439-1.762-.308.951 5.439 1.762.308-.951Zm-5.347-1.722-8.894-5.018-.491.871 8.893 5.018.492-.871Zm-9.329-5.045-5.033 2.058.378.926 5.034-2.059-.379-.925Zm-5.216 2.187-6.316 7.025.744.669 6.316-7.026-.744-.668Zm-6.062 6.874-4.543 1.107.237.972 4.542-1.107-.236-.972Zm-3.933 1.687 1.252-6.566-.983-.187-1.251 6.566.982.187Zm.915-7.135-5.926-1.926-.31.951 5.927 1.926.309-.951Zm-5.595-1.566-2.818-11.849-.973.231 2.819 11.849.972-.231Zm-2.915-11.42 3.789-4.71-.779-.627-3.789 4.71.779.627Zm3.838-5.264-3.217-5.841-.876.483 3.217 5.84.876-.482Zm-3.157-5.549.452-4.421-.995-.102-.452 4.422.995.101Zm-.336-4.065 4.706 3.353.581-.814-4.706-3.353-.581.814Zm5.066 3.441 5.271-.741-.139-.99-5.271.741.139.99Zm5.529-.858 6.13-5.318-.656-.755-6.129 5.318.655.755Zm5.404-5.393 1.895 2.491.796-.605-1.895-2.491-.796.605Zm2.34 2.686 5.205-.499-.095-.995-5.205.499.095.995Zm5.626-.822 2.367-6.355-.937-.349-2.367 6.355.937.349Zm1.779-6.044 8.09 1.981.238-.972-8.09-1.98-.238.971Zm8.452 1.933 4.815-2.667-.485-.875-4.815 2.667.485.875Zm5.068-3.039.866-6.511-.992-.132-.865 6.511.991.132Zm.208-6.104 6.624 2.265.324-.946-6.624-2.265-.324.946Zm7.247 1.986 1.271-3.03-.922-.386-1.271 3.029.922.387Zm.935-2.739 10.803-2.776-.248-.968-10.804 2.776.249.968Zm10.221-3.058 2.449 5.556.915-.404-2.449-5.556-.915.404Z" fill="#fff"/><path d="m296.129 172.04 2.183 3.833-.616 7.388-3.154.351-2.449-1.454 1.186-9.474 2.85-.644Z" fill="#722E2E" stroke="#fff"/><path d="m283.966 118.729-.666 3.54 1.887.616.826 1.59.332 1.447 1.52.542.117.768-1.357 1.033-1.501.094v1.138l1.041 1.813-1.501 1.762 1.517.488 3.088-3.006 1.867-2.761v-1.871l-.651-1.298-1.786-.893.41-2.032-.41-1.785 1.622-3.899 1.607-2.031 4.538-1.642 9.084.519 2.043 6.172-2.725 16.472-2.768 6.671-6.57.008 1.837 18.286-6.008-4.039-6.921-7.627-10.129 3.63-8.005-1.372 2.737-4.831 3.576-4.714 4.986-4.869 2.952-8.157.955-8.507 2.456-1.255Z" fill="#ECACAC"/><path d="m283.966 118.729.492.092.188-1.001-.907.463.227.446Zm-.666 3.54-.492-.093-.081.432.417.136.156-.475Zm1.887.616.443-.231-.094-.181-.194-.064-.155.476Zm.826 1.59.488-.111-.015-.062-.029-.057-.444.23Zm.332 1.447-.488.112.061.267.259.092.168-.471Zm1.52.542.494-.075-.045-.296-.281-.1-.168.471Zm.117.768.303.398.236-.18-.045-.293-.494.075Zm-1.357 1.033.031.499.152-.009.12-.092-.303-.398Zm-1.501.094-.031-.499-.469.029v.47h.5Zm0 1.138h-.5v.134l.067.115.433-.249Zm1.041 1.813.381.324.228-.268-.175-.305-.434.249Zm-1.501 1.762-.38-.324-.487.571.714.229.153-.476Zm1.517.488-.153.476.286.092.216-.21-.349-.358Zm3.088-3.006.348.358.037-.036.029-.042-.414-.28Zm1.867-2.761.414.281.086-.127v-.154h-.5Zm0-1.871h.5v-.118l-.053-.106-.447.224Zm-.651-1.298.447-.225-.074-.148-.149-.075-.224.448Zm-1.786-.893-.49-.099-.075.375.342.171.223-.447Zm.41-2.032.49.099.021-.105-.024-.105-.487.111Zm-.41-1.785-.461-.192-.062.147.036.157.487-.112Zm1.622-3.899-.392-.31-.043.054-.026.064.461.192Zm1.607-2.031-.17-.471-.134.049-.088.111.392.311Zm4.538-1.642.029-.499-.103-.006-.096.035.17.47Zm9.084.519.475-.157-.107-.323-.339-.019-.029.499Zm2.043 6.172.494.081.02-.121-.039-.117-.475.157Zm-2.725 16.472.462.192.022-.053.009-.057-.493-.082Zm-2.768 6.671.001.5h.333l.128-.308-.462-.192Zm-6.57.008v-.5l-.552.001.055.549.497-.05Zm1.837 18.286-.279.415.883.593-.107-1.058-.497.05Zm-6.008-4.039-.371.336.041.045.051.033.279-.414Zm-6.921-7.627.37-.336-.224-.247-.315.113.169.47Zm-10.129 3.63-.085.493.13.022.124-.044-.169-.471Zm-8.005-1.372-.435-.247-.35.619.701.121.084-.493Zm2.737-4.831-.398-.302-.02.027-.017.029.435.246Zm3.576-4.714-.35-.357-.026.026-.023.029.399.302Zm4.986-4.869.35.358.082-.08.039-.108-.471-.17Zm2.952-8.157.47.17.02-.055.007-.059-.497-.056Zm.955-8.507-.228-.445-.239.122-.03.267.497.056Zm1.965-1.348-.667 3.54.983.185.667-3.54-.983-.185Zm-.331 4.108 1.887.616.311-.951-1.887-.616-.311.951Zm1.599.371.826 1.591.888-.461-.827-1.591-.887.461Zm.783 1.472.331 1.447.975-.224-.331-1.446-.975.223Zm.651 1.806 1.52.542.336-.942-1.521-.542-.335.942Zm1.194.146.117.768.988-.15-.117-.768-.988.15Zm.308.295-1.357 1.033.606.796 1.357-1.033-.606-.796Zm-1.085.932-1.501.094.062.998 1.501-.094-.062-.998Zm-1.97.593v1.138h1v-1.138h-1Zm.067 1.387 1.041 1.813.867-.498-1.041-1.813-.867.498Zm1.094 1.24-1.501 1.762.761.649 1.501-1.763-.761-.648Zm-1.274 2.562 1.517.488.306-.952-1.517-.488-.306.952Zm2.019.37 3.087-3.006-.697-.716-3.088 3.006.698.716Zm3.153-3.084 1.867-2.76-.828-.561-1.867 2.761.828.56Zm1.953-3.041v-1.871h-1v1.871h1Zm-.053-2.095-.651-1.299-.894.449.651 1.298.894-.448Zm-.874-1.522-1.786-.892-.447.894 1.786.893.447-.895Zm-1.519-.346.409-2.032-.98-.197-.41 2.031.981.198Zm.406-2.242-.409-1.786-.975.224.41 1.785.974-.223Zm-.435-1.482 1.622-3.899-.923-.384-1.622 3.899.923.384Zm1.553-3.781 1.606-2.031-.784-.621-1.607 2.032.785.62Zm1.384-1.871 4.538-1.642-.34-.94-4.538 1.641.34.941Zm4.34-1.613 9.084.519.057-.998-9.084-.519-.057.998Zm8.638.177 2.043 6.172.949-.314-2.043-6.172-.949.314Zm2.024 5.933-2.725 16.473.986.163 2.726-16.473-.987-.163Zm-2.694 16.363-2.768 6.671.924.383 2.768-6.671-.924-.383Zm-2.307 6.362-6.569.008.001 1 6.57-.008-.002-1Zm-7.066.558 1.836 18.286.995-.1-1.836-18.286-.995.1Zm2.613 17.821-6.009-4.039-.557.829 6.008 4.04.558-.83Zm-5.917-3.96-6.921-7.627-.74.672 6.92 7.627.741-.672Zm-7.46-7.761-10.129 3.63.338.941 10.129-3.63-.338-.941Zm-9.876 3.607-8.004-1.372-.169.986 8.004 1.372.169-.986Zm-7.654-.633 2.737-4.83-.87-.493-2.737 4.83.87.493Zm2.701-4.775 3.575-4.713-.797-.605-3.575 4.714.797.604Zm3.526-4.658 4.987-4.869-.699-.716-4.987 4.87.699.715Zm5.108-5.057 2.951-8.157-.94-.34-2.952 8.157.941.34Zm2.978-8.271.955-8.507-.994-.112-.955 8.508.994.111Zm.686-8.118 2.456-1.255-.455-.891-2.457 1.256.456.89Z" fill="#fff"/><path d="m132.299 301.777 3.966-3.724 4.464-2.144 2.737 7.178 6.456-.016 1.872-1.848 6.37.515 3.057 7.306-5.053 3.922-.14 11.21-1.774 2.089-.441 6.71-4.721 1.166 4.378 8.441-3.017 9.162 3.77 4.122-1.501 3.754-4.051 5.154.912 4.527-4.394 3.536-5.762-1.914-5.642 1.501 1.669-10.702-1.026-8.492-4.893-1.279-2.612-5.275.869-9.182 4.359-5.127.776-5.743 2.281-8.605-.246-6.113-2.183-5.209-.48-4.92Z" fill="#CF2929" stroke="#fff"/></svg>