<svg xmlns="http://www.w3.org/2000/svg" xmlns:xlink="http://www.w3.org/1999/xlink" width="860" height="656.396" xmlns:v="https://vecta.io/nano"><ellipse cx="676.72" cy="642.417" rx="183.28" ry="13.979" fill="#e6e6e6"/><path d="M7.5 2C5.016 2.003 3.003 4.016 3 6.5v94c.003 2.484 2.016 4.497 4.5 4.5h365c2.484-.003 4.497-2.016 4.5-4.5v-94c-.003-2.484-2.016-4.497-4.5-4.5z" fill="#6c63ff"/><g fill="#e6e6e6"><path d="M372.5 361H7.5a7.51 7.51 0 0 1-7.5-7.5V7.5A7.51 7.51 0 0 1 7.5 0h365a7.51 7.51 0 0 1 7.5 7.5v346a7.51 7.51 0 0 1-7.5 7.5zM7.5 3C5.016 3.003 3.003 5.016 3 7.5v346c.003 2.484 2.016 4.497 4.5 4.5h365c2.484-.003 4.497-2.016 4.5-4.5V7.5c-.003-2.484-2.016-4.497-4.5-4.5z"/><use xlink:href="#B"/><use xlink:href="#B" y="69"/><use xlink:href="#B" y="138"/></g><g fill="#3f3d56"><use xlink:href="#C"/><path d="M125.706 209.032a5.95 5.95 0 0 0-5.849 5.946 5.95 5.95 0 0 0 5.849 5.946h26.086c2.126.037 4.1-1.063 5.204-2.886s1.13-4.092.098-5.95-2.98-3.023-5.106-3.056q-.098-.002-.195 0z"/><use xlink:href="#C" y="138"/></g><g fill="#e6e6e6"><use xlink:href="#D"/><use xlink:href="#D" y="69"/><path d="M115.36 298.696a5.95 5.95 0 0 0-5.849 5.946 5.95 5.95 0 0 0 5.849 5.946h149.086c2.126.037 4.1-1.063 5.204-2.886s1.13-4.092.098-5.95-2.98-3.023-5.106-3.056q-.098-.002-.195 0z"/></g><g fill="#fff"><circle cx="54.913" cy="53.5" r="24"/><use xlink:href="#D" x="-17.403" y="-126.142"/><path d="M97.957 60.554a5.95 5.95 0 0 0-5.849 5.946 5.95 5.95 0 0 0 5.849 5.946h245.086a5.95 5.95 0 0 0 6.037-5.849 5.95 5.95 0 0 0-5.842-6.044q-.098-.002-.195 0z"/></g><g fill="#2f2e41"><circle cx="719.484" cy="189.064" r="28.064"/><circle cx="672.71" cy="222.474" r="33.41"/></g><path d="M634.193 510.036l16.387 28.992s21.43-21.43 10.084-27.1l-17.647-5.672zm28.992 77.52l-5.042 21.43 15.126 5.042 5.042-24.58-15.126-1.9z" fill="#ffb8b8"/><g fill="#2f2e41"><path d="M631.645 371.284l-3.248 33.15s-58.5 53.92-38.322 74.088 45.38 36.555 45.38 36.555l11.345-8.193-25.84-35.294 52.3-37.185-11.975 155.674 18.277 5.042 40.967-157.564s12.605-50.42-18.277-75.63zm37.212 237.072s-9.454-11.975-13.866-1.26a149.74 149.74 0 0 0-6.933 22.689s-16.387 24.58 8.824 21.43 17.647-14.496 17.647-14.496a8.44 8.44 0 0 0 3.782-8.193c-.63-5.672-3.782-18.908-3.782-18.908s-3.15-5.672-5.672-1.26z"/><path d="M642.702 526.107s-5.357 5.357 3.466 14.18c0 0 1.26 24.58 12.605 22.06s15.126-33.404 13.866-36.555 1.89-26.47-5.672-25.84-17.017 8.824-17.017 8.824 16.387 15.126.63 25.2c0 0-4.097-1.576-7.878-7.878z"/></g><path d="M689.656 282.513l-47.9 1.26c10.555-14.98 12.542-32.65 8.193-52.31l31.513 6.303c-6.07 16.046-6.173 29.8 8.193 44.748z" fill="#ffb8b8"/><g fill="#6c63ff"><path d="M704.782 363.816l-74.37 20.8-14.273-98.326a18.93 18.93 0 0 1 16.718-17.56l17.093-1.972 30.883 3.15 14.606 4.128a18.86 18.86 0 0 1 13.711 18.999z"/><path d="M633.563 365.707l-11.975 13.866-28.992-30.883 10.778-53.443c2.63-13.04 12.883-23.192 25.947-25.694l8.023-1.536-17.647 71.85z"/></g><path d="M632.97 385.196l-8.86-11.927 7.563-7.563 12.284 3.205c3.53.92 6.322 3.624 7.357 7.123s.162 7.285-2.3 9.98h0c-2.097 2.294-5.1 3.53-8.214 3.373s-5.976-1.695-7.83-4.2z" fill="#ffb8b8"/><path d="M691.547 369.488l11.975 13.866 28.992-30.883-10.778-53.443c-2.63-13.04-12.883-23.192-25.947-25.694l-8.023-1.536 17.647 71.85z" fill="#6c63ff"/><g fill="#ffb8b8"><path d="M692.14 388.978L701 377.05l-7.563-7.563-12.284 3.205c-3.53.92-6.322 3.624-7.357 7.123s-.162 7.285 2.3 9.98h0c2.097 2.294 5.1 3.53 8.214 3.373s5.976-1.695 7.83-4.2z"/><circle cx="668.091" cy="225.177" r="21.88"/></g><path d="M644.646 223.142h37.42l11.36-15.368c-11.175-9.782-25.162-11.535-40.76-8.687z" fill="#2f2e41"/><g fill="#e6e6e6"><path d="M827.483 575.387c-.6 22.46-4.363 44.72-11.175 66.13l-.482 1.483h-41.704l.134-1.483c2.78-31.968 18.813-226.53-.356-259.804 1.676 2.7 56.816 92.098 53.583 193.674z"/><path d="M824.354 641.517L823.27 643h-31.285l.83-1.483c5.17-9.328 20.466-37.218 34.667-66.13 15.26-31.07 29.26-63.32 28.082-75 .363 2.632 10.923 82.88-31.2 141.12zM531.982 608.68a121.43 121.43 0 0 0 5.672 33.566l.245.753h21.168l-.068-.753c-1.4-16.226-9.55-114.984.18-131.872-.85 1.37-28.84 46.748-27.198 98.306z"/><path d="M533.57 642.247l.55.753H550l-.422-.753c-2.623-4.735-10.388-18.89-17.596-33.567-7.746-15.77-14.852-32.14-14.254-38.064-.184 1.336-5.544 42.07 15.842 71.63z"/></g><defs ><path id="B" d="M272.845 144.316h-109.5v2h109.5a20.33 20.33 0 0 1 20.327 20.327 20.33 20.33 0 0 1-20.327 20.327h-165.69a20.33 20.33 0 0 1-20.327-20.327 20.33 20.33 0 0 1 20.327-20.327h6.192v-2h-6.192a22.33 22.33 0 0 0-22.327 22.327 22.33 22.33 0 0 0 22.327 22.327h165.69a22.33 22.33 0 0 0 22.327-22.327 22.33 22.33 0 0 0-22.327-22.327z"/><path id="C" d="M125.706 139.032a5.95 5.95 0 0 0-5.849 5.946 5.95 5.95 0 0 0 5.849 5.946h26.086a5.95 5.95 0 0 0 6.037-5.849 5.95 5.95 0 0 0-5.842-6.044q-.098-.002-.195 0z"/><path id="D" d="M115.36 160.696a5.95 5.95 0 0 0-5.849 5.946 5.95 5.95 0 0 0 5.849 5.946h149.086a5.95 5.95 0 0 0 6.037-5.849 5.95 5.95 0 0 0-5.842-6.044q-.098-.002-.195 0z"/></defs></svg>