<svg xmlns="http://www.w3.org/2000/svg" id="b710ac8c-5016-430d-bef2-d7bc75088669" data-name="Layer 1" viewBox="0 0 928.758 567.737"><path fill="#a0616a" d="M857.744 569.264a10.056 10.056 0 00.801-15.398l14.412-32.7-18.309 3.103-10.879 30.577a10.11 10.11 0 0013.975 14.418z" transform="translate(-135.62 -166.132)"/><path fill="#ccc" d="M885.326 424.376l-5.245-1.049s-7.345 3.148-6.296 12.59-14.688 59.803-14.688 59.803l-14.164 41.968 19.934 4.196 13.115-48.262z" transform="translate(-135.62 -166.132)"/><path fill="#6c63ff" d="M909.12 584.868h-114a8.51 8.51 0 01-8.5-8.5v-11a8.51 8.51 0 018.5-8.5h114a8.51 8.51 0 018.5 8.5v11a8.51 8.51 0 01-8.5 8.5z" transform="translate(-135.62 -166.132)"/><path fill="#a0616a" d="M766.749 539.503l-11.501 4.245-21.849-42.341 16.975-6.266 16.375 44.362z"/><path fill="#2f2e41" d="M883.747 707.65h23.644v14.886h-38.53a14.887 14.887 0 0114.886-14.887z" transform="rotate(-20.261 355.409 1011.551)"/><path fill="#a0616a" d="M788.731 557.111l-12.248-.556-3.684-47.504 18.076.821-2.144 47.239z"/><path fill="#2f2e41" d="M767.552 552.85h23.644v14.887h-38.53a14.887 14.887 0 0114.886-14.887z"/><path fill="#2f2e41" d="M869.589 529.294a64.582 64.582 0 00-15.886 39.06l-4.049 75.3 35.672 62.951 19.935-10.492L881.13 648.9l14.688-45.114 39.869-31.476-3.148-45.114z" transform="translate(-135.62 -166.132)"/><path fill="#2f2e41" d="M789.574 401.982l10.492 4.197-8.393 144.786-24.131-3.147-7.345-110.164 29.377-35.672z"/><path fill="#a0616a" d="M902.869 553.899a10.056 10.056 0 0113.38-7.663l22.68-27.616 5.491 17.74-22.378 23.504a10.11 10.11 0 01-19.173-5.965z" transform="translate(-135.62 -166.132)"/><circle cx="775.619" cy="216.383" r="24.561" fill="#a0616a"/><path fill="#ccc" d="M947.753 429.098s-28.328-26.754-67.148-6.295c0 0-9.967 101.245-16.262 111.737 0 0 54.557-7.344 69.246-3.147 0 0 0-44.066 9.442-60.853s4.722-41.442 4.722-41.442z" transform="translate(-135.62 -166.132)"/><path fill="#ccc" d="M936.736 431.72l11.512-2.127a29.456 29.456 0 0112.62 14.718c4.196 10.492 15.737 61.901 15.737 61.901l-45.115 45.115-9.442-13.64 28.327-37.77-14.688-31.475z" transform="translate(-135.62 -166.132)"/><path fill="#2f2e41" d="M932.249 395.656a2.135 2.135 0 00-1.857-2.82 4.93 4.93 0 00-3.476 1.716 13.833 13.833 0 01-3.071 2.637c-1.188.599-2.8.513-3.477-.629-.636-1.072-.2-2.508.185-3.753a36.907 36.907 0 001.63-9.77c.11-3.7-.411-7.562-2.46-10.448-2.644-3.725-7.371-5.139-11.845-5.036s-8.876 1.483-13.308 2.356c-1.53.302-3.328.456-4.351-.73-1.088-1.26-.688-3.301-.226-5.004 1.201-4.417 2.475-8.984 5.266-12.552a18.898 18.898 0 0112.06-6.79 28.938 28.938 0 0113.463 1.528 36.096 36.096 0 0117.683 12.319 29.236 29.236 0 015.578 21.6 26.667 26.667 0 01-9.886 16.855" transform="translate(-135.62 -166.132)"/><path fill="#e6e6e6" d="M677.62 588.132h-533a9.01 9.01 0 01-9-9v-404a9.01 9.01 0 019-9h533a9.01 9.01 0 019 9v404a9.01 9.01 0 01-9 9zm-533-420a7.008 7.008 0 00-7 7v404a7.008 7.008 0 007 7h533a7.008 7.008 0 007-7v-404a7.008 7.008 0 00-7-7z" transform="translate(-135.62 -166.132)"/><path fill="#3f3d56" d="M625.62 262.132h-429a9.01 9.01 0 01-9-9v-31a9.01 9.01 0 019-9h429a9.01 9.01 0 019 9v31a9.01 9.01 0 01-9 9zm-429-47a7.008 7.008 0 00-7 7v31a7.008 7.008 0 007 7h429a7.008 7.008 0 007-7v-31a7.008 7.008 0 00-7-7z" transform="translate(-135.62 -166.132)"/><path fill="#3f3d56" d="M366.62 345.132h-170a9.01 9.01 0 01-9-9v-31a9.01 9.01 0 019-9h170a9.01 9.01 0 019 9v31a9.01 9.01 0 01-9 9zm-170-47a7.008 7.008 0 00-7 7v31a7.008 7.008 0 007 7h170a7.008 7.008 0 007-7v-31a7.008 7.008 0 00-7-7z" transform="translate(-135.62 -166.132)"/><path fill="#3f3d56" d="M625.62 345.132h-170a9.01 9.01 0 01-9-9v-31a9.01 9.01 0 019-9h170a9.01 9.01 0 019 9v31a9.01 9.01 0 01-9 9zm-170-47a7.008 7.008 0 00-7 7v31a7.008 7.008 0 007 7h170a7.008 7.008 0 007-7v-31a7.008 7.008 0 00-7-7z" transform="translate(-135.62 -166.132)"/><path fill="#e6e6e6" d="M626.12 541.132h-114a8.51 8.51 0 01-8.5-8.5v-11a8.51 8.51 0 018.5-8.5h114a8.51 8.51 0 018.5 8.5v11a8.51 8.51 0 01-8.5 8.5z" transform="translate(-135.62 -166.132)"/><path fill="#e6e6e6" d="M215.62 397.132a8 8 0 118-8 8.01 8.01 0 01-8 8zm0-14a6 6 0 106 6 6.007 6.007 0 00-6-6z" transform="translate(-135.62 -166.132)"/><path fill="#e6e6e6" d="M215.62 423.132a8 8 0 118-8 8.01 8.01 0 01-8 8zm0-14a6 6 0 106 6 6.007 6.007 0 00-6-6z" transform="translate(-135.62 -166.132)"/><path fill="#3f3d56" d="M215.62 449.132a8 8 0 118-8 8.01 8.01 0 01-8 8zm0-14a6 6 0 106 6 6.007 6.007 0 00-6-6z" transform="translate(-135.62 -166.132)"/><path fill="#e6e6e6" d="M254.62 382.632a6.5 6.5 0 000 13h93a6.5 6.5 0 000-13z" transform="translate(-135.62 -166.132)"/><path fill="#e6e6e6" d="M254.62 408.632a6.5 6.5 0 000 13h93a6.5 6.5 0 000-13z" transform="translate(-135.62 -166.132)"/><path fill="#e6e6e6" d="M254.62 434.632a6.5 6.5 0 000 13h93a6.5 6.5 0 000-13z" transform="translate(-135.62 -166.132)"/><path fill="#e6e6e6" d="M475.12 397.132a8 8 0 118-8 8.01 8.01 0 01-8 8zm0-14a6 6 0 106 6 6.007 6.007 0 00-6-6z" transform="translate(-135.62 -166.132)"/><path fill="#3f3d56" d="M475.12 423.132a8 8 0 118-8 8.01 8.01 0 01-8 8zm0-14a6 6 0 106 6 6.007 6.007 0 00-6-6z" transform="translate(-135.62 -166.132)"/><path fill="#e6e6e6" d="M475.12 449.132a8 8 0 118-8 8.01 8.01 0 01-8 8zm0-14a6 6 0 106 6 6.007 6.007 0 00-6-6z" transform="translate(-135.62 -166.132)"/><path fill="#e6e6e6" d="M475.12 475.132a8 8 0 118-8 8.01 8.01 0 01-8 8zm0-14a6 6 0 106 6 6.007 6.007 0 00-6-6z" transform="translate(-135.62 -166.132)"/><path fill="#e6e6e6" d="M513.12 382.632a6.5 6.5 0 100 13h93a6.5 6.5 0 000-13z" transform="translate(-135.62 -166.132)"/><path fill="#e6e6e6" d="M513.12 408.632a6.5 6.5 0 100 13h93a6.5 6.5 0 000-13z" transform="translate(-135.62 -166.132)"/><path fill="#e6e6e6" d="M513.12 434.632a6.5 6.5 0 100 13h93a6.5 6.5 0 000-13z" transform="translate(-135.62 -166.132)"/><path fill="#e6e6e6" d="M513.12 460.632a6.5 6.5 0 100 13h93a6.5 6.5 0 000-13z" transform="translate(-135.62 -166.132)"/><path fill="#e6e6e6" d="M215.748 314.132a6.5 6.5 0 100 13h111a6.5 6.5 0 000-13z" transform="translate(-135.62 -166.132)"/><path fill="#6c63ff" d="M215.748 231.132a6.5 6.5 0 100 13h111a6.5 6.5 0 000-13z" transform="translate(-135.62 -166.132)"/><path fill="#6c63ff" d="M345.004 316.456a.5.5 0 00-.433.75l4.244 7.351a.5.5 0 00.866 0l4.244-7.35a.5.5 0 00-.433-.75z" transform="translate(-135.62 -166.132)"/><path fill="#e6e6e6" d="M474.748 314.132a6.5 6.5 0 000 13h111a6.5 6.5 0 000-13z" transform="translate(-135.62 -166.132)"/><path fill="#6c63ff" d="M604.004 316.456a.5.5 0 00-.433.75l4.244 7.351a.5.5 0 00.866 0l4.244-7.35a.5.5 0 00-.433-.75z" transform="translate(-135.62 -166.132)"/><circle cx="339.5" cy="249" r="4" fill="#6c63ff"/><circle cx="80" cy="275" r="4" fill="#6c63ff"/><path fill="#3f3d56" d="M1063.188 733.868H742.894a1.19 1.19 0 010-2.381h320.294a1.19 1.19 0 010 2.381z" transform="translate(-135.62 -166.132)"/></svg>