<svg xmlns="http://www.w3.org/2000/svg" id="b02f0796-e5a2-4f93-9b0b-1e5532738db1" data-name="Layer 1" viewBox="0 0 948.742 658.326"><ellipse cx="701.125" cy="653.844" fill="#e6e6e6" rx="41.704" ry="4.344"/><ellipse cx="824.499" cy="653.844" fill="#e6e6e6" rx="41.704" ry="4.344"/><ellipse cx="920.071" cy="653.844" fill="#e6e6e6" rx="28.671" ry="2.987"/><path fill="#e6e6e6" d="M1053.905 751.4a79.3 79.3 0 01-3.705 21.921c-.051.165-.105.327-.16.492h-13.824c.015-.148.03-.313.044-.492.922-10.597 6.237-75.092-.118-86.121.556.894 18.834 30.53 17.763 64.2z" transform="translate(-125.629 -120.837)"/><path fill="#e6e6e6" d="M1052.867 773.321c-.115.165-.236.33-.359.492h-10.37l.275-.492c1.713-3.092 6.784-12.337 11.492-21.921 5.058-10.3 9.7-20.99 9.308-24.859.12.873 3.621 27.474-10.346 46.78z" transform="translate(-125.629 -120.837)"/><path fill="#e6e6e6" d="M763.112 536.747h-629.9a7.59 7.59 0 01-7.583-7.582V128.419a7.59 7.59 0 017.582-7.582h629.901a7.59 7.59 0 017.582 7.582v400.746a7.59 7.59 0 01-7.582 7.582zm-629.9-412.91a4.587 4.587 0 00-4.583 4.582v400.746a4.587 4.587 0 004.582 4.582h629.901a4.587 4.587 0 004.582-4.582V128.419a4.587 4.587 0 00-4.582-4.582z" transform="translate(-125.629 -120.837)"/><path fill="#3f3d56" d="M599.955 179.918H266.213a6.189 6.189 0 00-6.183 6.182v285.383a6.189 6.189 0 006.183 6.183h333.742a6.189 6.189 0 006.182-6.183V186.1a6.189 6.189 0 00-6.182-6.182zm3.705 291.565a3.718 3.718 0 01-3.705 3.717H266.213a3.71 3.71 0 01-3.705-3.717V186.1a3.71 3.71 0 013.705-3.716h333.742a3.718 3.718 0 013.705 3.716z" transform="translate(-125.629 -120.837)"/><path fill="#6c63ff" d="M343.249 426.922c0 .44-.012.88-.035 1.308a25.175 25.175 0 01-50.28 0 24.319 24.319 0 01-.035-1.308 25.175 25.175 0 1150.35 0z" transform="translate(-125.629 -120.837)"/><path fill="#6c63ff" d="M574.021 410.135H376.21a4.197 4.197 0 000 8.393H574.02a4.197 4.197 0 000-8.393z" transform="translate(-125.629 -120.837)"/><path fill="#e6e6e6" d="M461.327 435.315H376.21a4.191 4.191 0 000 8.382h85.117a4.191 4.191 0 100-8.382z" transform="translate(-125.629 -120.837)"/><path fill="#6c63ff" d="M679.244 378.996h-333.74a7.057 7.057 0 01-7.048-7.049V225.485a7.057 7.057 0 017.049-7.05h333.74a7.057 7.057 0 017.048 7.05v146.462a7.057 7.057 0 01-7.049 7.05z" transform="translate(-125.629 -120.837)"/><path fill="#fff" d="M413.47 270.355a4.196 4.196 0 000 8.392h197.808a4.196 4.196 0 000-8.392z" transform="translate(-125.629 -120.837)"/><path fill="#fff" d="M413.47 294.668a4.196 4.196 0 000 8.391h197.808a4.196 4.196 0 000-8.391z" transform="translate(-125.629 -120.837)"/><path fill="#fff" d="M413.47 318.685a4.196 4.196 0 000 8.392h85.118a4.196 4.196 0 000-8.392z" transform="translate(-125.629 -120.837)"/><circle cx="26.914" cy="21.336" r="5.213" fill="#6c63ff"/><circle cx="45.159" cy="21.336" r="5.213" fill="#6c63ff"/><circle cx="63.405" cy="21.336" r="5.213" fill="#6c63ff"/><path fill="#ffb8b8" d="M896.876 558.52l-4.273 23.691a12.238 12.238 0 0013.726 14.295 12.238 12.238 0 0010.238-14.896l-5.421-23.297 19.386-62.766-4.467-67.177-27.772 9.603 12.554 51.363z" transform="translate(-125.629 -120.837)"/><circle cx="759.878" cy="225.161" r="23.221" fill="#ffb8b8"/><path fill="#ffb8b8" d="M875.744 412.393l45.385-.71c-9.737-23.564-17.629-45.813-15.6-60.986l-31.913 4.964c3.778 21.552 5.608 37.076 2.128 56.732z" transform="translate(-125.629 -120.837)"/><path fill="#6c63ff" d="M839.577 469.834l60.987 11.347c20.56-37.668 31.903-71.681 12.765-93.608l-36.167-2.128c-23.11 24.712-42.654 48.694-29.374 65.954z" transform="translate(-125.629 -120.837)"/><path fill="#6c63ff" d="M893.886 440.257c13.957 5.34 26.91.699 38.8-14.52l-17.622-33.999-22.454 4.45z" transform="translate(-125.629 -120.837)"/><path fill="#2f2e41" d="M833.904 752.077l24.11-1.24 15.602-163.283 79.425 162.395 24.82-.709-47.513-142.54c-1.875-47.556-3.835-94.988-24.11-115.591l-7.092-14.892-56.732-12.056-7.801 14.892c-18.086 42.232-7.467 162.902-.71 273.024z" transform="translate(-125.629 -120.837)"/><path fill="#2f2e41" d="M820.223 776.41l28.144 2.7a11.401 11.401 0 0012.425-12.555l-2.068-19.442c-7.798 2.03-16.122 1.555-24.82-.71l-10.638 9.22-5.041 1.575a9.853 9.853 0 00-6.877 8.551 9.853 9.853 0 008.875 10.662z" transform="translate(-125.629 -120.837)"/><path fill="#2f2e41" d="M939.361 776.41l28.143 2.7a11.401 11.401 0 0012.426-12.555l-2.068-19.442c-7.799 2.03-16.122 1.555-24.82-.71l-10.638 9.22-5.041 1.575a9.853 9.853 0 00-6.878 8.551 9.853 9.853 0 008.876 10.662z" transform="translate(-125.629 -120.837)"/><path fill="#6c63ff" d="M858.015 425.158c9.934 11.164 23.57 13.004 41.13 4.964v-38.294l-21.983-6.383z" transform="translate(-125.629 -120.837)"/><path fill="#ffb8b8" d="M806.247 531.53l-14.696 19.068a12.238 12.238 0 005.607 19.007 12.238 12.238 0 0015.945-8.513l5.909-23.18 46.094-46.803 26.948-61.696-29.075-4.255-19.856 53.895z" transform="translate(-125.629 -120.837)"/><path fill="#2f2e41" d="M876.628 311.735c10.665-5.363 23.414-6.96 34.75-3.22s20.931 13.114 23.83 24.694c2.19 8.754.608 17.937-.164 26.928s-.527 18.707 4.655 26.095c3.246 4.63 8.098 7.84 12.878 10.863s9.706 6.058 13.236 10.475 5.436 10.595 3.306 15.833c-2.72 6.688-10.555 9.41-17.503 11.372-9.904 2.797-19.94 5.615-30.229 5.821s-21.031-2.488-28.591-9.47c-10.284-9.498-12.753-25.032-10.804-38.894s7.59-26.904 11.146-40.444c1.374-5.232 2.171-11.543-1.634-15.388-3.864-3.905-10.419-3.14-15.23-5.793a11.664 11.664 0 013.28-21.637" transform="translate(-125.629 -120.837)"/></svg>