<svg xmlns="http://www.w3.org/2000/svg" id="a63c3c50-d1e6-43da-a966-9216c85539b1" data-name="Layer 1" viewBox="0 0 1014.533 597.436"><path fill="#605d82" d="M503.734 747.032h-6.016a4.984 4.984 0 01-4.984-4.984v-17.016h11l4.421 16.211a4.583 4.583 0 01-4.421 5.789z" transform="translate(-92.734 -151.032)"/><rect width="710" height="270" x="79.5" y="187.5" fill="#f2f2f2" rx="13.224"/><rect width="962" height="523" x="2.5" y=".5" fill="none" stroke="#3f3d56" stroke-miterlimit="10" rx="13.638"/><path fill="none" stroke="#3f3d56" stroke-miterlimit="10" d="M0 37.039h962"/><path fill="none" stroke="#3f3d56" stroke-miterlimit="10" d="M0 100.5h962"/><circle cx="24.5" cy="22.5" r="10" fill="#f86b75"/><circle cx="55.5" cy="22.5" r="10" fill="#fad375"/><circle cx="86.5" cy="22.5" r="10" fill="#8bcc55"/><circle cx="27.5" cy="18.5" r="10" fill="none" stroke="#3f3d56" stroke-miterlimit="10"/><circle cx="58.5" cy="18.5" r="10" fill="none" stroke="#3f3d56" stroke-miterlimit="10"/><circle cx="89.5" cy="18.5" r="10" fill="none" stroke="#3f3d56" stroke-miterlimit="10"/><circle cx="225" cy="74" r="20" fill="#f2f2f2"/><circle cx="230" cy="69" r="20" fill="none" stroke="#3f3d56" stroke-miterlimit="10"/><rect width="99" height="27" x="505" y="63.5" fill="#6c63ff" rx="5.423"/><rect width="99" height="27" x="646" y="63.5" fill="#6c63ff" rx="5.423"/><rect width="99" height="27" x="512" y="55.5" fill="none" stroke="#3f3d56" stroke-miterlimit="10" rx="4.222"/><rect width="99" height="27" x="653" y="55.5" fill="none" stroke="#3f3d56" stroke-miterlimit="10" rx="4.222"/><rect width="710" height="270" x="115.5" y="165.5" fill="none" stroke="#3f3d56" stroke-miterlimit="10" rx="16.004"/><path fill="none" stroke="#3f3d56" stroke-miterlimit="10" d="M544.636 516.122a68.198 68.198 0 10-78.522-110.185m32.62 31.016v-11.611l40.92 30.69-9.42 6.5" transform="translate(-92.734 -151.032)"/><path fill="#6c63ff" d="M502.374 394.832a68.2 68.2 0 1068.2 68.2 68.232 68.232 0 00-68.2-68.2zm-13.64 98.89v-61.38l40.92 30.69-40.92 30.69z" transform="translate(-92.734 -151.032)"/><path fill="#46455b" d="M475.833 581.736s-12.25 42.606-12.782 61.246-2.663 48.464-1.065 55.92 6.39 22.369 6.39 22.369 10.12-12.25 13.848-5.326c0 0-.533-14.38-3.196-18.64 0 0 1.066-22.368 1.066-30.357s13.314-44.736 14.38-45.269 4.26 10.119 1.597 33.552-4.793 64.453-4.793 68.714 6.39 12.782 10.651 10.119 6.924-25.575 6.924-25.575 3.728-47.932 5.858-53.258 13.314-66.572 4.793-71.365-43.671-2.13-43.671-2.13z" transform="translate(-92.734 -151.032)"/><path fill="#605d82" d="M484.887 720.206c-.533 2.13-2.663 12.249-2.663 15.444s2.13 9.054-6.924 11.184c-8.82 2.077-7.53-3.43-8.936-6.668-.037-.085-.075-.17-.117-.255-1.598-3.196 2.13-19.705 2.662-19.705.313 0 2.832-4.229 4.857-7.717a5.663 5.663 0 018.79-1.33 8.693 8.693 0 012.645 6.277 10.7 10.7 0 01-.314 2.77z" transform="translate(-92.734 -151.032)"/><path d="M484.887 720.206c-.533 2.13-2.663 12.249-2.663 15.444s2.13 9.054-6.924 11.184c-8.82 2.077-7.53-3.43-8.936-6.668 1.528-3.973 5.24-12.51 7.871-19.96 2.322-6.583 8.032-4.437 10.966-2.77a10.7 10.7 0 01-.314 2.77z" opacity=".1" transform="translate(-92.734 -151.032)"/><circle cx="407.598" cy="336.971" r="11.184" fill="#fbbebe"/><path fill="#fbbebe" d="M491.278 490.133l-1.598 17.575 19.173 3.195s-2.13-15.444-.533-18.64-17.042-2.13-17.042-2.13z" transform="translate(-92.734 -151.032)"/><path fill="#605d82" d="M506.19 503.98s-15.977-1.598-17.043 0a9.151 9.151 0 00-1.065 4.26s-6.39 2.663-7.456 1.598-2.13-4.26-5.326-3.195-9.586 20.238-9.586 20.238 1.598-5.859 4.26 16.51 2.13 36.215 2.664 37.812-2.663 11.184 16.51 11.184 33.019-1.065 33.019-4.793-3.195-19.705 0-31.422 7.989-27.694 7.989-27.694l-6.391-20.77s-6.391-1.598-7.989 1.065-5.858 2.13-5.858 2.13-.533-6.39-3.728-6.923z" transform="translate(-92.734 -151.032)"/><path fill="#605d82" d="M475.833 507.708l-13.314-5.858s-25.031-19.173-23.966-36.216c0 0-8.521-7.988-9.054.533s2.13 27.694 8.521 34.085 28.227 26.629 31.422 27.161 6.391-19.705 6.391-19.705z" transform="translate(-92.734 -151.032)"/><path fill="#fbbebe" d="M430.564 467.232s-10.119-27.694-1.065-26.629 6.923 12.782 6.923 12.782v13.847z" transform="translate(-92.734 -151.032)"/><path fill="#605d82" d="M521.634 508.773l13.315-5.858s25.03-19.173 23.966-36.215c0 0 8.521-7.989 9.054.532s-2.13 27.694-8.522 34.085-28.226 26.629-31.422 27.161-6.39-19.705-6.39-19.705z" transform="translate(-92.734 -151.032)"/><path fill="#fbbebe" d="M566.903 468.297s10.12-27.694 1.066-26.628-6.924 12.781-6.924 12.781v13.847z" transform="translate(-92.734 -151.032)"/><path fill="#46455b" d="M508.853 474.688l1.597-1.065s-10.119-5.858-14.38-2.663-5.325 5.859-6.39 6.924-3.728 6.923-2.13 9.053 1.065 2.567 2.13 4.48-1.86 9.603 6.26 11.882 14.51-7.308 15.576-9.438 4.793-16.51-2.663-19.173z" transform="translate(-92.734 -151.032)"/><path fill="#46455b" d="M917.897 625.223c0 58.96 36.988 106.67 82.7 106.67" transform="translate(-92.734 -151.032)"/><path fill="#6c63ff" d="M1000.596 731.893c0-59.623 41.277-107.869 92.288-107.869" transform="translate(-92.734 -151.032)"/><path fill="#6c63ff" d="M947.86 630.568c0 56.006 23.587 101.325 52.736 101.325" transform="translate(-92.734 -151.032)"/><path fill="#46455b" d="M1000.596 731.893c0-76.184 47.71-137.832 106.67-137.832" transform="translate(-92.734 -151.032)"/><path fill="#a8a8a8" d="M983.198 732.645s11.728-.361 15.263-2.878 18.04-5.522 18.918-1.486 17.625 20.077 4.384 20.183-30.766-2.062-34.294-4.211-4.27-11.608-4.27-11.608z" transform="translate(-92.734 -151.032)"/><path d="M1022 747.06c-13.242.106-30.767-2.063-34.295-4.212-2.686-1.637-3.757-7.509-4.115-10.218l-.392.015s.743 9.459 4.27 11.608 21.054 4.318 34.295 4.211c3.822-.03 5.142-1.39 5.07-3.404-.531 1.216-1.989 1.976-4.834 2z" opacity=".2" transform="translate(-92.734 -151.032)"/><path fill="none" stroke="#3f3d56" stroke-miterlimit="10" d="M275 596h237"/><path fill="none" stroke="#3f3d56" stroke-miterlimit="10" d="M876.888 596.479h74"/></svg>