<svg xmlns="http://www.w3.org/2000/svg" width="601.798" height="539" data-name="Layer 1"><path fill="#f2f2f2" d="M596.467 443.643c-5.474 33.683-30.138 59.763-56.395 82.555q-5.5 4.774-11.025 9.363c-.026.015-.05.043-.076.059-.178.146-.355.293-.52.439l-2.275 1.884.474.148 1.474.452c-.506-.138-1.005-.27-1.511-.41-.151-.042-.308-.078-.459-.122-17.409-4.702-35.172-9.863-49.404-20.88-14.765-11.442-24.933-30.95-19.841-48.922a32.912 32.912 0 0 1 2.775-6.776c.48-.9 1.01-1.768 1.566-2.626a35.277 35.277 0 0 1 61.435 3.418c-.249-19.804-18.338-34.245-35.304-44.465-16.972-10.214-36.19-21.249-41.525-40.331-2.975-10.617-.473-21.552 5.37-30.791.18-.281.362-.562.55-.837a51.483 51.483 0 0 1 30.737-21.572c23.504-5.332 48.136 4.49 67.414 18.96 31.027 23.283 52.762 62.158 46.54 100.454Z"/><path fill="#fff" d="M546.616 406.435a87.518 87.518 0 0 1 13.168 21.71 75.993 75.993 0 0 1 5.285 21.97c1.428 15.502-1.513 31.17-7.377 45.515a140.132 140.132 0 0 1-17.62 30.568q-5.5 4.774-11.025 9.363c-.026.015-.05.043-.076.059-.178.146-.355.293-.52.439l-2.275 1.884.474.148 1.474.453c-.506-.14-1.005-.272-1.511-.41-.151-.043-.308-.08-.459-.122a77.462 77.462 0 0 0-32.563-63.266 78.126 78.126 0 0 0-33.907-13.313c.48-.9 1.01-1.768 1.566-2.626a81.002 81.002 0 0 1 13.878 3.43 79.369 79.369 0 0 1 39.756 30.071 81.146 81.146 0 0 1 14.083 43.158c.608-.7 1.215-1.414 1.802-2.12 11.205-13.279 20.79-28.128 26.503-44.622a90.58 90.58 0 0 0 4.307-43.682c-2.55-15.999-10.742-30.118-21.572-41.965-11.598-12.678-25.525-23.455-40.1-32.49a215.444 215.444 0 0 0-47.67-22.068 1.549 1.549 0 0 1-1.012-1.881 1.318 1.318 0 0 1 .551-.837 1.147 1.147 0 0 1 .994-.077c2.066.666 4.12 1.346 6.163 2.068a217.889 217.889 0 0 1 48.237 24.115c14.504 9.636 28.429 20.963 39.446 34.528Z"/><path fill="#ffb8b8" d="M250.693 329.518a6.597 6.597 0 0 1-6.574-6.166l-.979-14.948a6.597 6.597 0 0 1 6.152-7.014l117.112-7.67a14.087 14.087 0 1 1 1.84 28.115l-117.11 7.669q-.222.014-.441.014Z"/><path fill="#2f2e41" d="M273.785 331.446a6.606 6.606 0 0 1-6.59-6.352l-.834-22.326a6.597 6.597 0 0 1 6.346-6.839l96.304-3.6a6.597 6.597 0 0 1 6.84 6.347l.834 22.327a6.597 6.597 0 0 1-6.347 6.838l-96.303 3.6a6.002 6.002 0 0 1-.25.005ZM386.638 537.256h-14.98a6.605 6.605 0 0 1-6.597-6.597V405.807a6.605 6.605 0 0 1 6.597-6.597h14.98a6.605 6.605 0 0 1 6.597 6.597V530.66a6.605 6.605 0 0 1-6.597 6.597Z"/><path fill="#2f2e41" d="m320.146 471.26-12.81-7.764a6.605 6.605 0 0 1-2.222-9.062l64.717-106.77a6.605 6.605 0 0 1 9.061-2.221l12.81 7.765a6.605 6.605 0 0 1 2.223 9.06l-64.717 106.77a6.605 6.605 0 0 1-9.062 2.223Z"/><circle cx="363.886" cy="217.151" r="51.762" fill="#ffb8b8"/><path fill="#2f2e41" d="M335.868 234.825a12.276 12.276 0 0 1-4.483-2.632 8.255 8.255 0 0 1-2.413-6.535 5.553 5.553 0 0 1 2.469-4.274c1.85-1.188 4.326-1.191 6.847-.08l-.095-20.207 2.03-.01.112 23.756-1.564-.984c-1.814-1.14-4.404-1.94-6.234-.767a3.566 3.566 0 0 0-1.544 2.76 6.238 6.238 0 0 0 1.794 4.873c2.241 2.14 5.511 2.81 9.24 3.409l-.321 2.004a33.456 33.456 0 0 1-5.838-1.313ZM317.002 202.087l.266-2.012 10.839 1.431-.266 2.013zM351.213 206.604l.266-2.012 10.839 1.431-.266 2.013zM407.107 439.305h-87.284a8.637 8.637 0 0 1-8.627-8.627l18.273-140.127a8.617 8.617 0 0 1 8.622-8.562h30.976a46.72 46.72 0 0 1 46.667 46.667v102.022a8.637 8.637 0 0 1-8.627 8.627Z"/><path fill="#ffb8b8" d="M385.128 431.835a6.608 6.608 0 0 1-6.057 3.854l-14.98-.13a6.597 6.597 0 0 1-6.539-6.655l1.018-117.357a14.087 14.087 0 1 1 28.173.244l-1.017 117.358a6.56 6.56 0 0 1-.598 2.686Z"/><path fill="#2f2e41" d="M391.746 400.505a6.607 6.607 0 0 1-6.057 3.854l-25.586-.222a6.605 6.605 0 0 1-6.54-6.654l.836-96.368a6.597 6.597 0 0 1 6.654-6.54l25.586.222a6.597 6.597 0 0 1 6.54 6.655l-.836 96.367a6.568 6.568 0 0 1-.597 2.686ZM364.854 186.451c-6.92-5.726-16.17-.31-23.994-1.079-7.487-.735-13.512-7.324-15.154-14.413-1.916-8.272 2.236-16.674 8.491-21.972 6.851-5.804 16.05-7.607 24.815-6.724 10.046 1.012 19.302 5.51 27.634 11.005a123.671 123.671 0 0 1 22.109 18.024c5.958 6.335 11.049 13.924 12.793 22.567 1.584 7.855.654 16.61-3.878 23.376a24.567 24.567 0 0 1-9.464 8.103c-3.958 2.038-8.193 3.521-12.022 5.813-5.79 3.466-11.346 10.528-9.375 17.73a9.94 9.94 0 0 0 2.34 4.21c1.337 1.429 3.663-.537 2.322-1.97-2.355-2.517-2.329-5.933-1.158-9.013a16.515 16.515 0 0 1 7.187-8.211c4.008-2.394 8.454-3.909 12.567-6.098a27.426 27.426 0 0 0 9.9-8.526c4.839-7.002 6.155-16.02 4.87-24.314-1.391-8.976-6.17-17.066-12.097-23.81-6.45-7.337-14.318-13.503-22.341-19.024-8.61-5.924-18.091-10.89-28.51-12.554-9.032-1.442-18.77-.263-26.547 4.792-7.26 4.718-12.745 12.701-13.138 21.513a22.568 22.568 0 0 0 10.914 20.036 19.386 19.386 0 0 0 11.63 2.462c4.318-.359 8.622-1.765 12.981-1.48a9.074 9.074 0 0 1 5.387 2.058c1.512 1.251 3.237-1.26 1.738-2.5ZM303.989 456.238q.028-.172.065-.343a6.552 6.552 0 0 1 2.873-4.152l12.588-8.12a6.605 6.605 0 0 1 9.12 1.968l38.833 60.206a6.598 6.598 0 0 1-1.968 9.12l-12.589 8.12a6.605 6.605 0 0 1-9.12-1.968l-38.833-60.206a6.55 6.55 0 0 1-.97-4.625Z"/><path fill="#3f3d56" d="M256.843 59.45a12.742 12.742 0 0 0-11.652-7.796H12.608A12.615 12.615 0 0 0 0 64.26v294.24a12.615 12.615 0 0 0 12.608 12.607h232.591a12.625 12.625 0 0 0 12.608-12.607V64.26a12.382 12.382 0 0 0-.956-4.811ZM255 358.5a9.82 9.82 0 0 1-9.808 9.809H12.608a9.81 9.81 0 0 1-9.808-9.807V64.263a9.821 9.821 0 0 1 9.808-9.808h232.591a9.857 9.857 0 0 1 9.104 6.17 10.872 10.872 0 0 1 .369 1.107 9.725 9.725 0 0 1 .335 2.531Z" data-name="Path 336"/><path fill="#3f3d56" d="M208.306 121.123H138.25a5.605 5.605 0 1 1 0-11.21h70.057a5.605 5.605 0 1 1 0 11.21Z" data-name="Path 337"/><path fill="#3f3d56" d="M208.306 150.547H138.25a5.605 5.605 0 1 1 0-11.21h70.057a5.605 5.605 0 1 1 0 11.21Z" data-name="Path 338"/><path fill="green" d="M102.303 167.3H51.105a6.312 6.312 0 0 1-6.305-6.305v-60.417a6.312 6.312 0 0 1 6.305-6.306h51.198a6.312 6.312 0 0 1 6.306 6.306v60.417a6.312 6.312 0 0 1-6.306 6.306Z" data-name="Path 339"/><path fill="#ccc" d="M207.82 210.796H49.49a5.605 5.605 0 0 1 0-11.21h158.33a5.605 5.605 0 1 1 0 11.21Z" data-name="Path 340"/><path fill="#ccc" d="M207.82 240.22H49.49a5.605 5.605 0 0 1 0-11.21h158.33a5.605 5.605 0 1 1 0 11.21Z" data-name="Path 341"/><path fill="#ccc" d="M207.82 269.644H49.49a5.605 5.605 0 0 1 0-11.21h158.33a5.605 5.605 0 1 1 0 11.21Z" data-name="Path 342"/><path fill="#ccc" d="M207.82 299.068H49.49a5.605 5.605 0 0 1 0-11.21h158.33a5.605 5.605 0 1 1 0 11.21Z" data-name="Path 343"/><path fill="#ccc" d="M207.82 328.492H49.49a5.605 5.605 0 0 1 0-11.21h158.33a5.605 5.605 0 1 1 0 11.21Z" data-name="Path 344"/><circle cx="258.582" cy="54.09" r="54.09" fill="green" data-name="Ellipse 44"/><path fill="#fff" d="M253.222 74.723a5.61 5.61 0 0 1-3.375-1.121l-.06-.046-12.712-9.724a5.649 5.649 0 1 1 6.874-8.966l8.233 6.314 19.457-25.383a5.647 5.647 0 0 1 7.917-1.046l.001.001-.12.168.124-.168a5.653 5.653 0 0 1 1.044 7.919L257.72 72.514a5.65 5.65 0 0 1-4.493 2.203Z" data-name="Path 395"/><path fill="#3f3d56" d="M600.798 539h-368a1 1 0 0 1 0-2h368a1 1 0 1 1 0 2Z"/></svg>
