<svg xmlns="http://www.w3.org/2000/svg" id="a6ee8617-cc99-4eb9-a93b-e1a7e83c9724" data-name="Layer 1" viewBox="0 0 1088 826.294"><path fill="#f2f2f2" d="M990.987 366.24C943.167 178.202 777.934 42.464 583.985 37.02 481.451 34.14 373.555 68.147 295 187.147c-140.427 212.725 8.63 359.725 112.547 429.576a650.24 650.24 0 01134.403 120.8C612.143 820.82 747.179 924.325 908 762.147c116.564-117.547 114.84-270.653 82.987-395.906z" transform="translate(-56 -36.853)"/><path d="M719.6 507.394l98.4-98.1-98.4-98.1 30-29.9 128.4 128-128.4 128-30-29.9z" opacity=".1"/><path d="M494.6 453.147h40v-40h-40zm200.8-40h-40v40h40zm-120.4 40h40v-40h-40z" opacity=".1" transform="translate(-56 -36.853)"/><path d="M384.4 506.394l-98.5-98.1 98.4-98.1-30-29.9-128.3 128 128.4 128 30-29.9z" opacity=".1"/><path fill="#3f3d56" d="M1144 789.147c0 16.568-243.557 74-544 74s-544-57.432-544-74 243.557 14 544 14 544-30.569 544-14z" transform="translate(-56 -36.853)"/><path d="M1144 789.147c0 16.568-243.557 74-544 74s-544-57.432-544-74 243.557 14 544 14 544-30.569 544-14z" opacity=".1" transform="translate(-56 -36.853)"/><ellipse cx="544" cy="752.294" fill="#3f3d56" rx="544" ry="30"/><path fill="#3f3d56" d="M688.696 644.806c0 64.016 40.16 115.817 89.79 115.817" transform="translate(-56 -36.853)"/><path fill="#6c63ff" d="M778.487 760.623c0-64.735 44.816-117.118 100.201-117.118" transform="translate(-56 -36.853)"/><path fill="#6c63ff" d="M721.229 650.61c0 60.808 25.61 110.013 57.258 110.013" transform="translate(-56 -36.853)"/><path fill="#3f3d56" d="M778.487 760.623c0-82.717 51.8-149.65 115.817-149.65" transform="translate(-56 -36.853)"/><path fill="#a8a8a8" d="M759.597 761.44s12.734-.392 16.572-3.125 19.587-5.996 20.54-1.613 19.136 21.798 4.76 21.914-33.405-2.24-37.235-4.573-4.637-12.603-4.637-12.603z" transform="translate(-56 -36.853)"/><path d="M801.725 777.09c-14.376.116-33.404-2.24-37.234-4.573-2.917-1.776-4.08-8.152-4.469-11.094-.27.012-.425.017-.425.017s.807 10.27 4.637 12.603 22.858 4.689 37.235 4.573c4.15-.034 5.583-1.51 5.504-3.697-.576 1.321-2.159 2.146-5.248 2.171z" opacity=".2" transform="translate(-56 -36.853)"/><path fill="#ffb9b9" d="M921.533 419.706s-30.789-23.376-33.126-14.807 22.591 28.043 22.591 28.043z" transform="translate(-56 -36.853)"/><path d="M921.533 419.706s-30.789-23.376-33.126-14.807 22.591 28.043 22.591 28.043z" opacity=".1" transform="translate(-56 -36.853)"/><path fill="#d0cde1" d="M1023.173 345.695s-36.613 65.435-37.392 74.783-.779 10.127-3.895 9.348-45.96-5.453-49.855-3.895-11.685-9.348-11.685-9.348-14.8 14.801-11.685 17.917 12.464 4.674 14.022 8.569 3.895 7.79 10.906 7.01 54.53 12.465 60.761 10.128 7.79-6.232 10.906-6.232 9.348-3.116 9.348-3.895 21.811-42.066 21.811-42.066 25.707-56.087-13.242-62.319z" transform="translate(-56 -36.853)"/><path d="M1023.173 345.695s-36.613 65.435-37.392 74.783-.779 10.127-3.895 9.348-45.96-5.453-49.855-3.895-11.685-9.348-11.685-9.348-14.8 14.801-11.685 17.917 12.464 4.674 14.022 8.569 3.895 7.79 10.906 7.01 54.53 12.465 60.761 10.128 7.79-6.232 10.906-6.232 9.348-3.116 9.348-3.895 21.811-42.066 21.811-42.066 25.707-56.087-13.242-62.319z" opacity=".1" transform="translate(-56 -36.853)"/><path fill="#2f2e41" d="M970.054 302.557a64.79 64.79 0 00.2 12.42c1.183 8.95 5.302 18.28 1.41 26.633-1.412 3.033-3.805 5.675-5.109 8.744-2.759 6.496-.257 13.701-.632 20.616-.485 8.931-6.165 17.538-14.807 22.432 14.764.459 28.804-6.84 38.093-16.788s14.463-22.284 18.341-34.628a75.281 75.281 0 003.805-17.922 25.835 25.835 0 00-1.208-10.386 39.575 39.575 0 00-5.342-9.123c-2.326-3.27-4.716-6.605-8.148-9.038-4.227-2.997-12.378-6.007-17.985-5.57-6.879.534-8.329 7.836-8.618 12.61z" transform="translate(-56 -36.853)"/><path fill="#ffb9b9" d="M992.792 327s8.569 30.38 1.558 38.949 42.065-3.895 42.065-3.895-24.148-24.149-12.463-39.728z" transform="translate(-56 -36.853)"/><path d="M992.792 327s8.569 30.38 1.558 38.949 42.065-3.895 42.065-3.895-24.148-24.149-12.463-39.728z" opacity=".1" transform="translate(-56 -36.853)"/><path fill="#6c63ff" d="M719.6 488.394l98.4-98.1-98.4-98.1 30-29.9 128.4 128-128.4 128-30-29.9z"/><path fill="#ffb9b9" d="M908.748 695.221v22.591l11.685 14.021 10.127-4.674-3.116-32.717-18.696.779z"/><path fill="#2f2e41" d="M969.422 753.107s-3.116-10.906-8.569-3.116-10.905 24.927-14.021 25.706-24.928 24.928-3.116 24.928 28.822-10.127 28.822-10.127 21.812-8.569 21.812-10.127-3.116-30.38-4.674-30.38-2.337 5.453-6.232 5.453-14.022-2.337-14.022-2.337z" transform="translate(-56 -36.853)"/><path fill="#ffb9b9" d="M960.941 699.116l-.779 21.033 18.695 7.789v-30.38l-17.916 1.558z"/><path fill="#2f2e41" d="M1037.194 757.002s-10.126-10.906-15.58-8.57a53.812 53.812 0 00-7.79 3.896s-3.115 10.127-4.673 18.696-2.337 12.463-3.895 15.58-3.116 14.8 12.464 16.358 20.253-7.01 20.253-7.01l3.895-20.255s-1.558-18.695-4.674-18.695z" transform="translate(-56 -36.853)"/><path fill="#2f2e41" d="M974.875 511.62s-22.59 50.634-19.474 96.595c0 0-7.79 17.916-3.116 45.96s10.905 84.131 10.905 84.131 21.033 2.337 22.591-1.558c0 0 1.558-38.95 3.116-40.507s-.779-37.392-3.116-44.403 21.812-76.34 21.812-76.34l-6.232-86.469z" transform="translate(-56 -36.853)"/><path d="M974.875 511.62s-22.59 50.634-19.474 96.595c0 0-7.79 17.916-3.116 45.96s10.905 84.131 10.905 84.131 21.033 2.337 22.591-1.558c0 0 1.558-38.95 3.116-40.507s-.779-37.392-3.116-44.403 21.812-76.34 21.812-76.34l-6.232-86.469z" opacity=".1" transform="translate(-56 -36.853)"/><path fill="#2f2e41" d="M968.643 508.504l14.801 31.939s7.011 72.446 10.906 81.794c0 0 1.558 26.485 8.569 35.054s12.464 84.13 12.464 84.13 19.474 5.454 21.032 0 6.232-42.844 6.232-42.844 1.558-31.938-7.01-52.97 10.126-96.595 10.126-96.595 19.475-36.613-8.569-66.215z" transform="translate(-56 -36.853)"/><circle cx="953.93" cy="267.556" r="31.939" fill="#ffb9b9"/><path fill="#d0cde1" d="M1039.531 352.706s-33.496 0-38.17 3.895a6.215 6.215 0 01-8.569 0s-11.685.78-14.8 10.127-12.465 21.812-12.465 21.812-14.021 10.127-6.232 36.612 1.558 69.33 1.558 69.33-6.231 9.348 0 13.243 8.57 5.453 7.79 8.569 70.888-25.707 70.888-31.16-1.558-10.126 0-12.463 3.116-6.232 1.558-10.127 1.558-4.674.78-8.57 3.894-32.717 7.01-45.18 2.337-55.309-9.348-56.088z" transform="translate(-56 -36.853)"/><path fill="#ffb9b9" d="M921.533 429.054s-30.789-23.376-33.126-14.808 22.591 28.044 22.591 28.044z" transform="translate(-56 -36.853)"/><path fill="#d0cde1" d="M1023.173 356.601s-36.613 65.435-37.392 74.783-.779 10.127-3.895 9.348-45.96-5.453-49.855-3.895-11.685-9.348-11.685-9.348-14.8 14.801-11.685 17.917 12.464 4.674 14.022 8.569 3.895 7.79 10.906 7.01 54.53 12.465 60.761 10.128 7.79-6.232 10.906-6.232 9.348-3.116 9.348-3.895 21.811-42.066 21.811-42.066 25.707-56.087-13.242-62.319z" transform="translate(-56 -36.853)"/><path fill="#2f2e41" d="M994.114 324.814c-.442-3.163-2.062-6.033-2.893-9.117a18.925 18.925 0 012.154-14.695c4.581-7.4 13.576-10.677 19.848-16.709.13 3.073 2.262 5.699 4.619 7.675s5.06 3.579 7.055 5.92a23.184 23.184 0 014.109 8.323 29.246 29.246 0 011.623 10.917 13.69 13.69 0 01-4.73 9.702c-2.337 1.846-5.602 2.9-6.73 5.656a9.644 9.644 0 00-.376 4.27c.535 8.57 1.035 17.294-.983 25.64s-6.963 16.41-14.712 20.11c6.368.453 12.87.893 19.049-.714s12.087-5.656 14.217-11.674c1.051-2.969 1.15-6.27 2.643-9.044 3.78-7.018 14.214-7.338 19.34-13.442 2.052-2.443 3.044-5.591 3.78-8.695 4.328-18.265 1.287-37.659-5.302-55.235-2.271-6.058-5.099-12.157-9.97-16.415-4.145-3.623-9.438-5.62-14.673-7.325-7.64-2.488-15.51-4.526-23.54-4.789a29.897 29.897 0 00-10.333 1.207 30.722 30.722 0 00-9.092 5.179c-12.58 9.788-21.144 25.431-20.008 41.33.688 9.62 4.764 18.723 10 26.822 1.831 2.833 6.158 8.873 10.18 7.092 3.648-1.616 5.204-8.573 4.725-11.989z" transform="translate(-56 -36.853)"/><path fill="#6c63ff" d="M494.6 434.147h40v-40h-40zm200.8-40h-40v40h40zm-120.4 40h40v-40h-40z" transform="translate(-56 -36.853)"/><ellipse cx="206.206" cy="211.839" fill="#2f2e41" rx="33.657" ry="26.252"/><path fill="#a0616a" d="M267.928 429.43s30.29 2.019 35.676-2.02 28.272 5.385 30.291 10.77-32.31 6.058-37.696 6.058-30.964 8.078-30.964 8.078z" transform="translate(-56 -36.853)"/><path fill="#2f2e41" d="M205.552 742.992s-14.117 35.599-6.751 39.895 84.701 1.228 84.701 1.228 12.89-7.98-1.841-13.503c0 0-12.276-.614-20.255-5.524S244.22 750.97 244.22 750.97s-.613-13.504-5.524-10.435a12.614 12.614 0 00-5.524 8.593z" transform="translate(-56 -36.853)"/><path d="M205.552 742.992s-14.117 35.599-6.751 39.895 84.701 1.228 84.701 1.228 12.89-7.98-1.841-13.503c0 0-12.276-.614-20.255-5.524S244.22 750.97 244.22 750.97s-.613-13.504-5.524-10.435a12.614 12.614 0 00-5.524 8.593z" opacity=".1" transform="translate(-56 -36.853)"/><path fill="#6c63ff" d="M384.4 487.394l-98.5-98.1 98.4-98.1-30-29.9-128.3 128 128.4 128 30-29.9z"/><path fill="#2f2e41" d="M183.785 753.882s-15.482 39.042-7.404 43.754 92.893 1.346 92.893 1.346 14.136-8.75-2.02-14.809c0 0-13.462-.673-22.213-6.058s-18.848-15.482-18.848-15.482-.673-14.81-6.058-11.444a13.834 13.834 0 00-6.058 9.424z" transform="translate(-56 -36.853)"/><path fill="#2f2e41" d="M263.216 506.167l-9.424 84.816s-3.366 40.388-13.463 49.139c0 0 0 12.79-3.366 16.828l-4.712 53.178s6.732 19.521 6.058 22.887 2.693 14.136 2.02 15.482-32.31 0-32.31 0l6.73-108.375 20.868-150.783z" transform="translate(-56 -36.853)"/><path d="M263.216 506.167l-9.424 84.816s-3.366 40.388-13.463 49.139c0 0 0 12.79-3.366 16.828l-4.712 53.178s6.732 19.521 6.058 22.887 2.693 14.136 2.02 15.482-32.31 0-32.31 0l6.73-108.375 20.868-150.783z" opacity=".1" transform="translate(-56 -36.853)"/><path fill="#2f2e41" d="M246.387 503.475s-7.404 69.333-10.77 84.142a191.451 191.451 0 00-4.039 29.618s-.673 21.54-6.731 27.599a18.194 18.194 0 00-5.385 13.462s-6.059 67.987-2.693 76.065 6.731 14.809 3.366 20.194-40.389 5.385-40.389 1.346 0-7.404-2.019-9.424 0-14.809 0-14.809-8.078-59.909-.673-77.41 10.77-65.295 10.77-65.295-5.385-54.524-12.116-63.275 1.346-39.715 1.346-39.715z" transform="translate(-56 -36.853)"/><path fill="#a0616a" d="M227.436 288.165c.782 1.783 2.655 2.775 4.36 3.715 9.883 5.445 18.156 13.339 26.307 21.142a30.882 30.882 0 011.225-20.885c.973-2.253 2.248-4.676 1.553-7.03-.512-1.73-1.986-2.98-3.414-4.084a105.835 105.835 0 00-10.41-7.102c-2.52-1.508-7.702-5.522-10.594-5.085-.152 3.908-.23 7.402-1.942 11.054-.406.867-6.786 8.957-7.085 8.275z" transform="translate(-56 -36.853)"/><circle cx="205.869" cy="232.369" r="27.599" fill="#a0616a"/><path fill="#575a89" d="M263.216 334.517s4.712-23.56-8.751-31.637-28.945-17.502-28.945-17.502-4.712-.673-6.732 9.424c0 0-38.368 7.404-42.407 43.754s2.692 89.527 2.692 89.527-6.058 46.447-13.462 71.353c0 0-6.059 5.385 20.867-2.693s74.045 22.887 74.045 22.887 4.712-4.712 4.712-8.078 5.385-22.886 5.385-22.886 4.712-82.796 6.731-92.22-8.077-60.583-14.135-61.929z" transform="translate(-56 -36.853)"/><path fill="#2f2e41" d="M255.365 272.066a11.51 11.51 0 015.413-1.442 10.3 10.3 0 005.354-1.595c2.607-2.002 2.798-5.87 4.705-8.546 2.762-3.876 8.27-4.342 13.024-4.148 2.908.118 6.04.292 8.489-1.28 2.514-1.615 3.653-4.658 4.5-7.523 1.003-3.388 1.652-7.531-.832-10.044-1.725-1.745-4.448-2.09-6.364-3.622-1.987-1.59-2.804-4.175-3.884-6.478a17.507 17.507 0 00-5.638-7.062c-3.614-2.511-8.231-3.074-12.632-3.027s-8.821.626-13.19.086c-3.579-.443-7.147-1.633-10.715-1.106-4.545.673-8.306 4.102-10.546 8.114s-3.201 8.593-4.133 13.092l-2.535 12.239c-.786 3.795-1.575 7.692-.968 11.52 1.258 7.937 8.277 14.246 8.76 22.267a13.669 13.669 0 018.343-9.921 2.61 2.61 0 011.7-.206c.697.223 1.105.92 1.545 1.504 1.153 1.533 4.775 3.86 6.829 2.772 1.837-.973.465-4.028 2.775-5.594z" transform="translate(-56 -36.853)"/><path fill="#a0616a" d="M185.805 397.792s-4.712 29.618 14.809 26.926c0 0 10.097-1.347 11.443 0s51.159-7.405 57.89-14.81c0 0 8.078-2.692 12.116 1.347s44.428 8.077 32.311-4.039-30.964-14.809-30.964-14.809l-25.58 1.346s-13.462 4.04-21.54 0-30.964-2.692-30.964-2.692z" transform="translate(-56 -36.853)"/><path fill="#575a89" d="M213.403 304.226s-30.29 3.365-30.29 47.12v55.87s16.828-7.405 20.193-6.731 16.829-8.751 16.829-8.751 15.482-36.35 14.136-46.447-.673-39.715-20.868-41.061z" transform="translate(-56 -36.853)"/><ellipse cx="205.869" cy="215.204" fill="#2f2e41" rx="25.916" ry="13.463"/><ellipse cx="181.636" cy="217.56" fill="#2f2e41" rx="9.087" ry="22.55"/></svg>