<svg width="965" height="414" fill="none" xmlns="http://www.w3.org/2000/svg"><path fill="#fff" d="M0 0h965v414H0z"/><path d="M523 36c-6.066 0-11.202 3.776-13 9 1.798 5.224 6.934 9 13 9s11.202-3.776 13-9c-1.798-5.224-6.934-9-13-9Z" stroke="#000" stroke-width="2" stroke-miterlimit="10" stroke-linecap="round" stroke-linejoin="round"/><path d="M523 50a5 5 0 1 0 0-10 5 5 0 0 0 0 10ZM510 32l26 26" stroke="#000" stroke-width="2" stroke-miterlimit="10" stroke-linecap="round" stroke-linejoin="round"/><path stroke="#666" d="M463 330.5H24M463 268.5H24M463 209.5H24M463 149.5H24M463 89.5H24"/><path fill="#007" d="M394 89h69v300h-69z"/><path fill="#15B838" d="M24 330h69v60H24z"/><path fill="#00AF7A" d="M116 269h69v121h-69z"/><path fill="#00A0AC" d="M209 209h69v181h-69z"/><path fill="#008DC1" d="M302 149h69v241h-69z"/><path stroke="#666" d="M946 330.5H507M946 268.5H507M946 209.5H507M946 149.5H507M946 89.5H507"/><path fill="#007D85" d="M877 89h69v300h-69z"/><path fill="#51ABB7" d="M507 330h69v60h-69z"/><path fill="#2AA6B3" d="M599 269h69v121h-69z"/><path fill="#00A0AC" d="M692 209h69v181h-69z"/><path fill="#00939D" d="M785 149h69v241h-69z"/><path d="M40 36c-6.066 0-11.202 3.776-13 9 1.798 5.224 6.934 9 13 9s11.202-3.776 13-9c-1.798-5.224-6.934-9-13-9Z" stroke="#000" stroke-width="2" stroke-miterlimit="10" stroke-linecap="round" stroke-linejoin="round"/><path d="M40 50a5 5 0 1 0 0-10 5 5 0 0 0 0 10Z" stroke="#000" stroke-width="2" stroke-miterlimit="10" stroke-linecap="round" stroke-linejoin="round"/></svg>