<svg xmlns="http://www.w3.org/2000/svg" id="be32c85c-9388-4a2b-a4e5-271574a5b9b2" data-name="Layer 1" viewBox="0 0 888 651.932"><ellipse cx="96.679" cy="631.793" fill="#e6e6e6" rx="96.348" ry="20.007"/><ellipse cx="55.079" cy="143.651" fill="#2f2e41" rx="33.216" ry="31.114"/><path fill="#ffb8b8" d="M307.784 461.514l8.409 11.772s40.363 8.41 25.227 21.023-37-11.773-37-11.773L292.647 467.4z" transform="translate(-156 -124.034)"/><path fill="#e6e6e6" d="M264.056 327.81s10.932 0 13.455 15.136 5.045 65.59 5.045 65.59 35.318 46.25 29.432 52.137-12.613 16.818-16.818 15.136-40.363-51.295-40.363-51.295z" transform="translate(-156 -124.034)"/><path fill="#ffb8b8" d="M230.42 284.923s.841 32.796 10.932 34.478 6.727 12.613 6.727 12.613-32.795 19.341-54.659 0l-4.204-10.09s15.136-10.933 8.409-26.069z" transform="translate(-156 -124.034)"/><path fill="#2f2e41" d="M286.76 486.74s49.614 92.5 31.114 121.091-46.25 87.455-50.454 87.455-27.75-11.773-26.068-19.341 26.909-63.91 33.636-68.955 3.364-18.5 2.523-19.34-28.59-45.41-28.59-45.41.84 70.637-2.524 81.569.841 89.136-3.363 92.5-23.546 9.25-26.91 4.204-13.454-81.568-6.726-99.227l-12.614-121.09z" transform="translate(-156 -124.034)"/><path fill="#2f2e41" d="M241.352 711.263l21.023 38.681s30.272 21.864 9.25 25.228-33.637-5.046-33.637-5.046l-18.5-13.454V717.99z" transform="translate(-156 -124.034)"/><path fill="#2f2e41" d="M269.943 689.4l-10.932 26.067s-4.205 10.932 0 13.455 15.977 17.659 8.41 19.34a24.638 24.638 0 01-4.622.46 46.726 46.726 0 01-33.97-13.824l-6.818-6.817s23.352-53.775 23.028-53.376 24.904 14.694 24.904 14.694z" transform="translate(-156 -124.034)"/><circle cx="53.398" cy="152.48" r="28.591" fill="#ffb8b8"/><path fill="#e6e6e6" d="M193 316.457l8.83 8.83s26.908 10.09 39.522 0c0 0-4.625-9.67-4.625-8.83s36.58 6.307 39.943 21.443-2.523 41.205-2.523 41.205 23.546 111 14.296 113.522-95.864 23.546-95.023 7.568-6.727-81.568-6.727-81.568l-29.432-56.34s4.205-18.5 14.296-24.387S193 316.457 193 316.457z" transform="translate(-156 -124.034)"/><path fill="#ffb8b8" d="M230.42 480.855l10.932 6.727s42.045 28.59 20.182 33.636-34.477-20.182-34.477-20.182l-8.41-10.09z" transform="translate(-156 -124.034)"/><path d="M168.193 357.241l-7.568 7.568s-5.045 70.637 5.045 84.932 56.341 52.977 58.864 50.454 18.5-15.136 15.136-16.818-48.085-48.41-48.085-48.41l3.517-65.112z" opacity=".1" transform="translate(-156 -124.034)"/><path fill="#e6e6e6" d="M164.83 354.719l-7.569 7.568s-5.045 70.636 5.046 84.931 56.34 52.977 58.863 50.455 18.5-15.137 15.137-16.818-48.086-48.411-48.086-48.411l3.518-65.112z" transform="translate(-156 -124.034)"/><path fill="#2f2e41" d="M221.222 235.903s9.719-3.534 22.972 3.976l-7.068 1.767s10.602.883 11.927 15.02h-4.86s3.093 12.37 0 15.903l-1.987-3.755-5.743 11.486-1.325-5.743-2.651.884-1.767-9.277s-4.418 6.626-7.952 7.068v-5.743s-9.719 11.044-12.81 10.602l4.417-6.184-6.185 1.325 2.65-4.418-15.903 4.418 3.534-4.418-11.044 3.534-5.3 2.21s-7.51-17.23 3.091-29.157 26.064-14.578 36.004-9.498z" transform="translate(-156 -124.034)"/><path fill="#e6e6e6" d="M221.885 68.991h643.862v412.358H221.885z"/><path fill="#fff" d="M240.296 120.711h607.039v336.243H240.296z"/><path fill="#6c63ff" d="M221.61 68.626h643.862V95.98H221.61z"/><circle cx="241.937" cy="82.611" r="5.07" fill="#fff"/><circle cx="261.181" cy="82.611" r="5.07" fill="#fff"/><circle cx="280.425" cy="82.611" r="5.07" fill="#fff"/><path fill="#e6e6e6" d="M295.454 155.599h155.981v266.467H295.454z"/><path fill="#6c63ff" d="M478.36 155.599h129.984v73.348H478.36z"/><path fill="#e6e6e6" d="M478.36 249.373h129.984v78.919H478.36z"/><path fill="#e6e6e6" d="M478.36 348.718h129.984v73.348H478.36z"/><path fill="#e6e6e6" d="M636.198 155.599h155.981v116.125H636.198z"/><path fill="#6c63ff" d="M636.198 305.941h155.981v116.125H636.198z"/><path fill="#3f3d56" d="M544.691 188.755l-2.036-.541L587.089 21.06h257.738v2.106H588.708l-44.017 165.589z"/><path fill="#3f3d56" d="M1021.887 168.26A22.113 22.113 0 111044 146.147a22.138 22.138 0 01-22.113 22.113zm0-42.12a20.007 20.007 0 1020.007 20.007 20.03 20.03 0 00-20.007-20.007z" transform="translate(-156 -124.034)"/><circle cx="865.887" cy="22.113" r="8.424" fill="#6c63ff"/><path fill="#3f3d56" d="M672.947 530.706H415.208V528.6h256.12l44.017-165.59 2.036.541-44.434 167.155z"/><path fill="#3f3d56" d="M550.149 675.8a22.113 22.113 0 1122.112-22.113A22.138 22.138 0 01550.15 675.8zm0-42.12a20.007 20.007 0 1020.006 20.007 20.03 20.03 0 00-20.006-20.007z" transform="translate(-156 -124.034)"/><circle cx="394.149" cy="529.653" r="8.424" fill="#6c63ff"/></svg>