<svg xmlns="http://www.w3.org/2000/svg" id="fe81b68b-c9de-476a-9f58-a3e8b1d65bc7" data-name="Layer 1" viewBox="0 0 732.802 507.204"><path fill="#2f2e41" d="M795.805 364.962s26.038-6 40.36 5-18.228 36-18.228 36z" transform="translate(-233.599 -196.398)"/><path fill="#ffb8b8" d="M768.878 508.445a10.056 10.056 0 00-7.54-13.45l-5.262-35.346-13.828 12.395 7.117 31.664a10.11 10.11 0 0019.513 4.737z" transform="translate(-233.599 -196.398)"/><path fill="#ffb8b8" d="M589.784 495.536l-12.233-.812-2.69-47.57 18.054 1.198-3.131 47.184z"/><path fill="#2f2e41" d="M568.543 490.923h23.644v14.887h-38.531a14.887 14.887 0 0114.887-14.887z"/><path fill="#ffb8b8" d="M568.643 478.601l-11.501 4.246-21.849-42.342 16.975-6.266 16.375 44.362z"/><path fill="#2f2e41" d="M783.619 677.014h23.644v14.887h-38.531a14.887 14.887 0 0114.887-14.887z" transform="rotate(-20.261 121.594 1239.967)"/><path fill="#2f2e41" d="M768.8 492.249s-12.389 6.67-8.577 33.354l3.812 101.015 21.06 46.05 18.106-4.766-11.53-37.472 15.248-65.755 2 119.428 17.153 2.859 24.683-198.525-31.448-14.294z" transform="translate(-233.599 -196.398)"/><circle cx="579.482" cy="132.666" r="24.561" fill="#ffb8b8"/><path fill="#ccc" d="M769.72 495.186a13.99 13.99 0 01-4.929-.571l-.35-.15.052-.379c.067-.484 6.61-48.597 2.884-58.844-3.2-8.803-9.784-38.526-11.724-47.426a4.82 4.82 0 012.37-5.263l35.54-19.918a6.485 6.485 0 018.704 2.249l9.033 14.591 14.1-14.1a6.49 6.49 0 018.325-.73l29.725 20.809a6.872 6.872 0 012.45 8.24c-5.671 14.024-18.451 51.324-14.647 94.7l.062.705-.685-.178c-.257-.066-25.915-6.547-52.15.95-15.265 4.361-24.022 5.315-28.76 5.315z" transform="translate(-233.599 -196.398)"/><path fill="#ccc" d="M759.25 383.105a4.355 4.355 0 00-4.814 3.149l-16.131 58.252 3.812 35.26 18.106-2.859-1.906-24.777 13.342-31.448-8.807-34.348a4.355 4.355 0 00-3.603-3.229z" transform="translate(-233.599 -196.398)"/><path fill="#2f2e41" d="M832.073 294.586a17.506 17.506 0 00-16.141-8.588 34.306 34.306 0 00-9.755 2.73l-16.056 6.264c-4.155 1.62-8.705 3.606-10.508 7.685-1.673 3.786-.425 8.158.839 12.1l6.007 18.735a57.031 57.031 0 013.404-12.376c1.745-3.918 4.505-7.53 8.32-9.487 4.171-2.14 9.087-2.095 13.769-1.87 6.63.32 13.84 1.163 18.551 5.84a19.27 19.27 0 014.89 9.549 57.479 57.479 0 011.025 10.81 89.614 89.614 0 006.844-14.672 36.3 36.3 0 002.542-11.876 16.703 16.703 0 00-3.828-11.297c-2.713-3.031-7.133-4.668-11.02-3.468" transform="translate(-233.599 -196.398)"/><path fill="#ffb8b8" d="M845.732 522.445a10.056 10.056 0 017.54-13.45l5.262-35.346 13.828 12.395-7.117 31.664a10.11 10.11 0 01-19.513 4.737z" transform="translate(-233.599 -196.398)"/><path fill="#ccc" d="M862.816 385.526a6.413 6.413 0 015.35 6.006l5.46 109.2h-20.012l-6.67-58.132 8.489-51.785a6.413 6.413 0 017.383-5.289z" transform="translate(-233.599 -196.398)"/><path fill="#e6e6e6" d="M904.157 702.165a246.302 246.302 0 0120.385-77.735q4.6-10.277 10.127-20.102c.947-1.685-1.644-3.2-2.59-1.514a249.707 249.707 0 00-27.786 76.655q-2.086 11.269-3.136 22.696c-.178 1.922 2.823 1.91 3 0z" transform="translate(-233.599 -196.398)"/><circle cx="708.337" cy="393.741" r="19" fill="#e6e6e6"/><path fill="#e6e6e6" d="M906.1 702.67a159.788 159.788 0 0113.225-50.43q2.985-6.668 6.57-13.042a.974.974 0 00-1.68-.982 161.997 161.997 0 00-18.026 49.73q-1.354 7.31-2.035 14.724c-.115 1.247 1.832 1.239 1.947 0z" transform="translate(-233.599 -196.398)"/><circle cx="697.01" cy="433.595" r="12.326" fill="#e6e6e6"/><path fill="#e6e6e6" d="M903.644 701.506a159.788 159.788 0 01-20.59-47.897q-1.748-7.093-2.841-14.324a.974.974 0 00-1.93.26 161.996 161.996 0 0016.374 50.298q3.43 6.596 7.453 12.86c.675 1.054 2.206-.15 1.534-1.196z" transform="translate(-233.599 -196.398)"/><circle cx="644.669" cy="432.73" r="12.326" fill="#e6e6e6"/><path fill="#3f3d56" d="M965.21 703.387H644.916a1.19 1.19 0 010-2.382H965.21a1.19 1.19 0 110 2.382z" transform="translate(-233.599 -196.398)"/><path fill="#3f3d56" d="M555.755 393.271H244.337a10.751 10.751 0 01-10.738-10.738V207.137a10.751 10.751 0 0110.738-10.739h311.418a10.75 10.75 0 0110.738 10.739v175.396a10.75 10.75 0 01-10.738 10.738zM244.337 198.784a8.362 8.362 0 00-8.352 8.353v175.396a8.362 8.362 0 008.352 8.352h311.418a8.362 8.362 0 008.352-8.352V207.137a8.362 8.362 0 00-8.352-8.353z" transform="translate(-233.599 -196.398)"/><path fill="#3f3d56" d="M501.466 480.53h-202.84a10.751 10.751 0 01-10.738-10.739v-36.988a10.751 10.751 0 0110.739-10.739h202.839a10.75 10.75 0 0110.738 10.739v36.988a10.75 10.75 0 01-10.738 10.739zm-202.84-56.08a8.362 8.362 0 00-8.352 8.353v36.988a8.362 8.362 0 008.353 8.352h202.839a8.362 8.362 0 008.352-8.352v-36.988a8.362 8.362 0 00-8.352-8.352z" transform="translate(-233.599 -196.398)"/><path fill="#ccc" d="M321.448 443.541a7.756 7.756 0 100 15.512H453.89a7.756 7.756 0 000-15.512z" transform="translate(-233.599 -196.398)"/><path fill="#6c63ff" d="M475.673 446.315a.597.597 0 00-.517.895l5.064 8.77a.597.597 0 001.033 0l5.064-8.77a.597.597 0 00-.516-.895z" transform="translate(-233.599 -196.398)"/><circle cx="113.401" cy="78.593" r="44.531" fill="#e6e6e6"/><path fill="#6c63ff" d="M518.595 353.625l-52.272-90.538a3.722 3.722 0 00-6.447 0l-31.9 55.252-47.557-82.37a4.773 4.773 0 00-8.267 0l-67.019 116.08a4.773 4.773 0 004.133 7.16h206.106a3.723 3.723 0 003.223-5.584z" transform="translate(-233.599 -196.398)"/><path fill="#3f3d56" d="M22.67 21.477h19.091v19.091H22.67z"/></svg>