<svg xmlns="http://www.w3.org/2000/svg" width="1293" height="537" fill="none"><path fill="#73FF1D" d="M206 216h377v89H206z"/><path fill="#73FF1D" fill-opacity=".66" d="M206 313h377v89H206z"/><path fill="#A0FC67" fill-opacity=".66" d="M206 409h377v90H206z"/><path fill="#5DE30B" d="M664 122h377v89H664z"/><path fill="#73FF1D" d="M664 217h377v90H664z"/><path fill="#A0FC67" d="M664 313h377v89H664z"/><path fill="#000" d="M375.516 250.562 368.455 270h-2.886l8.13-21.328h1.861l-.044 1.89ZM381.434 270l-7.076-19.438-.044-1.89h1.861L384.334 270h-2.9Zm-.367-7.896v2.315h-11.982v-2.315h11.982Zm14.019-11.542L388.025 270h-2.885l8.13-21.328h1.86l-.044 1.89ZM401.004 270l-7.075-19.438-.044-1.89h1.86L403.904 270h-2.9Zm-.366-7.896v2.315h-11.983v-2.315h11.983Zm14.018-11.542L407.596 270h-2.886l8.13-21.328h1.86l-.044 1.89ZM420.574 270l-7.075-19.438-.044-1.89h1.86l8.16 21.328h-2.901Zm-.366-7.896v2.315h-11.982v-2.315h11.982ZM847.078 166.662v1.348c0 1.601-.2 3.037-.6 4.306-.401 1.27-.977 2.349-1.729 3.238a7.505 7.505 0 0 1-2.71 2.036c-1.045.469-2.217.703-3.516.703-1.259 0-2.417-.234-3.471-.703a7.822 7.822 0 0 1-2.725-2.036c-.762-.889-1.352-1.968-1.772-3.238-.42-1.269-.63-2.705-.63-4.306v-1.348c0-1.601.205-3.032.615-4.292.42-1.269 1.011-2.349 1.772-3.237a7.6 7.6 0 0 1 2.71-2.051c1.055-.469 2.212-.703 3.472-.703 1.299 0 2.471.234 3.516.703a7.43 7.43 0 0 1 2.71 2.051c.761.888 1.342 1.968 1.743 3.237.41 1.26.615 2.691.615 4.292Zm-2.798 1.348v-1.377c0-1.27-.132-2.393-.395-3.369-.254-.977-.63-1.797-1.128-2.461a4.873 4.873 0 0 0-1.831-1.509c-.713-.342-1.524-.513-2.432-.513-.879 0-1.675.171-2.388.513a5.06 5.06 0 0 0-1.816 1.509c-.498.664-.884 1.484-1.157 2.461-.274.976-.41 2.099-.41 3.369v1.377c0 1.279.136 2.412.41 3.398.273.977.664 1.802 1.172 2.476a5.183 5.183 0 0 0 1.831 1.509c.713.341 1.509.512 2.387.512.918 0 1.734-.171 2.447-.512a4.775 4.775 0 0 0 1.801-1.509c.499-.674.875-1.499 1.128-2.476.254-.986.381-2.119.381-3.398Zm9.331-3.369V178h-2.71v-15.85h2.637l.073 2.491Zm4.951-2.579-.014 2.52a3.934 3.934 0 0 0-.645-.088 7.025 7.025 0 0 0-.674-.029c-.625 0-1.176.097-1.655.293a3.437 3.437 0 0 0-1.216.82 3.968 3.968 0 0 0-.791 1.26 6.09 6.09 0 0 0-.366 1.582l-.762.439c0-.957.093-1.855.279-2.695.195-.84.493-1.582.893-2.226a4.376 4.376 0 0 1 1.524-1.524c.625-.371 1.367-.557 2.226-.557.196 0 .42.025.674.074.254.039.43.083.527.131Zm1.495 8.189v-.337c0-1.143.166-2.202.498-3.179.332-.986.81-1.84 1.435-2.563a6.392 6.392 0 0 1 2.271-1.699c.888-.411 1.885-.616 2.988-.616 1.113 0 2.114.205 3.003.616.898.4 1.66.966 2.285 1.699.635.723 1.118 1.577 1.45 2.563.332.977.498 2.036.498 3.179v.337c0 1.143-.166 2.202-.498 3.179a7.6 7.6 0 0 1-1.45 2.563 6.642 6.642 0 0 1-2.27 1.699c-.879.401-1.875.601-2.989.601-1.113 0-2.114-.2-3.003-.601a6.796 6.796 0 0 1-2.285-1.699 7.74 7.74 0 0 1-1.435-2.563c-.332-.977-.498-2.036-.498-3.179Zm2.71-.337v.337c0 .791.092 1.538.278 2.241.185.694.464 1.309.835 1.846.381.537.854.962 1.421 1.274.566.303 1.225.454 1.977.454.743 0 1.392-.151 1.949-.454a4.087 4.087 0 0 0 1.406-1.274 5.906 5.906 0 0 0 .835-1.846 8.35 8.35 0 0 0 .293-2.241v-.337c0-.781-.098-1.518-.293-2.212a5.701 5.701 0 0 0-.85-1.86 4.033 4.033 0 0 0-1.406-1.289c-.557-.313-1.211-.469-1.963-.469-.742 0-1.396.156-1.963.469a4.205 4.205 0 0 0-1.406 1.289 5.87 5.87 0 0 0-.835 1.86 8.512 8.512 0 0 0-.278 2.212ZM829.006 261.636h-5.698v-2.3h5.698c1.103 0 1.997-.176 2.681-.527.683-.352 1.181-.84 1.494-1.465.322-.625.483-1.338.483-2.139 0-.732-.161-1.421-.483-2.065-.313-.645-.811-1.162-1.494-1.553-.684-.4-1.578-.601-2.681-.601h-5.039V270h-2.827v-21.328h7.866c1.611 0 2.973.278 4.087.835 1.113.556 1.958 1.328 2.534 2.314.576.977.864 2.095.864 3.355 0 1.367-.288 2.534-.864 3.501-.576.967-1.421 1.704-2.534 2.212-1.114.498-2.476.747-4.087.747ZM842.6 247.5V270h-2.725v-22.5h2.725Zm13.696 19.79v-8.159c0-.625-.127-1.167-.381-1.626a2.49 2.49 0 0 0-1.113-1.084c-.498-.254-1.114-.381-1.846-.381-.684 0-1.284.117-1.802.352-.508.234-.908.542-1.201.922a2.024 2.024 0 0 0-.425 1.231h-2.71c0-.566.147-1.128.44-1.685a4.93 4.93 0 0 1 1.26-1.508c.556-.459 1.22-.821 1.992-1.084.781-.274 1.65-.411 2.607-.411 1.153 0 2.168.196 3.047.586a4.566 4.566 0 0 1 2.08 1.773c.508.781.762 1.763.762 2.944v7.383c0 .527.044 1.089.132 1.685a6.59 6.59 0 0 0 .424 1.538V270h-2.827c-.136-.312-.244-.728-.322-1.245a10.058 10.058 0 0 1-.117-1.465Zm.469-6.899.029 1.904h-2.739c-.772 0-1.46.063-2.066.19-.605.118-1.113.298-1.523.542a2.58 2.58 0 0 0-.938.923c-.215.362-.322.786-.322 1.275 0 .498.112.952.337 1.362.225.41.561.737 1.011.981.459.235 1.02.352 1.684.352.83 0 1.563-.176 2.198-.527.634-.352 1.137-.782 1.508-1.289.381-.508.586-1.001.616-1.48l1.157 1.304c-.069.41-.254.864-.557 1.362a6.52 6.52 0 0 1-1.216 1.436 6.563 6.563 0 0 1-1.787 1.128c-.683.292-1.455.439-2.314.439-1.074 0-2.017-.21-2.827-.63-.801-.42-1.426-.981-1.875-1.684a4.456 4.456 0 0 1-.66-2.388c0-.85.166-1.597.498-2.241a4.326 4.326 0 0 1 1.436-1.626c.625-.44 1.377-.772 2.256-.996.879-.225 1.86-.337 2.944-.337h3.15Zm13.139-6.241v2.08h-8.569v-2.08h8.569Zm-5.669-3.852h2.71v15.776c0 .537.083.943.249 1.216.166.273.381.454.645.542.264.088.547.132.849.132.225 0 .459-.02.704-.059.254-.049.444-.088.571-.117l.015 2.212a6.34 6.34 0 0 1-.85.19 6.408 6.408 0 0 1-1.245.103 4.216 4.216 0 0 1-1.831-.396c-.557-.263-1.001-.703-1.333-1.318-.323-.625-.484-1.465-.484-2.519v-15.762Zm18.194 16.992v-8.159c0-.625-.127-1.167-.381-1.626a2.49 2.49 0 0 0-1.113-1.084c-.498-.254-1.114-.381-1.846-.381-.684 0-1.284.117-1.802.352-.508.234-.908.542-1.201.922a2.024 2.024 0 0 0-.425 1.231h-2.71c0-.566.147-1.128.44-1.685a4.94 4.94 0 0 1 1.259-1.508 6.286 6.286 0 0 1 1.993-1.084c.781-.274 1.65-.411 2.607-.411 1.152 0 2.168.196 3.047.586a4.566 4.566 0 0 1 2.08 1.773c.508.781.762 1.763.762 2.944v7.383c0 .527.044 1.089.132 1.685a6.59 6.59 0 0 0 .424 1.538V270h-2.827c-.137-.312-.244-.728-.322-1.245a10.058 10.058 0 0 1-.117-1.465Zm.468-6.899.03 1.904h-2.739c-.772 0-1.46.063-2.066.19-.605.118-1.113.298-1.523.542a2.573 2.573 0 0 0-.938.923c-.215.362-.322.786-.322 1.275 0 .498.112.952.337 1.362.224.41.561.737 1.011.981.459.235 1.02.352 1.684.352.83 0 1.563-.176 2.197-.527.635-.352 1.138-.782 1.509-1.289.381-.508.586-1.001.615-1.48l1.158 1.304c-.069.41-.254.864-.557 1.362a6.578 6.578 0 0 1-3.003 2.564c-.684.292-1.455.439-2.314.439-1.075 0-2.017-.21-2.828-.63-.8-.42-1.425-.981-1.875-1.684a4.464 4.464 0 0 1-.659-2.388c0-.85.166-1.597.498-2.241a4.318 4.318 0 0 1 1.436-1.626c.625-.44 1.377-.772 2.256-.996.879-.225 1.86-.337 2.944-.337h3.149ZM815.145 356.024h-5.406l-.029-2.27h4.907c.811 0 1.519-.137 2.124-.41.606-.274 1.074-.664 1.406-1.172.342-.518.513-1.133.513-1.846 0-.781-.151-1.416-.454-1.904-.293-.498-.747-.86-1.362-1.084-.606-.234-1.377-.352-2.315-.352h-4.16V366h-2.827v-21.328h6.987c1.094 0 2.071.112 2.93.337.859.215 1.587.556 2.183 1.025a4.373 4.373 0 0 1 1.377 1.758c.312.713.468 1.567.468 2.563 0 .879-.224 1.675-.674 2.388-.449.703-1.074 1.279-1.875 1.729-.791.449-1.718.737-2.783.864l-1.01.688Zm-.132 9.976h-6.387l1.597-2.3h4.79c.898 0 1.66-.156 2.285-.469.635-.312 1.118-.752 1.45-1.318.332-.576.498-1.255.498-2.036 0-.791-.142-1.475-.425-2.051-.283-.576-.727-1.02-1.333-1.333-.605-.312-1.386-.469-2.343-.469h-4.029l.03-2.27h5.507l.601.82c1.025.088 1.894.381 2.607.879a4.77 4.77 0 0 1 1.626 1.875c.381.762.572 1.602.572 2.52 0 1.328-.293 2.451-.879 3.369-.576.908-1.392 1.601-2.447 2.08-1.054.469-2.295.703-3.72.703Zm13.52-13.359V366h-2.71v-15.85h2.637l.073 2.491Zm4.951-2.579-.014 2.52a3.934 3.934 0 0 0-.645-.088 7.025 7.025 0 0 0-.674-.029c-.625 0-1.176.097-1.655.293a3.437 3.437 0 0 0-1.216.82 3.968 3.968 0 0 0-.791 1.26 6.09 6.09 0 0 0-.366 1.582l-.762.439c0-.957.093-1.855.279-2.695.195-.84.493-1.582.893-2.226a4.368 4.368 0 0 1 1.524-1.524c.625-.371 1.367-.557 2.226-.557.196 0 .42.025.674.074.254.039.43.083.527.131Zm1.495 8.189v-.337c0-1.143.166-2.202.498-3.179.332-.986.81-1.84 1.435-2.563a6.392 6.392 0 0 1 2.271-1.699c.888-.411 1.884-.616 2.988-.616 1.113 0 2.114.205 3.003.616.898.4 1.66.966 2.285 1.699.635.723 1.118 1.577 1.45 2.563.332.977.498 2.036.498 3.179v.337c0 1.143-.166 2.202-.498 3.179a7.6 7.6 0 0 1-1.45 2.563 6.636 6.636 0 0 1-2.271 1.699c-.878.401-1.875.601-2.988.601s-2.114-.2-3.003-.601a6.796 6.796 0 0 1-2.285-1.699 7.74 7.74 0 0 1-1.435-2.563c-.332-.977-.498-2.036-.498-3.179Zm2.709-.337v.337c0 .791.093 1.538.279 2.241.185.694.464 1.309.835 1.846.381.537.854.962 1.421 1.274.566.303 1.225.454 1.977.454.742 0 1.392-.151 1.948-.454a4.081 4.081 0 0 0 1.407-1.274 5.906 5.906 0 0 0 .835-1.846 8.35 8.35 0 0 0 .293-2.241v-.337c0-.781-.098-1.518-.293-2.212a5.701 5.701 0 0 0-.85-1.86 4.033 4.033 0 0 0-1.406-1.289c-.557-.313-1.211-.469-1.963-.469-.742 0-1.397.156-1.963.469a4.205 4.205 0 0 0-1.406 1.289 5.87 5.87 0 0 0-.835 1.86 8.511 8.511 0 0 0-.279 2.212Zm17.828-4.38V366h-2.71v-15.85h2.563l.147 3.384Zm-.645 3.941-1.128-.044c.01-1.084.171-2.085.484-3.003.312-.928.752-1.734 1.318-2.417a5.864 5.864 0 0 1 2.021-1.582c.791-.381 1.665-.572 2.622-.572.782 0 1.485.108 2.11.323a3.826 3.826 0 0 1 1.597.996c.449.459.791 1.054 1.025 1.787.234.723.351 1.606.351 2.651V366h-2.724v-10.415c0-.83-.122-1.494-.366-1.992-.244-.508-.601-.874-1.07-1.099-.468-.234-1.045-.351-1.728-.351-.674 0-1.289.141-1.846.424a4.432 4.432 0 0 0-1.421 1.172 5.927 5.927 0 0 0-.923 1.714 6.29 6.29 0 0 0-.322 2.022Zm20.859 6.591c.645 0 1.241-.131 1.788-.395a3.685 3.685 0 0 0 1.347-1.084 3.018 3.018 0 0 0 .601-1.597h2.578c-.049.938-.366 1.812-.952 2.622-.576.801-1.333 1.45-2.271 1.949-.937.488-1.967.732-3.091.732-1.191 0-2.231-.21-3.12-.63a6.187 6.187 0 0 1-2.197-1.728 7.738 7.738 0 0 1-1.304-2.52 10.64 10.64 0 0 1-.424-3.032v-.615c0-1.065.141-2.071.424-3.018a7.699 7.699 0 0 1 1.304-2.534 6.179 6.179 0 0 1 2.197-1.729c.889-.42 1.929-.63 3.12-.63 1.241 0 2.325.254 3.252.762a5.59 5.59 0 0 1 2.183 2.051c.537.859.83 1.836.879 2.93h-2.578a3.908 3.908 0 0 0-.557-1.773 3.473 3.473 0 0 0-1.289-1.26c-.537-.322-1.167-.483-1.89-.483-.83 0-1.528.166-2.094.498a3.67 3.67 0 0 0-1.333 1.318 6.131 6.131 0 0 0-.703 1.831 10.062 10.062 0 0 0-.205 2.037v.615c0 .693.068 1.377.205 2.051.136.673.366 1.284.688 1.831.332.547.776.986 1.333 1.318.567.322 1.27.483 2.109.483Zm15.938 2.227c-1.104 0-2.105-.186-3.003-.557a6.819 6.819 0 0 1-2.3-1.596 7.103 7.103 0 0 1-1.465-2.432c-.341-.937-.512-1.963-.512-3.076v-.615c0-1.289.19-2.437.571-3.443.381-1.015.898-1.875 1.553-2.578a6.66 6.66 0 0 1 2.226-1.597 6.402 6.402 0 0 1 2.578-.542c1.133 0 2.11.196 2.93.586.83.391 1.509.938 2.036 1.641.528.693.918 1.514 1.172 2.461.254.937.381 1.963.381 3.076v1.216h-11.836v-2.212h9.126v-.205a6.785 6.785 0 0 0-.439-2.051 3.69 3.69 0 0 0-1.172-1.64c-.537-.43-1.27-.645-2.198-.645-.615 0-1.181.132-1.699.395a3.623 3.623 0 0 0-1.333 1.143c-.371.508-.659 1.128-.864 1.86-.205.733-.308 1.578-.308 2.535v.615c0 .752.103 1.46.308 2.124.215.654.522 1.23.923 1.728.41.498.903.889 1.479 1.172.586.283 1.25.425 1.992.425.957 0 1.768-.195 2.432-.586a6.03 6.03 0 0 0 1.743-1.567l1.641 1.303a7.567 7.567 0 0 1-1.304 1.48c-.527.469-1.177.85-1.948 1.143-.762.292-1.665.439-2.71.439ZM385.801 345.562 378.74 365h-2.886l8.13-21.328h1.861l-.044 1.89ZM391.719 365l-7.075-19.438-.044-1.89h1.86L394.619 365h-2.9Zm-.366-7.896v2.315H379.37v-2.315h11.983Zm14.018-11.542L398.311 365h-2.886l8.13-21.328h1.86l-.044 1.89ZM411.289 365l-7.075-19.438-.044-1.89h1.86L414.189 365h-2.9Zm-.366-7.896v2.315H398.94v-2.315h11.983ZM395.086 441.562 388.025 461h-2.885l8.13-21.328h1.86l-.044 1.89ZM401.004 461l-7.075-19.438-.044-1.89h1.86L403.904 461h-2.9Zm-.366-7.896v2.315h-11.983v-2.315h11.983Z"/><path stroke="#000" d="M1282 405.5H0"/><path fill="#000" d="M1165.44 391.29v-8.159c0-.625-.13-1.167-.38-1.626-.25-.469-.62-.83-1.11-1.084-.5-.254-1.12-.381-1.85-.381-.68 0-1.28.117-1.8.352-.51.234-.91.542-1.2.922-.29.381-.43.791-.43 1.231h-2.71c0-.566.15-1.128.44-1.685.29-.556.71-1.059 1.26-1.508a6.325 6.325 0 0 1 1.99-1.084c.78-.274 1.65-.411 2.61-.411 1.15 0 2.17.196 3.05.586.89.391 1.58.982 2.08 1.773.51.781.76 1.763.76 2.944v7.383c0 .527.04 1.089.13 1.685.1.595.24 1.108.43 1.538V394h-2.83c-.14-.312-.25-.728-.32-1.245a9.812 9.812 0 0 1-.12-1.465Zm.47-6.899.03 1.904h-2.74c-.77 0-1.46.063-2.07.19-.6.118-1.11.298-1.52.542-.41.244-.72.552-.94.923-.21.362-.32.786-.32 1.275 0 .498.11.952.34 1.362.22.41.56.737 1.01.981.46.235 1.02.352 1.68.352.83 0 1.56-.176 2.2-.527.63-.352 1.14-.782 1.51-1.289.38-.508.58-1.001.61-1.48l1.16 1.304c-.07.41-.25.864-.56 1.362-.3.498-.7.977-1.21 1.436-.5.449-1.1.825-1.79 1.128-.68.292-1.45.439-2.31.439-1.08 0-2.02-.21-2.83-.63-.8-.42-1.43-.981-1.88-1.684a4.456 4.456 0 0 1-.66-2.388c0-.85.17-1.597.5-2.241.34-.655.81-1.197 1.44-1.626.62-.44 1.38-.772 2.25-.996.88-.225 1.86-.337 2.95-.337h3.15Zm12.84 7.675c.65 0 1.25-.131 1.79-.395.55-.264 1-.625 1.35-1.084.35-.469.55-1.001.6-1.597h2.58c-.05.938-.37 1.812-.95 2.622-.58.801-1.34 1.45-2.27 1.949-.94.488-1.97.732-3.1.732-1.19 0-2.23-.21-3.12-.63a6.189 6.189 0 0 1-2.19-1.728c-.58-.733-1.01-1.573-1.31-2.52-.28-.957-.42-1.968-.42-3.032v-.615c0-1.065.14-2.071.42-3.018.3-.957.73-1.802 1.31-2.534a6.18 6.18 0 0 1 2.19-1.729c.89-.42 1.93-.63 3.12-.63 1.25 0 2.33.254 3.26.762a5.657 5.657 0 0 1 2.18 2.051c.54.859.83 1.836.88 2.93h-2.58c-.05-.655-.23-1.246-.56-1.773a3.439 3.439 0 0 0-1.29-1.26c-.53-.322-1.16-.483-1.89-.483-.83 0-1.52.166-2.09.498-.56.322-1 .762-1.33 1.318a6.062 6.062 0 0 0-.71 1.831c-.13.665-.2 1.343-.2 2.037v.615c0 .693.07 1.377.2 2.051.14.673.37 1.284.69 1.831.33.547.78.986 1.34 1.318.56.322 1.27.483 2.1.483Zm15.71 0c.64 0 1.24-.131 1.79-.395.54-.264.99-.625 1.34-1.084.35-.469.55-1.001.6-1.597h2.58c-.05.938-.36 1.812-.95 2.622a6.52 6.52 0 0 1-2.27 1.949c-.94.488-1.97.732-3.09.732-1.19 0-2.23-.21-3.12-.63a6.224 6.224 0 0 1-2.2-1.728 7.597 7.597 0 0 1-1.3-2.52 10.4 10.4 0 0 1-.43-3.032v-.615c0-1.065.14-2.071.43-3.018a7.56 7.56 0 0 1 1.3-2.534 6.216 6.216 0 0 1 2.2-1.729c.89-.42 1.93-.63 3.12-.63 1.24 0 2.32.254 3.25.762.93.498 1.66 1.182 2.18 2.051.54.859.83 1.836.88 2.93h-2.58a3.938 3.938 0 0 0-.55-1.773 3.59 3.59 0 0 0-1.29-1.26c-.54-.322-1.17-.483-1.89-.483-.83 0-1.53.166-2.1.498a3.7 3.7 0 0 0-1.33 1.318 6.047 6.047 0 0 0-.7 1.831 9.854 9.854 0 0 0-.21 2.037v.615c0 .693.07 1.377.21 2.051.13.673.36 1.284.69 1.831.33.547.77.986 1.33 1.318.57.322 1.27.483 2.11.483Zm15.94 2.227c-1.11 0-2.11-.186-3.01-.557a6.858 6.858 0 0 1-2.3-1.596 7.139 7.139 0 0 1-1.46-2.432c-.34-.937-.51-1.963-.51-3.076v-.615c0-1.289.19-2.437.57-3.443.38-1.015.89-1.875 1.55-2.578a6.634 6.634 0 0 1 2.23-1.597 6.393 6.393 0 0 1 2.57-.542c1.14 0 2.11.196 2.93.586a5.38 5.38 0 0 1 2.04 1.641c.53.693.92 1.514 1.17 2.461.26.937.38 1.963.38 3.076v1.216h-11.83v-2.212h9.12v-.205a6.61 6.61 0 0 0-.44-2.051 3.625 3.625 0 0 0-1.17-1.64c-.54-.43-1.27-.645-2.2-.645a3.662 3.662 0 0 0-3.03 1.538c-.37.508-.66 1.128-.86 1.86-.21.733-.31 1.578-.31 2.535v.615c0 .752.1 1.46.31 2.124.21.654.52 1.23.92 1.728.41.498.9.889 1.48 1.172.59.283 1.25.425 1.99.425.96 0 1.77-.195 2.43-.586a6.003 6.003 0 0 0 1.75-1.567l1.64 1.303a7.476 7.476 0 0 1-1.31 1.48c-.52.469-1.17.85-1.94 1.143-.77.292-1.67.439-2.71.439Zm18.56-4.497c0-.391-.09-.752-.27-1.084-.16-.342-.51-.65-1.04-.923-.52-.283-1.3-.527-2.34-.732a18.48 18.48 0 0 1-2.39-.66c-.7-.253-1.3-.561-1.8-.922a3.83 3.83 0 0 1-1.13-1.275c-.26-.488-.4-1.059-.4-1.714 0-.625.14-1.215.41-1.772.29-.557.68-1.05 1.19-1.48a5.83 5.83 0 0 1 1.86-1.01c.72-.245 1.53-.367 2.42-.367 1.27 0 2.35.225 3.25.674.9.449 1.59 1.05 2.07 1.802.47.742.71 1.567.71 2.476h-2.71c0-.44-.13-.865-.39-1.275-.26-.42-.63-.766-1.13-1.04-.49-.273-1.09-.41-1.8-.41-.75 0-1.36.117-1.83.352-.46.224-.8.512-1.01.864-.21.351-.31.722-.31 1.113 0 .293.05.557.15.791.1.225.29.435.55.63.27.186.64.361 1.12.527.47.166 1.08.332 1.83.498 1.3.293 2.36.645 3.2 1.055.84.41 1.47.913 1.88 1.509.41.596.62 1.318.62 2.168 0 .693-.15 1.328-.44 1.904-.29.576-.7 1.074-1.25 1.494-.54.41-1.18.733-1.93.967-.75.225-1.58.337-2.51.337-1.39 0-2.58-.249-3.54-.747-.97-.498-1.7-1.143-2.2-1.934-.5-.791-.75-1.626-.75-2.505h2.73c.04.743.25 1.333.64 1.773.39.43.87.737 1.44.923.56.176 1.13.263 1.68.263.74 0 1.36-.097 1.86-.293.51-.195.9-.463 1.16-.805.26-.342.4-.733.4-1.172Zm9.21-11.646V394h-2.73v-15.85h2.73Zm-2.93-4.204c0-.439.13-.81.39-1.113.28-.303.68-.454 1.21-.454.51 0 .91.151 1.18.454.29.303.43.674.43 1.113 0 .42-.14.782-.43 1.084-.27.293-.67.44-1.18.44-.53 0-.93-.147-1.21-.44a1.607 1.607 0 0 1-.39-1.084Zm7.26-2.446h2.73v19.424L1245 394h-2.5v-22.5Zm13.44 14.443v.308c0 1.152-.14 2.222-.41 3.208-.28.977-.68 1.826-1.2 2.549a5.657 5.657 0 0 1-1.94 1.684c-.76.401-1.63.601-2.62.601-1.01 0-1.89-.171-2.65-.513a5.254 5.254 0 0 1-1.91-1.509c-.51-.654-.93-1.445-1.24-2.373-.3-.927-.51-1.972-.63-3.134v-1.348c.12-1.172.33-2.222.63-3.149.31-.928.73-1.719 1.24-2.373a5.061 5.061 0 0 1 1.91-1.509c.75-.352 1.63-.528 2.62-.528 1 0 1.88.196 2.65.586.77.381 1.42.928 1.94 1.641s.92 1.567 1.2 2.563c.27.987.41 2.085.41 3.296Zm-2.73.308v-.308c0-.791-.07-1.533-.22-2.226a5.667 5.667 0 0 0-.7-1.846 3.533 3.533 0 0 0-1.27-1.26c-.53-.312-1.18-.468-1.95-.468-.69 0-1.28.117-1.79.351-.5.235-.92.552-1.27.952a5 5 0 0 0-.87 1.348 8.247 8.247 0 0 0-.48 1.553v3.53c.15.684.41 1.343.76 1.977.36.625.84 1.138 1.44 1.539.6.4 1.35.6 2.24.6.73 0 1.35-.146 1.87-.439.53-.303.95-.718 1.28-1.245.33-.528.57-1.138.73-1.831.15-.694.23-1.436.23-2.227Zm9.1-14.751V394h-2.73v-22.5h2.73Zm10.93 22.793c-1.11 0-2.11-.186-3.01-.557a6.96 6.96 0 0 1-2.3-1.596 7.139 7.139 0 0 1-1.46-2.432c-.34-.937-.51-1.963-.51-3.076v-.615c0-1.289.19-2.437.57-3.443.38-1.015.9-1.875 1.55-2.578a6.734 6.734 0 0 1 2.23-1.597 6.405 6.405 0 0 1 2.58-.542c1.13 0 2.11.196 2.93.586.83.391 1.5.938 2.03 1.641.53.693.92 1.514 1.17 2.461.26.937.38 1.963.38 3.076v1.216h-11.83v-2.212h9.12v-.205a6.337 6.337 0 0 0-.44-2.051 3.625 3.625 0 0 0-1.17-1.64c-.53-.43-1.27-.645-2.19-.645-.62 0-1.19.132-1.7.395-.52.254-.97.635-1.34 1.143-.37.508-.66 1.128-.86 1.86-.21.733-.31 1.578-.31 2.535v.615c0 .752.1 1.46.31 2.124.21.654.52 1.23.92 1.728.41.498.91.889 1.48 1.172.59.283 1.25.425 1.99.425.96 0 1.77-.195 2.44-.586a6.097 6.097 0 0 0 1.74-1.567l1.64 1.303a7.743 7.743 0 0 1-1.3 1.48c-.53.469-1.18.85-1.95 1.143-.76.292-1.67.439-2.71.439ZM810.617 95.273l3.105-10.914h1.504l-.871 4.244-3.34 11.397h-1.494l1.096-4.727Zm-3.212-10.914 2.471 10.7.741 4.941h-1.482l-3.792-15.64h2.062Zm11.838 10.689 2.417-10.689h2.073L819.952 100h-1.482l.773-4.952Zm-3.792-10.689 3.019 10.914 1.095 4.727h-1.493l-3.222-11.397-.881-4.244h1.482Zm20.024 10.667h2.062c-.107.989-.39 1.873-.849 2.654-.458.78-1.106 1.4-1.944 1.858-.838.451-1.883.677-3.137.677-.916 0-1.751-.172-2.503-.516a5.564 5.564 0 0 1-1.922-1.46c-.537-.638-.953-1.4-1.246-2.289-.287-.895-.43-1.89-.43-2.986v-1.558c0-1.096.143-2.087.43-2.975.293-.895.712-1.662 1.256-2.3a5.61 5.61 0 0 1 1.988-1.47c.773-.345 1.643-.517 2.61-.517 1.182 0 2.181.222 2.997.666a4.764 4.764 0 0 1 1.901 1.848c.459.78.742 1.687.849 2.718h-2.062c-.101-.73-.287-1.357-.559-1.88a2.904 2.904 0 0 0-1.16-1.224c-.501-.287-1.157-.43-1.966-.43-.695 0-1.307.132-1.837.397-.523.265-.963.641-1.321 1.128-.351.487-.616 1.07-.795 1.751a8.904 8.904 0 0 0-.269 2.267v1.579c0 .766.079 1.486.237 2.159.164.673.411 1.264.741 1.772.329.509.748.91 1.257 1.204.508.286 1.11.43 1.804.43.881 0 1.583-.14 2.106-.42a2.74 2.74 0 0 0 1.182-1.203c.272-.523.465-1.15.58-1.88Zm10.677-9.28L840.975 100h-2.117l5.962-15.64h1.365l-.033 1.385Zm4.34 14.254-5.188-14.255-.033-1.386h1.365L852.619 100h-2.127Zm-.268-5.79v1.697h-8.787V94.21h8.787Zm15.92-1.998v5.725c-.194.287-.502.61-.924.967-.423.351-1.006.66-1.751.924-.738.258-1.69.387-2.858.387-.952 0-1.829-.165-2.632-.494a5.941 5.941 0 0 1-2.073-1.461c-.58-.645-1.031-1.425-1.353-2.342-.315-.924-.473-1.97-.473-3.137v-1.214c0-1.167.136-2.209.408-3.126.28-.916.688-1.693 1.225-2.33a5.134 5.134 0 0 1 1.976-1.462c.781-.336 1.676-.505 2.686-.505 1.196 0 2.195.208 2.997.624.809.408 1.44.974 1.891 1.697.458.723.752 1.547.881 2.47h-2.074a4.352 4.352 0 0 0-.558-1.546 2.988 2.988 0 0 0-1.171-1.117c-.509-.287-1.164-.43-1.966-.43-.723 0-1.35.132-1.88.397-.53.265-.967.645-1.31 1.139-.344.494-.602 1.092-.774 1.794-.165.702-.247 1.493-.247 2.374v1.235c0 .903.104 1.708.312 2.417.214.71.519 1.314.913 1.816.394.494.863.87 1.407 1.128.551.257 1.16.386 1.826.386.738 0 1.336-.06 1.794-.182.458-.13.816-.28 1.074-.452.258-.178.455-.347.591-.504v-3.502h-3.62v-1.676h5.683Zm11.279-1.01h1.418c.694 0 1.267-.114 1.719-.344.458-.236.798-.555 1.02-.956.229-.408.344-.866.344-1.375 0-.601-.1-1.106-.301-1.514a2.01 2.01 0 0 0-.902-.924c-.401-.208-.91-.312-1.526-.312-.558 0-1.052.111-1.482.333a2.431 2.431 0 0 0-.999.924c-.236.401-.355.874-.355 1.418h-1.987c0-.795.201-1.518.602-2.17.401-.651.963-1.17 1.686-1.557.731-.387 1.576-.58 2.535-.58.946 0 1.773.168 2.482.504.709.33 1.26.824 1.654 1.483.394.651.591 1.464.591 2.438 0 .394-.093.817-.279 1.268-.179.444-.462.86-.849 1.246-.38.387-.874.705-1.482.956-.609.243-1.34.365-2.192.365h-1.697v-1.203Zm0 1.633v-1.192h1.697c.996 0 1.819.118 2.471.354.652.236 1.164.552 1.536.945.38.394.644.828.795 1.3.157.466.236.931.236 1.397 0 .73-.125 1.378-.376 1.944a3.96 3.96 0 0 1-1.042 1.44 4.461 4.461 0 0 1-1.568.891c-.602.201-1.257.301-1.966.301-.68 0-1.321-.097-1.923-.29a4.981 4.981 0 0 1-1.579-.838 3.928 3.928 0 0 1-1.074-1.364c-.258-.545-.387-1.164-.387-1.859h1.987c0 .544.119 1.02.355 1.429.243.408.587.727 1.031.956.451.222.981.333 1.59.333.609 0 1.132-.104 1.568-.311a2.26 2.26 0 0 0 1.021-.967c.243-.43.365-.97.365-1.622 0-.652-.136-1.186-.408-1.6a2.395 2.395 0 0 0-1.16-.935c-.494-.208-1.078-.312-1.751-.312h-1.418Zm9.722 6.112c0-.336.103-.62.311-.848.215-.237.523-.355.924-.355s.705.118.913.355c.215.229.322.512.322.848 0 .33-.107.609-.322.838-.208.229-.512.344-.913.344s-.709-.115-.924-.344a1.201 1.201 0 0 1-.311-.838Zm7.111-10.57 2.546 4.232 2.578-4.232h2.331l-3.803 5.736 3.921 5.887h-2.299l-2.685-4.361-2.686 4.361h-2.309l3.91-5.887-3.792-5.736h2.288ZM352.117 188.273l3.105-10.914h1.504l-.871 4.244-3.34 11.397h-1.494l1.096-4.727Zm-3.212-10.914 2.471 10.7.741 4.941h-1.482l-3.792-15.641h2.062Zm11.838 10.689 2.417-10.689h2.073L361.452 193h-1.482l.773-4.952Zm-3.792-10.689 3.019 10.914 1.095 4.727h-1.493l-3.222-11.397-.881-4.244h1.482Zm20.024 10.667h2.062c-.107.989-.39 1.873-.849 2.654-.458.78-1.106 1.4-1.944 1.858-.838.451-1.883.677-3.137.677-.916 0-1.751-.172-2.503-.516a5.57 5.57 0 0 1-1.922-1.461c-.537-.637-.953-1.4-1.246-2.288-.287-.895-.43-1.89-.43-2.986v-1.558c0-1.095.143-2.087.43-2.975.293-.896.712-1.662 1.256-2.299a5.606 5.606 0 0 1 1.988-1.472c.773-.344 1.643-.515 2.61-.515 1.182 0 2.181.222 2.997.666a4.76 4.76 0 0 1 1.901 1.847c.459.781.742 1.687.849 2.718h-2.062c-.101-.73-.287-1.357-.559-1.88a2.908 2.908 0 0 0-1.16-1.225c-.501-.286-1.157-.429-1.966-.429-.695 0-1.307.132-1.837.397a3.696 3.696 0 0 0-1.321 1.128c-.351.487-.616 1.071-.795 1.751a8.91 8.91 0 0 0-.269 2.267v1.579c0 .766.079 1.486.237 2.159.164.673.411 1.264.741 1.773.329.508.748.909 1.257 1.203.508.286 1.11.429 1.804.429.881 0 1.583-.139 2.106-.419.523-.279.917-.68 1.182-1.203.272-.523.465-1.149.58-1.88Zm10.677-9.281L382.475 193h-2.117l5.962-15.641h1.365l-.033 1.386Zm4.34 14.255-5.188-14.255-.033-1.386h1.365L394.119 193h-2.127Zm-.268-5.79v1.697h-8.787v-1.697h8.787Zm15.92-1.998v5.726c-.194.286-.502.608-.924.966-.423.351-1.006.659-1.751.924-.738.258-1.69.387-2.858.387-.952 0-1.829-.165-2.632-.494a5.95 5.95 0 0 1-2.073-1.461c-.58-.645-1.031-1.425-1.353-2.342-.315-.924-.473-1.969-.473-3.137v-1.214c0-1.167.136-2.209.408-3.126.28-.916.688-1.693 1.225-2.331a5.146 5.146 0 0 1 1.976-1.461c.781-.336 1.676-.504 2.686-.504 1.196 0 2.195.207 2.997.623.809.408 1.44.974 1.891 1.697.458.723.752 1.547.881 2.471h-2.074a4.347 4.347 0 0 0-.558-1.547 2.992 2.992 0 0 0-1.171-1.118c-.509-.286-1.164-.429-1.966-.429-.723 0-1.35.132-1.88.397-.53.265-.967.645-1.31 1.139-.344.494-.602 1.092-.774 1.794-.165.702-.247 1.493-.247 2.374v1.235c0 .903.104 1.708.312 2.417.214.709.519 1.314.913 1.816.394.494.863.87 1.407 1.128.551.257 1.16.386 1.826.386.738 0 1.336-.061 1.794-.182.458-.129.816-.28 1.074-.451.258-.18.455-.348.591-.505v-3.502h-3.62v-1.676h5.683Zm18.627 6.155V193h-10.238v-1.429l5.124-5.704c.63-.702 1.117-1.296 1.461-1.783.351-.494.595-.935.731-1.321.143-.394.214-.795.214-1.203 0-.516-.107-.982-.322-1.397a2.411 2.411 0 0 0-.924-1.01c-.408-.25-.902-.376-1.482-.376-.695 0-1.275.136-1.74.409a2.513 2.513 0 0 0-1.032 1.117c-.229.48-.343 1.031-.343 1.654h-1.988c0-.881.194-1.686.58-2.417.387-.73.96-1.311 1.719-1.74.759-.437 1.694-.655 2.804-.655.988 0 1.833.175 2.535.526.702.344 1.239.831 1.611 1.461.38.623.57 1.353.57 2.191 0 .459-.079.924-.237 1.397-.15.465-.361.931-.633 1.396-.265.466-.577.924-.935 1.375a21.52 21.52 0 0 1-1.128 1.332l-4.189 4.544h7.842Zm2.374.58c0-.336.103-.619.311-.848.215-.237.523-.355.924-.355s.705.118.913.355c.215.229.322.512.322.848 0 .33-.107.609-.322.838-.208.229-.512.344-.913.344s-.709-.115-.924-.344a1.2 1.2 0 0 1-.311-.838Zm7.111-10.57 2.546 4.232 2.578-4.232h2.331l-3.803 5.736 3.921 5.887h-2.299l-2.685-4.361-2.686 4.361h-2.309l3.91-5.887-3.792-5.736h2.288Z"/></svg>