<svg xmlns="http://www.w3.org/2000/svg" id="a120a2c5-c99d-4e41-8f76-3ae6a97ef94f" data-name="Layer 1" viewBox="0 0 976.622 641.533"><path fill="#e6e6e6" d="M331.897.365h644.725v412.91H331.897z"/><path fill="#fff" d="M350.333 52.155h607.853v336.693H350.333z"/><path fill="#6c63ff" d="M331.622 0h644.725v27.39H331.622z"/><circle cx="351.976" cy="14.003" r="5.077" fill="#fff"/><circle cx="371.246" cy="14.003" r="5.077" fill="#fff"/><circle cx="390.515" cy="14.003" r="5.077" fill="#fff"/><path fill="#e6e6e6" d="M410.569 109.068h61v27h-61z"/><path fill="#e6e6e6" d="M532.569 165.068h61v27h-61z"/><path fill="#6c63ff" d="M410.569 249.068h61v27h-61z"/><path fill="#6c63ff" d="M532.569 305.068h61v27h-61z"/><path fill="#6c63ff" d="M836.569 333.068h61v27h-61z"/><path fill="#e6e6e6" d="M775.569 221.068h61v27h-61z"/><path fill="#6c63ff" d="M593.569 221.068h122v27h-122z"/><path fill="#6c63ff" d="M593.569 80.068h122v27h-122z"/><path fill="#e6e6e6" d="M461.258 180.301v339h610v-339zm608 28.084h-58.8V182.3h58.8zm-362.8 196.583v-26.083h119.6v26.083zm119.6 2v26.083h-119.6v-26.083zm0-112.333v26.083h-119.6v-26.083zm-119.6-2V266.55h119.6v26.084zm0 56.166v-26.083h119.6V348.8zm119.6 2v26.084h-119.6V350.8zm-121.6-30.083h-58.8v-26.083h58.8zm0 2V348.8h-58.8v-26.083zm0 28.083v26.084h-58.8V350.8zm0 28.084v26.083h-58.8v-26.083zm123.6 0h58.8v26.083h-58.8zm0-2V350.8h58.8v26.084zm0-28.084v-26.083h58.8V348.8zm0-28.083v-26.083h58.8v26.083zm0-28.083V266.55h58.8v26.084zm0-28.084v-26.083h58.8v26.083zm-2 0h-119.6v-26.083h119.6zm-121.6 0h-58.8v-26.083h58.8zm0 2v26.084h-58.8V266.55zm-60.8 26.084h-58.8V266.55h58.8zm0 2v26.083h-58.8v-26.083zm0 28.083V348.8h-58.8v-26.083zm0 28.083v26.084h-58.8V350.8zm0 28.084v26.083h-58.8v-26.083zm0 28.083v26.083h-58.8v-26.083zm2 0h58.8v26.083h-58.8zm58.8 28.083v26.083h-58.8v-26.083zm2 0h119.6v26.083h-119.6zm121.6 0h58.8v26.083h-58.8zm0-2v-26.083h58.8v26.083zm60.8-26.083h58.8v26.083h-58.8zm0-2v-26.083h58.8v26.083zm0-28.083V350.8h58.8v26.084zm0-28.084v-26.083h58.8V348.8zm0-28.083v-26.083h58.8v26.083zm0-28.083V266.55h58.8v26.084zm0-28.084v-26.083h58.8v26.083zm0-28.083v-26.083h58.8v26.083zm-2 0h-58.8v-26.083h58.8zm-60.8 0h-119.6v-26.083h119.6zm-121.6 0h-58.8v-26.083h58.8zm-60.8 0h-58.8v-26.083h58.8zm0 2v26.083h-58.8v-26.083zm-60.8 26.083h-58.8v-26.083h58.8zm0 2v26.084h-58.8V266.55zm0 28.084v26.083h-58.8v-26.083zm0 28.083V348.8h-58.8v-26.083zm0 28.083v26.084h-58.8V350.8zm0 28.084v26.083h-58.8v-26.083zm0 28.083v26.083h-58.8v-26.083zm0 28.083v26.083h-58.8v-26.083zm2 0h58.8v26.083h-58.8zm58.8 28.083v26.084h-58.8v-26.084zm2 0h58.8v26.084h-58.8zm60.8 0h119.6v26.084h-119.6zm121.6 0h58.8v26.084h-58.8zm60.8 0h58.8v26.084h-58.8zm0-2v-26.083h58.8v26.083zm60.8-26.083h58.8v26.083h-58.8zm0-2v-26.083h58.8v26.083zm0-28.083v-26.083h58.8v26.083zm0-28.083V350.8h58.8v26.084zm0-28.084v-26.083h58.8V348.8zm0-28.083v-26.083h58.8v26.083zm0-28.083V266.55h58.8v26.084zm0-28.084v-26.083h58.8v26.083zm0-28.083v-26.083h58.8v26.083zm0-28.083V182.3h58.8v26.084zm-2 0h-58.8V182.3h58.8zm-60.8 0h-58.8V182.3h58.8zm-60.8 0h-119.6V182.3h119.6zm-121.6 0h-58.8V182.3h58.8zm-60.8 0h-58.8V182.3h58.8zm-60.8 0h-58.8V182.3h58.8zm0 2v26.083h-58.8v-26.083zm-60.8 26.083h-58.8v-26.083h58.8zm0 2v26.083h-58.8v-26.083zm0 28.083v26.084h-58.8V266.55zm0 28.084v26.083h-58.8v-26.083zm0 28.083V348.8h-58.8v-26.083zm0 28.083v26.084h-58.8V350.8zm0 28.084v26.083h-58.8v-26.083zm0 28.083v26.083h-58.8v-26.083zm0 28.083v26.083h-58.8v-26.083zm0 28.083v26.084h-58.8v-26.084zm2 0h58.8v26.084h-58.8zm58.8 28.084v26.083h-58.8v-26.083zm2 0h58.8v26.083h-58.8zm60.8 0h58.8v26.083h-58.8zm60.8 0h119.6v26.083h-119.6zm121.6 0h58.8v26.083h-58.8zm60.8 0h58.8v26.083h-58.8zm60.8 0h58.8v26.083h-58.8zm0-2v-26.084h58.8v26.084zm60.8-26.084h58.8v26.084h-58.8zm0-2v-26.083h58.8v26.083zm0-28.083v-26.083h58.8v26.083zm0-28.083v-26.083h58.8v26.083zm0-28.083V350.8h58.8v26.084zm0-28.084v-26.083h58.8V348.8zm0-28.083v-26.083h58.8v26.083zm0-28.083V266.55h58.8v26.084zm0-28.084v-26.083h58.8v26.083zm0-28.083v-26.083h58.8v26.083zm-488.4-54.167v26.084h-58.8V182.3zm-58.8 308.917h58.8v26.083h-58.8zm547.2 26.083v-26.083h58.8v26.083z" transform="translate(-111.689 -129.234)"/><path fill="#3f3d56" d="M257.738 637.661H0v-2.106h258.12l-.382 2.106z"/><path fill="#2f2e41" d="M302.12 468.961L295.43 626.97l-4.18 71.062s9.196 15.049-4.18 16.72-38.457-2.507-35.113-10.868 5.852-8.36 5.852-8.36l3.344-80.258-25.08-98.651-31.77 106.175-6.688 76.078s9.197 11.705 0 14.213-33.44 2.508-32.605-5.017 4.18-7.524 4.18-7.524l-4.18-220.71 12.54-19.23z" transform="translate(-111.689 -129.234)"/><path fill="#2f2e41" d="M283.727 709.737l3.344 20.9s19.228 40.13-7.524 40.13-19.229-15.885-19.229-15.885l2.508-45.145z" transform="translate(-111.689 -129.234)"/><path fill="#2f2e41" d="M170.027 709.737l-3.344 20.9s-19.228 40.13 7.525 40.13 19.228-15.885 19.228-15.885l-2.508-45.145z" transform="translate(-111.689 -129.234)"/><path fill="#ffb9b9" d="M255.302 232.366s8.36 30.097 10.032 30.097-15.884 23.409-15.884 23.409l-25.917 14.212-9.196-38.457s8.36-20.9 6.688-31.77z" transform="translate(-111.689 -129.234)"/><circle cx="130.237" cy="83.904" r="30.933" fill="#ffb9b9"/><path fill="#575a89" d="M237.745 277.511l24.716-21.463 14.578 7.25 31.769 20.065s-8.36 180.582-4.18 187.27c0 0-9.197 20.9-63.538 8.36s-68.555-14.212-68.555-14.212l11.705-110.355-14.213-69.39 47.74-33.384 14.962 25.86z" transform="translate(-111.689 -129.234)"/><path fill="#ffb9b9" d="M155.815 341.05l-7.524 35.112v71.063s10.868 45.145 19.228 33.44 8.188-15.41 8.188-15.41l-10.696-16.358 5.016-66.882 13.329-31.905z" transform="translate(-111.689 -129.234)"/><path fill="#ffb9b9" d="M295.72 359.721l8.881 34.96-4.116 70.32-12.829 15.657s-.675 3.838 6.025 17.113 23.612-32.348 23.612-32.348l9.657-74.026-2.688-37.551z" transform="translate(-111.689 -129.234)"/><path fill="#2f2e41" d="M212.665 182.204s10.032-21.736 29.26-16.72 30.098 12.54 30.934 20.064-.418 18.811-.418 18.811-2.09-15.466-15.467-12.122-34.277.836-34.277.836l-3.344 30.097s-3.762-5.434-7.942-2.09-12.123-32.187 1.254-38.876z" transform="translate(-111.689 -129.234)"/><path fill="#575a89" d="M189.256 283.364l-19.229 1.672s-21.736 59.357-19.228 61.03 32.605 11.704 36.785 9.196 1.672-71.898 1.672-71.898z" transform="translate(-111.689 -129.234)"/><path fill="#575a89" d="M302.12 285.036l6.688-1.673s12.54 15.885 16.72 34.277 10.032 36.786 6.688 36.786-43.794 10.875-43.794 10.875z" transform="translate(-111.689 -129.234)"/></svg>